<?xml version="1.0" standalone="no"?>
<!DOCTYPE svg PUBLIC "-//W3C//DTD SVG 20010904//EN"
 "http://www.w3.org/TR/2001/REC-SVG-20010904/DTD/svg10.dtd">
<svg version="1.0" xmlns="http://www.w3.org/2000/svg"
 width="1500.000000pt" height="272.000000pt" viewBox="0 0 1500.000000 272.000000"
 preserveAspectRatio="xMidYMid meet">

<g transform="translate(0.000000,272.000000) scale(0.100000,-0.100000)"
fill="#000000" stroke="none">
<path d="M175 2233 c-79 -20 -118 -110 -80 -183 32 -61 13 -60 706 -60 l633
-1 53 117 c29 64 53 121 53 125 0 9 -1330 11 -1365 2z"/>
<path d="M131 1684 c-17 -14 -36 -43 -42 -64 -10 -32 -9 -44 7 -77 37 -74 25
-73 595 -73 l506 0 46 103 c25 56 49 110 52 120 7 16 -24 17 -563 17 l-570 0
-31 -26z"/>
</g>
</svg>
