<svg id="svg" version="1.1" xmlns="http://www.w3.org/2000/svg" xmlns:xlink="http://www.w3.org/1999/xlink" width="400" height="72.53333333333333" viewBox="0, 0, 400,72.53333333333333"><g id="svgg"><path id="path0" d="M4.949 12.450 C 5.472 12.551,5.243 13.000,4.669 13.000 C 4.415 13.000,4.114 13.112,4.000 13.250 C 3.772 13.525,3.084 13.601,3.250 13.333 C 3.421 13.057,3.188 13.146,2.846 13.488 C 2.656 13.677,2.560 13.942,2.610 14.135 C 2.657 14.314,2.566 14.710,2.409 15.015 C 1.624 16.533,3.101 19.500,4.642 19.500 C 5.026 19.500,5.138 19.917,4.792 20.056 C 4.677 20.103,12.205 20.146,21.521 20.154 C 36.498 20.165,38.484 20.137,38.670 19.913 C 38.846 19.701,38.836 19.676,38.607 19.764 C 38.263 19.896,38.262 19.685,38.601 18.837 C 38.810 18.316,38.958 18.167,39.268 18.167 C 39.487 18.167,39.667 18.087,39.667 17.990 C 39.667 17.893,39.591 17.860,39.499 17.917 C 39.202 18.101,39.117 17.498,39.397 17.189 C 39.546 17.024,39.622 16.844,39.567 16.789 C 39.512 16.734,39.661 16.433,39.900 16.120 C 40.138 15.808,40.333 15.358,40.333 15.121 C 40.333 14.865,40.496 14.563,40.734 14.376 C 41.058 14.121,41.128 13.925,41.099 13.363 C 41.080 12.980,41.125 12.667,41.199 12.667 C 41.273 12.667,41.333 12.592,41.333 12.500 C 41.333 12.390,35.112 12.341,22.958 12.356 C 12.852 12.369,4.748 12.411,4.949 12.450 M104.843 21.121 C 104.711 21.173,104.411 21.408,104.176 21.642 L 103.750 22.068 103.701 26.796 L 103.652 31.525 103.128 31.013 C 102.839 30.731,102.548 30.500,102.480 30.500 C 102.413 30.500,102.258 30.403,102.137 30.285 C 102.016 30.167,101.617 29.937,101.250 29.774 C 100.883 29.611,100.403 29.389,100.182 29.280 C 99.639 29.013,93.538 29.005,93.369 29.271 C 93.303 29.374,93.006 29.511,92.708 29.576 C 92.410 29.640,92.167 29.762,92.167 29.847 C 92.167 29.931,92.054 30.000,91.917 30.000 C 91.779 30.000,91.667 30.075,91.667 30.167 C 91.667 30.258,91.570 30.333,91.453 30.333 C 90.514 30.333,87.667 33.899,87.667 35.074 C 87.667 35.217,87.600 35.333,87.519 35.333 C 87.438 35.333,87.330 35.540,87.279 35.792 C 87.229 36.044,87.111 36.587,87.018 37.000 C 86.924 37.412,86.848 38.987,86.848 40.500 C 86.848 42.012,86.924 43.587,87.018 44.000 C 87.111 44.413,87.229 44.956,87.279 45.208 C 87.330 45.460,87.438 45.667,87.519 45.667 C 87.600 45.667,87.667 45.783,87.667 45.926 C 87.667 47.195,90.455 50.583,91.792 50.937 C 91.998 50.991,92.167 51.100,92.167 51.177 C 92.167 51.255,92.429 51.367,92.750 51.428 C 93.071 51.488,93.333 51.604,93.333 51.685 C 93.333 51.767,93.554 51.833,93.823 51.833 C 94.093 51.833,94.360 51.908,94.417 52.000 C 94.477 52.098,95.471 52.167,96.833 52.167 C 98.196 52.167,99.189 52.098,99.250 52.000 C 99.307 51.908,99.532 51.833,99.750 51.833 C 99.968 51.833,100.188 51.767,100.239 51.685 C 100.289 51.604,100.528 51.487,100.770 51.427 C 101.317 51.289,102.838 50.326,103.312 49.817 L 103.667 49.437 103.667 49.901 C 103.667 50.528,104.162 51.326,104.623 51.442 C 104.830 51.494,105.000 51.603,105.000 51.685 C 105.000 51.766,105.638 51.833,106.417 51.833 C 107.250 51.833,107.833 51.765,107.833 51.667 C 107.833 51.575,107.914 51.500,108.012 51.500 C 108.219 51.500,108.482 51.250,108.882 50.671 C 109.145 50.291,109.167 49.197,109.167 36.324 L 109.167 22.389 108.526 21.694 L 107.885 21.000 106.484 21.013 C 105.714 21.020,104.975 21.069,104.843 21.121 M160.402 21.354 C 159.266 22.178,159.333 21.241,159.333 36.337 C 159.333 49.819,159.337 49.988,159.677 50.563 C 160.730 52.348,163.771 52.332,164.792 50.537 C 165.059 50.067,165.100 22.333,164.833 22.333 C 164.742 22.333,164.664 22.240,164.661 22.125 C 164.633 21.068,161.563 20.512,160.402 21.354 M225.736 21.354 C 224.599 22.179,224.667 21.231,224.667 36.430 C 224.667 45.477,224.724 50.167,224.833 50.167 C 224.925 50.167,225.000 50.268,225.000 50.391 C 225.000 50.700,225.572 51.332,226.100 51.606 C 226.585 51.858,228.833 51.922,228.833 51.685 C 228.833 51.603,229.006 51.493,229.216 51.440 C 230.269 51.176,230.333 50.711,230.333 43.336 L 230.333 36.633 231.125 35.819 C 231.560 35.371,232.005 35.004,232.113 35.003 C 232.221 35.001,232.409 34.903,232.530 34.785 C 233.815 33.533,238.492 33.830,238.924 35.191 C 238.978 35.361,239.092 35.500,239.178 35.500 C 239.263 35.500,239.333 35.644,239.333 35.819 C 239.333 35.995,239.427 36.170,239.542 36.208 C 239.703 36.262,239.763 37.880,239.806 43.346 C 239.837 47.234,239.912 50.453,239.973 50.499 C 240.034 50.545,240.164 50.733,240.264 50.917 C 240.363 51.100,240.607 51.324,240.805 51.415 C 241.004 51.505,241.167 51.636,241.167 51.706 C 241.167 51.776,241.767 51.833,242.500 51.833 C 243.278 51.833,243.833 51.764,243.833 51.667 C 243.833 51.575,243.942 51.500,244.075 51.500 C 244.208 51.500,244.508 51.249,244.742 50.943 L 245.167 50.385 245.167 42.128 C 245.167 33.815,245.055 32.167,244.493 32.167 C 244.425 32.167,244.324 31.985,244.268 31.763 C 244.116 31.158,243.009 30.129,241.914 29.575 L 240.942 29.083 237.715 29.083 C 235.540 29.083,234.449 29.143,234.369 29.268 C 234.303 29.369,233.969 29.504,233.625 29.567 C 233.281 29.630,233.000 29.735,233.000 29.800 C 233.000 29.865,232.756 30.023,232.458 30.150 C 232.160 30.278,231.560 30.634,231.125 30.941 L 230.333 31.499 230.333 27.109 C 230.333 22.437,230.288 22.130,229.484 21.402 C 228.912 20.884,226.427 20.852,225.736 21.354 M253.583 21.149 C 253.054 21.378,252.335 22.180,252.237 22.651 C 252.187 22.889,252.076 23.214,251.990 23.373 C 251.904 23.532,251.833 23.852,251.833 24.083 C 251.833 24.315,251.904 24.635,251.990 24.794 C 252.076 24.953,252.187 25.277,252.236 25.513 C 252.341 26.021,253.230 27.000,253.585 27.000 C 253.721 27.000,253.833 27.075,253.833 27.167 C 253.833 27.265,254.417 27.333,255.250 27.333 C 256.029 27.333,256.667 27.266,256.667 27.185 C 256.667 27.103,256.835 26.990,257.042 26.935 C 258.747 26.473,259.061 21.558,257.389 21.506 C 257.282 21.503,257.163 21.406,257.125 21.292 C 257.042 21.043,254.104 20.925,253.583 21.149 M146.083 23.167 C 146.027 23.258,145.841 23.333,145.670 23.333 C 145.342 23.333,144.336 23.848,144.334 24.016 C 144.334 24.071,144.183 24.289,144.000 24.500 C 143.701 24.844,143.667 25.124,143.667 27.192 L 143.667 29.500 142.340 29.500 C 140.640 29.500,139.833 30.253,139.833 31.840 C 139.833 33.412,140.880 34.333,142.666 34.333 L 143.650 34.333 143.700 41.375 C 143.756 49.328,143.731 49.168,145.170 50.650 C 145.754 51.252,146.069 51.441,147.383 51.977 C 147.964 52.214,152.106 52.234,152.250 52.000 C 152.307 51.908,152.536 51.833,152.760 51.833 C 152.984 51.833,153.167 51.770,153.167 51.693 C 153.167 51.616,153.342 51.473,153.557 51.376 C 154.333 51.022,154.731 49.467,154.323 48.386 C 153.929 47.343,153.291 47.000,151.747 47.000 C 150.146 47.000,149.500 46.617,149.500 45.669 C 149.500 45.404,149.425 45.140,149.333 45.083 C 149.228 45.018,149.167 43.026,149.167 39.657 L 149.167 34.333 150.761 34.333 C 151.638 34.333,152.506 34.253,152.691 34.154 C 153.283 33.837,153.667 33.434,153.667 33.130 C 153.667 32.967,153.742 32.833,153.833 32.833 C 153.926 32.833,154.000 32.389,154.000 31.833 C 154.000 31.278,153.926 30.833,153.833 30.833 C 153.742 30.833,153.667 30.724,153.667 30.591 C 153.667 29.815,152.899 29.500,151.004 29.500 L 149.190 29.500 149.137 26.924 L 149.083 24.348 148.530 23.890 C 147.678 23.185,146.320 22.784,146.083 23.167 M122.625 29.112 C 122.281 29.153,122.000 29.257,122.000 29.343 C 122.000 29.430,121.831 29.500,121.625 29.499 C 121.160 29.498,119.667 30.022,119.667 30.186 C 119.667 30.253,119.443 30.356,119.169 30.416 C 118.895 30.476,118.295 30.888,117.836 31.331 L 117.000 32.137 117.000 33.306 C 117.000 34.123,117.074 34.543,117.244 34.696 C 118.584 35.905,119.242 35.902,121.269 34.680 C 121.889 34.306,122.565 34.000,122.771 34.000 C 122.978 34.000,123.193 33.925,123.250 33.833 C 123.377 33.628,127.167 33.607,127.167 33.813 C 127.167 33.893,127.373 34.000,127.626 34.050 C 128.975 34.320,129.814 35.803,129.955 38.164 C 130.027 39.384,130.022 39.405,129.710 39.122 C 129.534 38.963,129.303 38.833,129.195 38.833 C 129.088 38.833,129.000 38.762,129.000 38.674 C 129.000 38.587,128.737 38.466,128.417 38.406 C 128.096 38.345,127.833 38.230,127.833 38.148 C 127.833 38.067,127.652 38.000,127.431 38.000 C 127.209 38.000,126.997 37.906,126.958 37.792 C 126.768 37.220,119.333 37.613,119.333 38.194 C 119.333 38.256,119.108 38.356,118.833 38.417 C 118.558 38.477,118.333 38.578,118.333 38.642 C 118.333 38.706,118.090 38.892,117.792 39.056 C 117.260 39.349,116.167 40.652,116.167 40.993 C 116.167 41.089,116.093 41.167,116.002 41.167 C 115.911 41.167,115.789 41.467,115.731 41.833 C 115.672 42.200,115.559 42.500,115.479 42.500 C 115.399 42.500,115.333 43.475,115.333 44.667 C 115.333 45.858,115.399 46.833,115.478 46.833 C 115.558 46.833,115.665 47.094,115.717 47.412 C 115.947 48.831,118.589 51.478,119.792 51.495 C 119.998 51.498,120.167 51.575,120.167 51.667 C 120.167 51.758,120.350 51.833,120.573 51.833 C 120.797 51.833,121.027 51.908,121.083 52.000 C 121.143 52.097,122.067 52.167,123.290 52.167 C 125.184 52.167,126.075 52.041,126.839 51.667 C 126.979 51.599,127.336 51.489,127.630 51.425 C 127.925 51.360,128.167 51.238,128.167 51.153 C 128.167 51.069,128.268 51.000,128.392 51.000 C 128.515 51.000,128.920 50.780,129.292 50.511 C 130.030 49.976,130.087 49.991,130.429 50.807 C 130.557 51.113,130.813 51.403,130.998 51.451 C 131.182 51.499,131.333 51.605,131.333 51.686 C 131.333 52.382,134.749 51.614,134.939 50.875 C 134.993 50.669,135.103 50.500,135.185 50.500 C 135.378 50.500,135.381 34.549,135.189 34.430 C 135.109 34.381,134.996 34.039,134.937 33.670 C 134.878 33.302,134.763 33.000,134.683 33.000 C 134.602 33.000,134.489 32.813,134.432 32.583 C 134.374 32.354,134.253 32.167,134.163 32.167 C 134.074 32.167,134.000 32.079,134.000 31.971 C 134.000 31.683,132.625 30.416,132.022 30.150 C 131.735 30.023,131.500 29.865,131.500 29.800 C 131.500 29.735,131.219 29.630,130.875 29.567 C 130.531 29.504,130.198 29.371,130.133 29.271 C 130.015 29.088,123.910 28.959,122.625 29.112 M179.708 29.112 C 179.410 29.154,179.167 29.258,179.167 29.344 C 179.167 29.430,179.035 29.502,178.875 29.504 C 178.391 29.510,175.670 30.956,175.668 31.208 C 175.667 31.277,175.580 31.333,175.474 31.333 C 174.602 31.333,171.667 36.013,171.667 37.404 C 171.667 37.629,171.592 37.860,171.500 37.917 C 171.294 38.044,171.272 42.943,171.477 43.069 C 171.556 43.118,171.666 43.495,171.723 43.908 C 171.780 44.321,171.894 44.792,171.978 44.955 C 172.061 45.117,172.269 45.550,172.440 45.917 C 172.610 46.283,172.790 46.621,172.839 46.667 C 172.888 46.712,173.178 47.146,173.484 47.630 C 174.067 48.551,175.744 50.167,176.117 50.167 C 176.236 50.167,176.333 50.229,176.333 50.306 C 176.333 50.497,178.566 51.500,178.991 51.500 C 179.179 51.500,179.333 51.575,179.333 51.667 C 179.333 51.758,179.591 51.833,179.907 51.833 C 180.222 51.833,180.527 51.908,180.583 52.000 C 180.645 52.100,181.804 52.167,183.500 52.167 C 185.196 52.167,186.355 52.100,186.417 52.000 C 186.473 51.908,186.773 51.833,187.083 51.833 C 187.393 51.833,187.693 51.758,187.750 51.667 C 187.807 51.575,188.006 51.500,188.193 51.500 C 188.380 51.500,188.807 51.382,189.141 51.238 C 191.565 50.193,192.167 49.613,192.167 48.320 C 192.167 47.777,192.100 47.333,192.019 47.333 C 191.938 47.333,191.835 47.189,191.788 47.013 C 191.451 45.722,189.142 45.786,186.652 47.157 C 185.639 47.714,181.531 47.725,181.167 47.172 C 181.121 47.102,180.896 46.987,180.667 46.917 C 180.105 46.744,178.561 45.223,178.214 44.500 C 178.060 44.179,177.885 43.879,177.824 43.833 C 177.764 43.788,177.663 43.469,177.600 43.125 L 177.485 42.500 184.566 42.500 C 188.461 42.500,191.687 42.435,191.736 42.356 C 191.785 42.276,192.090 42.169,192.414 42.116 C 193.044 42.014,193.444 41.700,193.787 41.039 C 194.029 40.573,194.082 37.904,193.853 37.762 C 193.772 37.712,193.654 37.258,193.591 36.752 C 193.528 36.247,193.406 35.833,193.321 35.833 C 193.236 35.833,193.167 35.723,193.167 35.589 C 193.167 35.280,192.650 34.154,192.375 33.863 C 192.260 33.742,192.167 33.580,192.167 33.502 C 192.167 33.118,189.548 30.500,189.164 30.500 C 189.087 30.500,188.925 30.403,188.804 30.285 C 188.521 30.010,187.436 29.500,187.133 29.500 C 187.005 29.500,186.806 29.406,186.692 29.292 C 186.482 29.082,180.938 28.940,179.708 29.112 M207.042 29.112 C 206.744 29.154,206.500 29.258,206.500 29.344 C 206.500 29.430,206.343 29.500,206.150 29.500 C 205.751 29.500,204.691 29.966,204.363 30.285 C 204.242 30.403,204.036 30.500,203.905 30.500 C 203.774 30.500,203.667 30.575,203.667 30.667 C 203.667 30.758,203.564 30.833,203.438 30.833 C 202.798 30.833,200.015 34.287,199.735 35.430 C 199.669 35.698,199.565 35.954,199.503 36.000 C 198.651 36.633,198.653 43.763,199.505 44.917 C 199.573 45.008,199.680 45.327,199.744 45.625 C 199.808 45.923,199.910 46.168,199.972 46.169 C 200.033 46.170,200.227 46.470,200.402 46.835 C 200.577 47.201,200.783 47.500,200.860 47.500 C 200.937 47.500,201.000 47.601,201.000 47.725 C 201.000 47.959,202.935 50.000,203.156 50.000 C 203.225 50.000,203.499 50.191,203.766 50.424 C 204.032 50.658,204.456 50.892,204.708 50.945 C 204.960 50.998,205.167 51.107,205.167 51.188 C 205.167 51.268,205.287 51.333,205.433 51.333 C 205.580 51.333,205.936 51.439,206.225 51.568 C 207.140 51.977,207.688 52.051,210.317 52.118 C 211.974 52.160,212.945 52.121,213.058 52.008 C 213.155 51.912,213.443 51.833,213.700 51.833 C 213.957 51.833,214.167 51.758,214.167 51.667 C 214.167 51.575,214.328 51.500,214.525 51.500 C 215.687 51.500,218.221 49.516,218.421 48.450 C 218.858 46.125,215.880 44.534,213.836 46.000 C 212.889 46.679,212.466 46.859,211.500 46.995 C 210.523 47.132,208.333 46.931,208.177 46.690 C 208.125 46.610,207.915 46.492,207.708 46.428 C 207.502 46.364,207.333 46.241,207.333 46.155 C 207.333 46.070,207.239 46.000,207.123 46.000 C 207.008 46.000,206.726 45.769,206.498 45.487 C 206.270 45.205,205.952 44.819,205.792 44.628 C 205.631 44.438,205.500 44.181,205.500 44.058 C 205.500 43.934,205.431 43.833,205.347 43.833 C 205.262 43.833,205.141 43.590,205.077 43.292 C 205.014 42.994,204.893 42.665,204.809 42.560 C 204.525 42.207,204.621 38.881,204.940 38.029 C 206.383 34.166,210.394 32.752,213.812 34.902 C 215.045 35.678,217.167 35.831,217.167 35.145 C 217.167 35.065,217.274 35.000,217.405 35.000 C 218.261 35.000,218.762 32.417,218.022 31.818 C 217.827 31.659,217.667 31.467,217.667 31.390 C 217.667 31.208,216.571 30.333,216.342 30.333 C 216.246 30.333,216.167 30.276,216.167 30.206 C 216.167 30.035,214.913 29.500,214.513 29.500 C 214.338 29.500,214.163 29.406,214.125 29.292 C 214.055 29.082,208.302 28.936,207.042 29.112 M275.833 29.114 C 275.604 29.161,275.342 29.258,275.250 29.330 C 275.158 29.402,274.850 29.511,274.564 29.572 C 274.279 29.633,273.901 29.811,273.726 29.967 C 273.550 30.122,273.052 30.436,272.619 30.664 C 272.186 30.891,271.789 31.210,271.738 31.372 C 271.588 31.842,271.333 31.713,271.333 31.167 C 271.333 30.892,271.258 30.667,271.167 30.667 C 271.075 30.667,271.000 30.560,271.000 30.429 C 271.000 29.780,269.808 29.167,268.545 29.167 C 267.879 29.167,267.333 29.234,267.333 29.315 C 267.333 29.397,267.147 29.511,266.919 29.568 C 266.664 29.632,266.465 29.830,266.401 30.086 C 266.344 30.314,266.230 30.500,266.149 30.500 C 266.063 30.500,266.000 34.755,266.000 40.500 C 266.000 46.245,266.063 50.500,266.149 50.500 C 266.230 50.500,266.344 50.686,266.401 50.914 C 266.465 51.170,266.664 51.368,266.919 51.432 C 267.147 51.489,267.333 51.603,267.333 51.685 C 267.333 52.465,270.323 51.607,270.925 50.654 L 271.333 50.007 271.333 43.194 L 271.333 36.382 272.087 35.715 C 274.599 33.495,278.455 33.320,279.784 35.366 L 280.250 36.083 280.338 43.083 C 280.419 49.623,280.488 50.667,280.840 50.667 C 280.916 50.667,281.020 50.798,281.072 50.958 C 281.445 52.114,284.144 52.198,285.254 51.088 L 286.000 50.342 286.000 42.088 C 286.000 36.696,285.942 33.833,285.833 33.833 C 285.742 33.833,285.667 33.638,285.667 33.400 C 285.667 32.219,284.186 30.366,282.583 29.541 C 281.756 29.115,277.235 28.829,275.833 29.114 M254.000 29.315 C 254.000 29.397,253.814 29.511,253.586 29.568 C 253.330 29.632,253.132 29.830,253.068 30.086 C 253.011 30.314,252.897 30.500,252.815 30.500 C 252.730 30.500,252.667 34.755,252.667 40.500 C 252.667 46.245,252.730 50.500,252.815 50.500 C 252.897 50.500,253.011 50.686,253.068 50.914 C 253.132 51.170,253.330 51.368,253.586 51.432 C 253.814 51.489,254.000 51.603,254.000 51.685 C 254.000 51.766,254.526 51.833,255.170 51.833 C 256.405 51.833,257.667 51.292,257.667 50.762 C 257.667 50.633,257.760 50.497,257.875 50.458 C 258.039 50.404,258.083 48.274,258.083 40.556 L 258.083 30.724 257.617 30.112 C 257.360 29.775,257.041 29.500,256.908 29.500 C 256.775 29.500,256.667 29.425,256.667 29.333 C 256.667 29.236,256.111 29.167,255.333 29.167 C 254.600 29.167,254.000 29.234,254.000 29.315 M185.276 33.852 C 186.638 34.459,187.976 36.288,188.217 37.875 L 188.312 38.500 182.884 38.500 L 177.455 38.500 177.562 37.717 C 177.621 37.287,177.726 36.893,177.795 36.842 C 177.863 36.792,178.069 36.461,178.252 36.109 C 178.730 35.183,179.958 34.000,180.439 34.000 C 180.549 34.000,180.667 33.917,180.701 33.815 C 180.871 33.303,184.102 33.330,185.276 33.852 M100.271 34.255 C 101.519 34.749,102.071 35.108,103.025 36.049 L 103.667 36.681 103.667 40.590 C 103.667 43.086,103.606 44.500,103.500 44.500 C 103.408 44.500,103.333 44.575,103.333 44.667 C 103.333 45.008,101.333 46.500,100.874 46.500 C 100.775 46.500,100.669 46.572,100.639 46.660 C 100.557 46.896,98.394 47.103,97.282 46.981 C 96.115 46.854,95.359 46.477,94.440 45.567 C 93.478 44.615,92.667 42.865,92.667 41.744 C 92.667 41.424,92.574 41.013,92.460 40.831 C 92.295 40.568,92.295 40.432,92.460 40.169 C 92.574 39.987,92.667 39.593,92.667 39.294 C 92.667 38.233,93.566 36.298,94.464 35.425 C 95.863 34.064,98.464 33.540,100.271 34.255 M362.980 41.130 C 362.925 41.461,362.950 41.617,363.042 41.524 C 363.126 41.440,363.167 41.194,363.133 40.978 C 363.080 40.644,363.057 40.667,362.980 41.130 M127.792 41.792 C 127.830 41.906,128.007 42.000,128.184 42.000 C 128.362 42.000,128.843 42.310,129.254 42.688 L 130.000 43.376 130.000 44.621 C 130.000 46.318,128.750 47.833,127.350 47.833 C 127.157 47.833,127.000 47.908,127.000 48.000 C 127.000 48.101,126.306 48.167,125.250 48.167 C 124.287 48.167,123.500 48.100,123.500 48.018 C 123.500 47.936,123.309 47.822,123.076 47.763 C 120.582 47.137,120.419 43.190,122.833 41.886 C 123.697 41.420,127.643 41.345,127.792 41.792 M295.627 46.285 C 295.834 46.324,296.134 46.323,296.294 46.281 C 296.453 46.239,296.283 46.207,295.917 46.209 C 295.550 46.211,295.420 46.245,295.627 46.285 M294.125 46.448 C 293.965 46.490,293.833 46.594,293.833 46.679 C 293.833 46.764,293.735 46.833,293.615 46.833 C 292.428 46.833,291.354 50.162,292.077 51.599 C 292.577 52.595,294.275 53.947,294.608 53.614 C 294.648 53.574,294.396 53.427,294.049 53.287 C 291.210 52.145,291.388 48.013,294.333 46.680 C 295.006 46.376,294.891 46.248,294.125 46.448 M297.651 46.708 C 298.577 47.222,299.101 47.725,299.502 48.485 C 299.676 48.814,299.822 48.969,299.826 48.829 C 299.839 48.380,298.607 46.833,298.236 46.833 C 298.122 46.833,298.003 46.764,297.972 46.679 C 297.942 46.594,297.692 46.474,297.417 46.413 C 296.992 46.318,297.027 46.362,297.651 46.708 M299.471 51.674 C 299.317 52.037,299.221 52.333,299.258 52.333 C 299.380 52.333,299.854 51.313,299.802 51.163 C 299.773 51.082,299.624 51.312,299.471 51.674 M297.583 53.423 C 297.308 53.549,297.200 53.655,297.343 53.659 C 297.486 53.663,297.749 53.557,297.926 53.422 C 298.322 53.123,298.237 53.123,297.583 53.423 " stroke="none" fill="#044227" fill-rule="evenodd"></path><path id="path1" d="M56.791 2.634 C 56.743 2.812,56.319 3.038,55.649 3.243 C 53.405 3.929,51.397 5.451,50.583 7.083 C 50.400 7.450,50.156 7.810,50.042 7.883 C 49.927 7.957,49.833 8.201,49.833 8.427 C 49.833 8.852,49.541 9.492,49.250 9.706 C 49.158 9.773,49.144 9.829,49.218 9.831 C 49.292 9.832,49.235 10.000,49.093 10.204 C 48.950 10.407,48.833 10.732,48.833 10.925 C 48.833 11.337,48.184 12.000,47.781 12.000 C 47.626 12.000,47.500 12.068,47.500 12.151 C 47.500 12.234,47.650 12.263,47.833 12.215 C 48.017 12.167,48.167 12.165,48.167 12.209 C 48.167 12.485,47.453 13.833,47.308 13.833 C 47.211 13.833,47.169 13.932,47.215 14.052 C 47.261 14.172,47.159 14.566,46.988 14.927 C 46.818 15.288,46.675 15.668,46.672 15.771 C 46.669 15.875,46.554 16.053,46.417 16.167 C 46.279 16.281,46.167 16.518,46.167 16.693 C 46.167 17.188,45.666 17.833,45.282 17.833 C 44.967 17.833,44.961 17.852,45.217 18.042 C 45.532 18.275,45.266 19.037,44.726 19.447 C 44.583 19.556,44.514 19.721,44.572 19.815 C 44.725 20.063,44.229 21.153,43.907 21.277 C 43.756 21.335,43.576 21.290,43.506 21.177 C 43.412 21.024,43.354 21.039,43.278 21.236 C 43.208 21.420,43.273 21.500,43.495 21.500 C 43.926 21.500,44.052 21.750,43.748 22.002 C 43.612 22.115,43.498 22.367,43.494 22.562 C 43.488 22.994,42.954 23.667,42.619 23.667 C 42.484 23.667,42.271 23.798,42.145 23.958 C 41.939 24.221,41.945 24.228,42.201 24.027 C 42.831 23.534,42.990 24.053,42.453 24.852 C 42.244 25.162,41.980 25.732,41.865 26.118 C 41.751 26.503,41.560 26.916,41.440 27.036 C 41.320 27.156,41.215 27.366,41.207 27.502 C 41.178 27.953,40.736 28.980,40.420 29.330 C 40.249 29.519,40.101 29.856,40.091 30.079 C 40.081 30.302,39.916 30.656,39.724 30.867 C 39.532 31.078,39.326 31.524,39.266 31.858 C 39.207 32.193,39.019 32.643,38.850 32.858 C 38.680 33.074,38.535 33.307,38.527 33.377 C 38.462 33.944,38.050 34.885,37.737 35.178 C 37.528 35.375,37.396 35.636,37.443 35.759 C 37.535 35.999,37.014 37.000,36.797 37.000 C 36.725 37.000,36.667 37.148,36.667 37.330 C 36.667 37.734,36.174 39.000,36.016 39.000 C 35.954 39.000,35.809 39.348,35.695 39.774 C 35.582 40.200,35.341 40.755,35.161 41.008 C 34.981 41.261,34.833 41.599,34.833 41.760 C 34.833 41.921,34.646 42.298,34.417 42.598 C 34.187 42.899,34.000 43.258,34.000 43.398 C 34.000 44.006,33.615 44.500,33.140 44.500 C 32.880 44.500,32.667 44.583,32.667 44.684 C 32.667 44.786,32.777 44.827,32.911 44.775 C 33.394 44.590,33.300 45.640,32.775 46.308 C 32.678 46.432,32.582 46.645,32.562 46.781 C 32.542 46.918,32.398 47.170,32.242 47.342 C 32.087 47.514,32.002 47.765,32.054 47.900 C 32.106 48.035,32.064 48.173,31.962 48.207 C 31.860 48.241,31.757 48.415,31.733 48.593 C 31.674 49.028,31.588 49.327,31.359 49.886 C 31.253 50.144,31.167 50.425,31.167 50.511 C 31.167 50.597,31.082 50.667,30.980 50.667 C 30.850 50.667,30.857 50.744,31.000 50.917 C 31.143 51.089,31.150 51.167,31.020 51.167 C 30.918 51.167,30.833 51.298,30.832 51.458 C 30.832 51.619,30.724 51.955,30.594 52.206 C 30.460 52.462,30.423 52.702,30.508 52.755 C 30.599 52.811,30.599 52.963,30.509 53.133 C 30.426 53.289,30.317 53.548,30.267 53.708 C 30.218 53.869,30.025 54.000,29.839 54.000 C 29.652 54.000,29.500 54.075,29.500 54.167 C 29.500 54.258,29.613 54.333,29.750 54.333 C 30.025 54.333,30.101 54.654,29.833 54.688 C 29.742 54.699,29.592 54.718,29.500 54.729 C 29.408 54.741,29.333 54.806,29.333 54.875 C 29.333 54.944,29.352 54.987,29.375 54.972 C 29.623 54.804,30.146 55.394,29.996 55.674 C 29.800 56.041,29.397 56.108,29.291 55.792 C 29.253 55.677,29.184 55.783,29.137 56.026 C 29.083 56.307,29.119 56.445,29.234 56.403 C 29.335 56.367,29.529 56.409,29.667 56.497 C 29.983 56.700,29.677 57.262,29.269 57.227 C 28.902 57.195,28.929 57.617,29.306 57.819 C 29.530 57.938,29.592 58.117,29.538 58.486 C 29.452 59.070,29.048 59.509,28.932 59.144 C 28.892 59.019,28.822 58.804,28.776 58.667 C 28.731 58.529,28.687 58.805,28.680 59.281 C 28.667 60.103,28.689 60.147,29.125 60.197 C 29.579 60.249,29.584 60.264,29.631 61.607 C 29.684 63.085,29.405 63.738,28.899 63.319 C 28.704 63.157,28.669 63.298,28.683 64.188 C 28.694 64.871,28.740 65.106,28.813 64.846 C 28.984 64.235,29.300 64.243,29.468 64.864 C 29.637 65.488,29.587 65.667,29.240 65.667 C 29.108 65.667,29.000 65.817,29.000 66.000 C 29.000 66.224,29.111 66.333,29.339 66.333 C 29.844 66.333,29.956 66.831,29.528 67.178 C 29.076 67.544,29.075 67.613,29.525 67.597 C 30.002 67.579,30.131 67.997,29.684 68.114 C 29.491 68.164,29.333 68.307,29.333 68.431 C 29.333 68.563,29.437 68.616,29.583 68.560 C 29.721 68.508,29.833 68.535,29.833 68.621 C 29.833 69.592,31.689 70.813,32.702 70.509 C 33.322 70.323,37.179 67.880,37.583 67.418 C 37.675 67.313,37.970 67.090,38.240 66.922 C 38.509 66.755,38.909 66.404,39.129 66.142 C 39.493 65.710,40.326 65.440,40.083 65.833 C 39.853 66.207,40.175 65.936,41.471 64.665 C 42.847 63.317,43.003 63.085,42.625 62.958 C 42.281 62.842,42.811 62.333,43.276 62.333 C 43.617 62.333,43.653 62.286,43.512 62.023 C 43.379 61.774,43.461 61.578,43.923 61.038 C 44.240 60.667,44.500 60.324,44.500 60.274 C 44.500 60.225,44.762 59.900,45.083 59.551 C 45.403 59.202,45.665 58.862,45.666 58.794 C 45.669 58.338,46.731 56.998,47.018 57.089 C 47.200 57.147,47.333 57.110,47.333 57.001 C 47.333 56.898,47.264 56.857,47.178 56.910 C 47.093 56.962,46.979 56.934,46.925 56.848 C 46.872 56.761,46.904 56.643,46.997 56.585 C 47.090 56.527,47.167 56.346,47.167 56.183 C 47.167 56.019,47.312 55.754,47.489 55.594 C 47.666 55.433,47.769 55.192,47.717 55.057 C 47.663 54.916,47.776 54.705,47.985 54.559 C 48.216 54.397,48.313 54.198,48.253 54.009 C 48.201 53.846,48.273 53.619,48.413 53.503 C 48.552 53.387,48.667 53.187,48.667 53.058 C 48.667 52.929,48.774 52.782,48.906 52.731 C 49.038 52.680,49.107 52.539,49.060 52.416 C 49.013 52.293,49.125 52.041,49.310 51.857 C 49.532 51.635,49.579 51.497,49.448 51.451 C 49.309 51.403,49.332 51.288,49.527 51.066 C 49.679 50.892,49.936 50.337,50.098 49.833 C 50.261 49.329,50.536 48.814,50.711 48.689 C 50.900 48.554,50.996 48.336,50.948 48.153 C 50.904 47.984,50.973 47.759,51.101 47.652 C 51.229 47.546,51.333 47.354,51.333 47.224 C 51.333 47.095,51.445 46.947,51.582 46.894 C 51.719 46.841,51.791 46.733,51.741 46.653 C 51.692 46.572,51.745 46.337,51.861 46.128 C 51.976 45.920,52.053 45.666,52.033 45.564 C 52.012 45.462,52.102 45.290,52.232 45.182 C 52.362 45.074,52.604 44.533,52.770 43.980 C 52.937 43.422,53.204 42.903,53.369 42.814 C 53.533 42.727,53.667 42.468,53.667 42.238 C 53.667 41.661,54.134 41.004,54.561 40.981 C 54.843 40.965,54.856 40.945,54.625 40.885 C 54.300 40.800,54.264 40.635,54.477 40.206 C 54.760 39.634,55.473 38.071,55.731 37.458 C 55.876 37.115,56.071 36.833,56.164 36.833 C 56.257 36.833,56.333 36.653,56.333 36.434 C 56.333 36.214,56.558 35.606,56.833 35.083 C 57.108 34.561,57.333 34.000,57.333 33.837 C 57.333 33.674,57.445 33.448,57.581 33.335 C 57.717 33.222,57.993 32.681,58.193 32.132 C 58.393 31.583,58.656 31.096,58.778 31.049 C 58.900 31.003,59.000 30.789,59.000 30.575 C 59.000 30.362,59.225 29.753,59.500 29.223 C 59.775 28.693,60.000 28.132,60.000 27.976 C 60.000 27.820,60.188 27.469,60.417 27.197 C 60.646 26.925,60.833 26.585,60.833 26.442 C 60.833 26.069,61.206 25.273,61.455 25.117 C 61.571 25.043,61.667 24.837,61.667 24.658 C 61.667 24.213,62.511 24.218,62.917 24.667 C 63.083 24.850,63.390 25.000,63.599 25.000 C 63.809 25.000,64.027 25.075,64.083 25.167 C 64.140 25.258,64.320 25.333,64.483 25.333 C 65.708 25.333,66.163 26.484,65.410 27.677 C 65.185 28.034,65.000 28.482,65.000 28.671 C 65.000 28.860,64.831 29.184,64.624 29.391 C 64.418 29.597,64.270 29.879,64.297 30.017 C 64.323 30.154,64.080 30.784,63.756 31.417 C 63.432 32.050,63.167 32.667,63.167 32.789 C 63.167 32.911,63.055 33.053,62.918 33.106 C 62.781 33.159,62.705 33.261,62.750 33.333 C 62.851 33.497,62.080 35.264,61.842 35.411 C 61.746 35.471,61.667 35.703,61.667 35.928 C 61.667 36.153,61.517 36.465,61.333 36.622 C 61.150 36.779,61.000 37.067,61.000 37.261 C 61.000 37.652,60.568 38.605,60.323 38.757 C 60.237 38.810,60.167 39.019,60.167 39.223 C 60.167 39.711,59.689 40.378,59.415 40.272 C 59.203 40.191,58.851 40.499,58.584 41.000 C 58.511 41.137,58.621 41.075,58.828 40.861 C 59.298 40.377,59.665 40.606,59.380 41.205 C 58.771 42.489,58.598 42.981,58.575 43.500 C 58.560 43.821,58.496 44.233,58.432 44.417 C 57.989 45.690,61.293 47.413,62.572 46.576 C 63.032 46.274,63.596 46.363,63.405 46.707 C 63.342 46.822,63.475 46.729,63.702 46.500 C 64.034 46.164,64.079 46.025,63.932 45.781 C 63.784 45.536,63.828 45.411,64.169 45.114 C 64.410 44.905,64.563 44.618,64.528 44.441 C 64.496 44.270,64.551 44.049,64.651 43.949 C 64.751 43.849,64.833 43.632,64.833 43.467 C 64.833 43.302,64.898 43.167,64.976 43.167 C 65.055 43.167,65.273 42.773,65.460 42.292 C 66.600 39.364,66.854 38.919,67.292 39.080 C 67.562 39.179,67.556 39.080,67.273 38.797 C 67.082 38.606,67.146 38.362,67.676 37.244 C 68.022 36.514,68.469 35.542,68.670 35.083 C 69.474 33.244,69.579 33.083,69.962 33.097 C 70.166 33.104,70.333 33.012,70.333 32.893 C 70.333 32.770,70.226 32.718,70.083 32.773 C 69.791 32.885,69.749 32.497,70.000 31.998 C 70.918 30.174,71.224 29.504,71.674 28.335 C 71.868 27.832,72.114 27.361,72.222 27.290 C 72.361 27.198,72.333 27.111,72.125 26.989 C 71.768 26.778,71.744 26.357,72.083 26.227 C 72.392 26.109,72.413 25.566,72.114 25.452 C 71.994 25.405,71.773 24.988,71.623 24.525 C 71.473 24.062,71.004 23.156,70.580 22.512 C 70.156 21.868,69.846 21.280,69.893 21.205 C 69.939 21.130,69.742 21.051,69.454 21.029 C 69.167 21.007,68.810 20.879,68.661 20.745 C 68.512 20.610,68.312 20.500,68.216 20.500 C 68.119 20.500,67.947 20.387,67.833 20.250 C 67.719 20.113,67.478 20.000,67.298 20.000 C 67.117 20.000,66.779 19.850,66.545 19.667 C 66.312 19.483,66.018 19.333,65.892 19.333 C 65.766 19.333,65.532 19.266,65.373 19.185 C 65.214 19.103,64.870 18.951,64.610 18.848 L 64.137 18.660 64.485 18.071 C 64.677 17.746,64.833 17.368,64.833 17.229 C 64.833 17.091,65.021 16.732,65.250 16.431 C 65.479 16.131,65.667 15.765,65.667 15.619 C 65.667 15.473,65.742 15.307,65.833 15.250 C 65.925 15.193,66.000 15.004,66.000 14.829 C 66.000 14.654,66.143 14.227,66.318 13.880 C 66.574 13.373,66.629 12.947,66.599 11.699 C 66.568 10.441,66.611 10.120,66.822 9.996 C 66.979 9.905,67.002 9.841,66.879 9.838 C 66.630 9.832,65.947 8.387,66.087 8.161 C 66.141 8.073,66.116 8.000,66.029 8.000 C 65.943 8.000,65.827 7.869,65.771 7.708 C 65.555 7.083,63.846 4.857,63.571 4.843 C 63.472 4.838,63.221 4.652,63.013 4.431 C 62.805 4.209,62.440 3.979,62.203 3.920 C 61.965 3.860,61.560 3.661,61.303 3.478 C 61.046 3.295,60.774 3.184,60.698 3.230 C 60.503 3.351,59.274 2.904,59.201 2.686 C 59.162 2.568,59.052 2.591,58.891 2.751 C 58.540 3.103,57.629 3.062,57.215 2.676 C 56.898 2.380,56.861 2.377,56.791 2.634 M306.671 19.657 C 306.445 19.831,306.201 19.938,306.130 19.894 C 306.058 19.850,306.000 19.907,306.000 20.021 C 306.000 20.135,305.831 20.408,305.625 20.628 L 305.250 21.027 305.203 36.138 C 305.177 44.450,305.196 51.416,305.246 51.619 C 305.717 53.539,308.861 54.167,310.542 52.677 C 310.794 52.454,311.000 52.173,311.000 52.052 C 311.000 51.932,311.075 51.833,311.167 51.833 C 311.258 51.833,311.333 51.597,311.333 51.308 L 311.333 50.782 311.925 51.391 C 312.250 51.726,312.625 52.000,312.758 52.000 C 312.891 52.000,313.000 52.079,313.000 52.176 C 313.000 52.273,313.431 52.538,313.958 52.765 C 314.485 52.992,315.097 53.269,315.317 53.381 C 316.348 53.902,322.833 53.557,322.833 52.981 C 322.833 52.923,323.137 52.827,323.508 52.768 C 323.885 52.708,324.138 52.588,324.081 52.497 C 324.026 52.407,324.060 52.333,324.157 52.333 C 324.254 52.333,324.369 52.331,324.412 52.328 C 324.455 52.325,324.734 52.100,325.032 51.828 C 325.330 51.556,325.683 51.333,325.815 51.333 C 325.947 51.333,326.009 51.287,325.951 51.229 C 325.894 51.172,326.088 50.878,326.382 50.576 C 327.352 49.579,328.333 47.948,328.333 47.333 C 328.333 47.139,328.408 47.027,328.500 47.083 C 328.595 47.142,328.667 47.002,328.667 46.760 C 328.667 46.525,328.737 46.333,328.824 46.333 C 328.910 46.333,328.952 46.183,328.917 46.000 C 328.881 45.817,328.923 45.667,329.010 45.667 C 329.096 45.667,329.167 45.382,329.167 45.033 C 329.167 44.685,329.245 44.322,329.341 44.226 C 329.562 44.005,329.454 38.222,329.208 37.167 C 328.963 36.114,328.706 35.334,328.530 35.109 C 328.447 35.003,328.329 34.692,328.267 34.417 C 328.129 33.802,327.637 32.833,327.462 32.833 C 327.391 32.833,327.333 32.718,327.333 32.578 C 327.333 32.438,327.221 32.280,327.083 32.227 C 326.946 32.174,326.833 32.066,326.833 31.986 C 326.833 31.800,325.010 30.000,324.823 30.000 C 324.745 30.000,324.510 29.831,324.299 29.625 C 324.088 29.419,323.766 29.224,323.583 29.193 C 323.400 29.162,323.132 29.031,322.987 28.902 C 322.842 28.772,322.573 28.667,322.390 28.667 C 322.206 28.667,322.004 28.615,321.940 28.551 C 321.420 28.031,316.086 28.163,314.797 28.728 C 314.456 28.878,314.104 29.000,314.014 29.000 C 313.924 29.000,313.790 29.099,313.717 29.221 C 313.643 29.342,313.471 29.495,313.333 29.561 C 312.685 29.869,312.345 30.123,312.445 30.223 C 312.506 30.284,312.397 30.333,312.204 30.333 C 312.011 30.333,311.799 30.420,311.734 30.526 C 311.654 30.656,311.691 30.673,311.849 30.580 C 311.978 30.505,311.933 30.614,311.750 30.822 L 311.417 31.202 311.373 26.037 L 311.329 20.872 310.559 20.103 L 309.789 19.333 308.436 19.337 C 307.367 19.340,306.997 19.407,306.671 19.657 M335.333 19.500 C 335.333 19.592,335.235 19.667,335.115 19.667 C 334.865 19.667,334.129 20.411,333.860 20.936 C 333.734 21.181,333.679 25.875,333.679 36.428 L 333.679 51.568 334.122 52.159 C 334.366 52.484,334.659 52.808,334.774 52.879 C 334.889 52.949,335.083 53.107,335.204 53.228 C 335.481 53.505,338.167 53.610,338.167 53.344 C 338.167 53.246,338.260 53.166,338.375 53.165 C 338.490 53.164,338.865 52.897,339.208 52.571 L 339.833 51.979 339.833 36.427 L 339.833 20.875 339.292 20.293 C 338.994 19.974,338.586 19.627,338.386 19.523 C 337.933 19.287,335.333 19.268,335.333 19.500 M353.995 28.227 C 353.948 28.274,353.710 28.349,353.466 28.394 C 353.222 28.438,352.773 28.583,352.469 28.717 C 352.165 28.850,351.559 29.088,351.122 29.245 C 350.685 29.402,350.224 29.633,350.098 29.759 C 349.972 29.885,349.775 30.010,349.661 30.036 C 349.547 30.062,349.249 30.271,348.999 30.500 C 348.165 31.265,347.862 31.474,347.750 31.361 C 347.689 31.300,347.664 31.363,347.694 31.500 C 347.728 31.652,347.652 31.728,347.500 31.694 C 347.363 31.664,347.305 31.694,347.372 31.761 C 347.440 31.828,347.290 32.074,347.039 32.307 C 346.788 32.541,346.602 32.792,346.625 32.866 C 346.648 32.940,346.601 33.000,346.520 33.000 C 346.440 33.000,346.281 33.225,346.167 33.500 C 346.053 33.775,345.897 34.000,345.821 34.000 C 345.744 34.000,345.633 34.262,345.572 34.583 C 345.512 34.904,345.392 35.167,345.305 35.167 C 345.218 35.167,345.190 35.236,345.243 35.322 C 345.296 35.407,345.263 35.524,345.169 35.582 C 345.076 35.639,345.000 35.836,345.000 36.020 C 345.000 36.203,344.941 36.316,344.869 36.272 C 344.796 36.227,344.722 36.379,344.703 36.610 C 344.684 36.841,344.614 37.117,344.549 37.223 C 344.149 37.870,344.146 44.202,344.546 44.602 C 344.612 44.668,344.667 44.930,344.667 45.185 C 344.667 45.439,344.733 45.688,344.814 45.738 C 344.896 45.789,345.009 46.080,345.067 46.386 C 345.124 46.691,345.308 47.089,345.475 47.268 C 345.642 47.448,345.831 47.801,345.894 48.054 C 345.958 48.307,346.083 48.469,346.172 48.414 C 346.261 48.359,346.333 48.431,346.333 48.573 C 346.333 48.716,346.483 48.983,346.667 49.167 C 346.850 49.350,346.951 49.500,346.891 49.500 C 346.831 49.500,346.955 49.650,347.167 49.833 C 347.378 50.017,347.602 50.167,347.664 50.167 C 347.726 50.167,347.877 50.354,348.000 50.583 C 348.123 50.813,348.288 51.000,348.369 51.000 C 348.449 51.000,348.605 51.074,348.715 51.164 C 349.504 51.807,349.933 52.131,350.038 52.161 C 350.104 52.180,350.310 52.235,350.494 52.284 C 350.679 52.332,350.796 52.425,350.755 52.491 C 350.715 52.557,350.772 52.622,350.882 52.636 C 351.610 52.727,352.167 52.893,352.167 53.019 C 352.167 53.100,352.317 53.167,352.500 53.167 C 352.683 53.167,352.833 53.229,352.833 53.306 C 352.833 53.615,358.814 53.779,359.957 53.502 C 360.393 53.396,360.956 53.269,361.208 53.219 C 361.460 53.169,361.667 53.062,361.667 52.981 C 361.667 52.900,361.845 52.833,362.063 52.833 C 362.281 52.833,362.553 52.721,362.667 52.583 C 362.781 52.446,363.007 52.333,363.169 52.333 C 363.332 52.333,363.689 52.127,363.964 51.875 C 364.570 51.319,365.135 50.917,365.310 50.917 C 365.382 50.917,365.572 50.785,365.732 50.625 C 365.893 50.465,365.984 50.333,365.936 50.333 C 365.888 50.333,366.014 50.161,366.216 49.949 C 366.839 49.298,367.266 48.748,367.380 48.451 C 367.440 48.295,367.567 48.167,367.661 48.167 C 367.756 48.167,367.833 48.060,367.833 47.930 C 367.833 47.645,368.350 46.632,368.583 46.461 C 368.675 46.394,368.699 46.337,368.638 46.336 C 368.576 46.334,368.670 45.923,368.846 45.421 C 369.022 44.919,369.167 44.319,369.167 44.087 C 369.167 43.856,369.238 43.667,369.325 43.667 C 369.521 43.667,369.539 38.211,369.343 38.090 C 369.202 38.002,368.918 36.862,368.976 36.613 C 368.994 36.538,368.868 36.200,368.698 35.863 C 368.527 35.526,368.207 34.875,367.985 34.417 C 367.621 33.661,367.298 33.197,366.324 32.028 C 366.146 31.813,366.000 31.570,366.000 31.486 C 366.000 31.402,365.922 31.333,365.826 31.333 C 365.638 31.333,365.302 31.085,364.868 30.625 C 364.716 30.465,364.492 30.333,364.370 30.333 C 364.247 30.333,364.190 30.264,364.242 30.180 C 364.294 30.096,364.111 29.978,363.835 29.917 C 363.559 29.856,363.333 29.738,363.333 29.653 C 363.333 29.569,363.179 29.500,362.990 29.500 C 362.801 29.500,362.688 29.433,362.739 29.352 C 362.789 29.270,362.569 29.154,362.249 29.094 C 361.929 29.034,361.667 28.913,361.667 28.826 C 361.667 28.738,361.454 28.667,361.194 28.667 C 360.935 28.667,360.670 28.614,360.606 28.551 C 360.543 28.487,360.361 28.402,360.204 28.361 C 359.772 28.250,354.095 28.128,353.995 28.227 M380.495 28.227 C 380.448 28.274,380.225 28.346,379.997 28.388 C 379.249 28.527,378.833 28.703,378.833 28.881 C 378.833 28.977,378.791 29.013,378.738 28.960 C 378.686 28.908,378.448 28.967,378.209 29.091 C 377.969 29.215,377.712 29.278,377.637 29.232 C 377.562 29.185,377.500 29.228,377.500 29.326 C 377.500 29.425,377.241 29.629,376.924 29.780 C 376.607 29.931,376.386 30.118,376.434 30.194 C 376.481 30.271,376.451 30.333,376.368 30.333 C 376.202 30.333,375.167 31.278,375.167 31.430 C 375.167 31.631,374.699 31.978,374.576 31.867 C 374.505 31.803,374.497 31.838,374.558 31.945 C 374.620 32.052,374.557 32.253,374.418 32.391 C 374.280 32.530,374.167 32.714,374.167 32.801 C 374.167 32.888,374.046 33.059,373.899 33.181 C 373.598 33.431,373.314 34.058,373.238 34.637 C 373.210 34.851,373.093 35.138,372.978 35.276 C 372.768 35.530,372.747 35.607,372.601 36.667 C 372.557 36.987,372.508 37.287,372.491 37.333 C 372.475 37.379,372.475 37.548,372.491 37.708 C 372.508 37.869,372.452 38.000,372.368 38.000 C 372.162 38.000,372.204 43.844,372.413 44.167 C 372.574 44.417,372.643 44.662,372.705 45.208 C 372.723 45.369,372.788 45.500,372.850 45.500 C 372.912 45.500,373.013 45.781,373.075 46.125 C 373.238 47.036,373.543 47.833,373.728 47.833 C 373.816 47.833,373.842 47.880,373.786 47.937 C 373.729 47.993,373.792 48.149,373.926 48.283 C 374.060 48.417,374.120 48.607,374.059 48.706 C 373.997 48.806,374.026 48.837,374.123 48.777 C 374.294 48.671,374.583 49.114,374.522 49.387 C 374.506 49.463,374.569 49.477,374.663 49.419 C 374.756 49.361,374.834 49.374,374.834 49.448 C 374.834 49.523,375.059 49.846,375.333 50.167 C 375.608 50.487,375.834 50.788,375.836 50.833 C 375.838 50.879,376.213 51.138,376.670 51.409 C 377.126 51.680,377.500 51.956,377.500 52.021 C 377.500 52.087,377.725 52.190,378.000 52.250 C 378.275 52.310,378.500 52.416,378.500 52.485 C 378.500 52.555,378.594 52.620,378.708 52.630 C 379.514 52.703,380.333 52.901,380.333 53.022 C 380.333 53.216,385.288 53.209,385.408 53.015 C 385.459 52.931,385.801 52.812,386.168 52.750 C 386.534 52.688,386.833 52.575,386.833 52.499 C 386.833 52.422,387.058 52.310,387.333 52.250 C 387.608 52.190,387.833 52.071,387.833 51.987 C 387.833 51.902,387.946 51.833,388.083 51.833 C 388.221 51.833,388.334 51.777,388.334 51.708 C 388.335 51.640,388.615 51.396,388.957 51.167 C 389.298 50.938,389.745 50.563,389.950 50.333 L 390.323 49.917 390.328 50.875 C 390.331 51.406,390.259 51.833,390.167 51.833 C 390.075 51.833,390.000 52.237,390.000 52.731 C 390.000 53.225,389.891 53.838,389.759 54.094 C 389.626 54.350,389.550 54.613,389.590 54.677 C 389.630 54.742,389.551 54.888,389.415 55.002 C 389.278 55.115,389.167 55.313,389.167 55.442 C 389.167 55.571,389.054 55.720,388.917 55.773 C 388.779 55.826,388.667 55.964,388.667 56.080 C 388.667 56.197,388.437 56.403,388.155 56.539 C 387.874 56.675,387.668 56.854,387.697 56.935 C 387.726 57.017,387.581 57.107,387.375 57.137 C 387.169 57.166,387.000 57.253,387.000 57.330 C 387.000 57.408,386.681 57.523,386.292 57.588 C 385.902 57.652,385.490 57.780,385.375 57.873 C 385.159 58.047,382.601 57.959,381.833 57.751 C 381.503 57.661,381.468 57.676,381.667 57.824 C 381.862 57.969,381.807 57.986,381.417 57.900 C 381.142 57.840,380.845 57.725,380.758 57.645 C 380.671 57.565,380.345 57.500,380.034 57.500 C 379.723 57.500,379.250 57.345,378.984 57.155 C 378.718 56.966,378.498 56.872,378.495 56.947 C 378.492 57.022,378.376 56.933,378.238 56.750 C 378.099 56.567,377.933 56.410,377.868 56.402 C 377.803 56.394,377.619 56.338,377.458 56.277 C 376.745 56.007,376.556 55.959,376.125 55.938 C 375.873 55.926,375.665 55.992,375.664 56.083 C 375.663 56.175,375.597 56.148,375.518 56.024 C 375.418 55.866,375.340 55.854,375.261 55.982 C 375.198 56.084,375.035 56.167,374.899 56.167 C 374.597 56.167,373.833 56.961,373.833 57.274 C 373.833 57.398,373.756 57.500,373.662 57.500 C 373.559 57.500,373.502 57.905,373.520 58.500 C 373.536 59.050,373.614 59.500,373.692 59.500 C 373.770 59.500,373.833 59.586,373.833 59.690 C 373.833 59.859,374.286 60.326,375.063 60.958 C 375.204 61.073,375.397 61.167,375.493 61.167 C 375.589 61.167,375.667 61.241,375.667 61.331 C 375.667 61.422,375.967 61.544,376.333 61.603 C 376.700 61.661,377.000 61.765,377.000 61.833 C 377.000 61.902,377.303 62.006,377.674 62.065 C 378.045 62.124,378.476 62.238,378.632 62.319 C 379.547 62.787,385.748 63.069,386.483 62.676 C 386.645 62.589,387.123 62.500,387.546 62.478 C 387.969 62.457,388.283 62.387,388.244 62.324 C 388.205 62.261,388.483 62.168,388.861 62.117 C 389.239 62.067,389.593 61.956,389.649 61.872 C 389.705 61.788,390.006 61.669,390.319 61.608 C 390.633 61.547,391.134 61.310,391.433 61.082 C 391.733 60.854,392.030 60.667,392.094 60.667 C 392.158 60.667,392.357 60.498,392.536 60.292 C 392.715 60.085,392.930 59.917,393.014 59.917 C 393.098 59.917,393.167 59.860,393.167 59.792 C 393.167 59.723,393.448 59.372,393.792 59.012 C 394.572 58.194,394.760 57.960,394.803 57.750 C 394.914 57.209,395.046 57.008,395.220 57.108 C 395.328 57.169,395.363 57.161,395.298 57.089 C 395.233 57.017,395.295 56.735,395.436 56.462 C 395.786 55.785,396.169 54.479,395.984 54.593 C 395.901 54.645,395.833 54.611,395.833 54.520 C 395.833 54.428,395.910 54.306,396.003 54.248 C 396.096 54.191,396.129 54.074,396.076 53.988 C 396.023 53.903,396.031 53.751,396.093 53.651 C 396.249 53.399,396.280 31.000,396.125 31.000 C 396.056 31.000,396.000 30.826,396.000 30.612 C 396.000 30.399,395.815 30.051,395.588 29.838 C 395.362 29.626,395.217 29.387,395.266 29.307 C 395.315 29.228,395.124 29.116,394.841 29.060 C 394.558 29.003,394.286 28.892,394.237 28.812 C 394.106 28.600,392.000 28.629,392.000 28.843 C 392.000 28.940,391.943 28.984,391.873 28.941 C 391.803 28.898,391.559 28.966,391.331 29.092 C 391.103 29.218,390.976 29.324,391.048 29.327 C 391.121 29.331,391.083 29.438,390.965 29.566 C 390.847 29.694,390.694 29.764,390.625 29.723 C 390.556 29.681,390.491 29.726,390.479 29.823 C 390.468 29.921,390.440 30.075,390.417 30.167 C 390.394 30.258,390.366 30.601,390.354 30.928 L 390.333 31.523 389.875 31.185 C 389.623 30.999,389.079 30.545,388.667 30.176 C 388.254 29.807,387.810 29.504,387.681 29.503 C 387.551 29.501,387.493 29.451,387.553 29.391 C 387.669 29.276,386.146 28.486,385.583 28.370 C 385.050 28.260,380.587 28.135,380.495 28.227 M12.042 33.625 C 15.685 33.650,21.648 33.650,25.292 33.625 C 28.935 33.600,25.954 33.579,18.667 33.579 C 11.379 33.579,8.398 33.600,12.042 33.625 M319.292 34.054 C 319.590 34.212,319.833 34.303,319.833 34.256 C 319.833 34.209,319.993 34.300,320.189 34.460 C 321.604 35.614,322.579 36.979,322.777 38.083 C 322.810 38.267,322.887 38.529,322.948 38.667 C 323.259 39.370,323.267 43.120,322.958 43.430 C 322.890 43.499,322.833 43.731,322.833 43.944 C 322.833 44.158,322.758 44.333,322.667 44.333 C 322.575 44.333,322.516 44.390,322.536 44.458 C 322.606 44.698,322.183 45.667,322.009 45.667 C 321.912 45.667,321.833 45.773,321.833 45.904 C 321.833 46.368,320.052 47.818,319.625 47.701 C 319.556 47.682,319.500 47.746,319.500 47.843 C 319.500 47.940,319.431 47.977,319.348 47.925 C 319.264 47.874,319.167 47.916,319.132 48.020 C 319.032 48.322,315.000 48.282,315.000 47.979 C 315.000 47.915,314.698 47.812,314.329 47.749 C 313.907 47.678,313.442 47.433,313.079 47.090 C 312.760 46.790,312.500 46.575,312.500 46.612 C 312.500 46.747,311.893 46.073,311.617 45.631 C 311.370 45.236,311.333 44.643,311.333 40.999 L 311.333 36.819 311.875 36.082 C 312.173 35.676,312.696 35.202,313.037 35.029 C 313.378 34.855,313.610 34.665,313.551 34.607 C 313.492 34.548,313.607 34.500,313.806 34.500 C 314.004 34.500,314.167 34.412,314.167 34.306 C 314.167 34.199,314.214 34.158,314.271 34.216 C 314.329 34.273,314.610 34.192,314.896 34.035 C 315.893 33.489,318.247 33.499,319.292 34.054 M386.250 33.831 C 386.342 33.899,386.623 34.003,386.875 34.064 C 387.127 34.124,387.333 34.247,387.333 34.337 C 387.333 34.426,387.483 34.500,387.667 34.500 C 387.850 34.500,388.000 34.575,388.000 34.667 C 388.000 34.758,388.115 34.833,388.255 34.833 C 388.396 34.833,388.554 34.946,388.606 35.083 C 388.659 35.221,388.778 35.333,388.870 35.333 C 388.963 35.333,389.326 35.652,389.679 36.042 L 390.320 36.750 390.326 40.708 C 390.331 43.241,390.273 44.667,390.167 44.667 C 390.075 44.667,390.019 44.729,390.042 44.806 C 390.088 44.959,388.901 46.333,388.722 46.333 C 388.660 46.333,388.460 46.465,388.276 46.625 C 388.029 46.841,387.975 46.852,388.067 46.667 C 388.136 46.529,388.038 46.591,387.851 46.804 C 387.663 47.018,387.432 47.144,387.338 47.086 C 387.244 47.028,387.167 47.060,387.167 47.157 C 387.167 47.254,386.979 47.333,386.750 47.333 C 386.521 47.333,386.333 47.396,386.333 47.472 C 386.333 47.549,386.240 47.616,386.125 47.622 C 386.010 47.628,385.504 47.671,385.000 47.719 C 383.893 47.822,382.472 47.680,382.596 47.479 C 382.646 47.399,382.504 47.333,382.280 47.333 C 382.057 47.333,381.781 47.222,381.668 47.085 C 381.555 46.949,381.402 46.874,381.328 46.920 C 381.160 47.024,380.270 46.143,379.885 45.492 C 379.726 45.221,379.536 45.000,379.464 45.000 C 379.392 45.000,379.333 44.846,379.333 44.657 C 379.333 44.468,379.267 44.355,379.185 44.405 C 379.104 44.455,378.997 44.291,378.949 44.040 C 378.803 43.290,378.747 43.093,378.623 42.895 C 378.558 42.792,378.475 42.319,378.438 41.844 C 378.401 41.370,378.325 40.936,378.269 40.880 C 378.124 40.735,378.142 40.167,378.292 40.166 C 378.360 40.166,378.439 39.848,378.465 39.460 C 378.492 39.071,378.623 38.431,378.757 38.038 C 378.891 37.644,379.000 37.199,379.000 37.050 C 379.000 36.900,379.050 36.828,379.111 36.889 C 379.173 36.951,379.404 36.682,379.625 36.292 C 379.846 35.902,380.135 35.522,380.267 35.448 C 380.399 35.374,380.467 35.248,380.418 35.168 C 380.369 35.089,380.498 34.970,380.705 34.904 C 380.913 34.839,381.170 34.664,381.278 34.517 C 381.385 34.370,381.535 34.247,381.612 34.244 C 381.688 34.240,382.012 34.112,382.333 33.959 C 383.168 33.561,385.770 33.476,386.250 33.831 M358.500 33.815 C 358.500 33.896,358.762 34.012,359.083 34.072 C 359.404 34.133,359.667 34.253,359.667 34.341 C 359.667 34.428,359.779 34.500,359.917 34.500 C 360.054 34.500,360.167 34.556,360.168 34.625 C 360.168 34.694,360.375 34.868,360.626 35.011 C 361.088 35.275,361.935 36.373,362.031 36.833 C 362.060 36.971,362.121 37.121,362.167 37.167 C 362.374 37.374,362.721 38.485,362.792 39.167 C 362.834 39.579,362.955 40.025,363.060 40.157 C 363.212 40.350,363.200 40.370,363.000 40.258 C 362.797 40.144,362.789 40.160,362.958 40.342 C 363.182 40.583,363.250 41.667,363.042 41.667 C 362.973 41.667,362.897 41.962,362.872 42.322 C 362.847 42.681,362.719 43.281,362.588 43.655 C 362.456 44.028,362.391 44.333,362.444 44.333 C 362.497 44.333,362.441 44.453,362.319 44.600 C 362.198 44.747,362.080 44.989,362.058 45.139 C 362.036 45.288,361.939 45.437,361.842 45.469 C 361.746 45.501,361.667 45.590,361.667 45.665 C 361.667 45.915,360.184 47.333,359.923 47.333 C 359.782 47.333,359.667 47.405,359.667 47.492 C 359.667 48.073,355.450 48.565,354.811 48.059 C 354.686 47.960,354.377 47.830,354.125 47.770 C 353.873 47.710,353.667 47.587,353.667 47.497 C 353.667 47.407,353.570 47.333,353.451 47.333 C 353.131 47.333,351.833 46.069,351.833 45.758 C 351.833 45.610,351.721 45.446,351.583 45.394 C 351.446 45.341,351.333 45.193,351.333 45.066 C 351.333 44.938,351.267 44.833,351.185 44.833 C 351.104 44.833,350.985 44.552,350.920 44.208 C 350.856 43.865,350.724 43.488,350.628 43.371 C 350.395 43.090,350.398 39.263,350.630 38.785 C 350.729 38.582,350.852 38.154,350.905 37.833 C 350.957 37.512,351.188 37.032,351.417 36.766 C 351.646 36.499,351.833 36.212,351.833 36.126 C 351.833 35.907,352.871 34.833,353.083 34.833 C 353.180 34.833,353.369 34.681,353.503 34.496 C 353.639 34.307,354.024 34.113,354.373 34.058 C 354.718 34.002,355.000 33.892,355.000 33.812 C 355.000 33.732,355.787 33.667,356.750 33.667 C 357.712 33.667,358.500 33.733,358.500 33.815 M61.116 35.419 C 60.963 35.738,60.873 36.000,60.915 36.000 C 61.029 36.000,61.535 34.980,61.459 34.903 C 61.423 34.867,61.268 35.099,61.116 35.419 M5.034 40.000 C 5.057 40.340,4.941 40.470,4.542 40.551 C 3.036 40.855,1.470 43.903,2.361 44.795 C 2.509 44.943,2.490 45.014,2.278 45.096 C 2.125 45.154,2.006 45.326,2.013 45.476 C 2.021 45.649,2.057 45.673,2.110 45.542 C 2.236 45.231,2.559 45.290,2.793 45.665 C 2.907 45.847,3.299 46.184,3.664 46.415 L 4.327 46.833 15.413 46.833 C 25.350 46.833,27.217 46.769,26.292 46.458 C 26.019 46.366,26.909 44.728,27.191 44.801 C 27.345 44.841,27.345 44.798,27.191 44.613 C 26.828 44.176,27.669 42.891,28.061 43.284 C 28.239 43.461,28.178 43.181,27.966 42.840 C 27.801 42.576,27.819 42.459,28.065 42.186 C 28.231 42.004,28.313 41.768,28.247 41.662 C 28.179 41.551,28.398 41.194,28.765 40.818 C 29.115 40.460,29.306 40.167,29.191 40.167 C 29.075 40.167,29.015 40.110,29.058 40.042 C 29.100 39.973,23.711 39.917,17.081 39.917 C 10.452 39.917,5.030 39.954,5.034 40.000 " stroke="none" fill="#04cc83" fill-rule="evenodd"></path><path id="path2" d="M57.628 2.544 C 58.125 2.664,58.451 2.661,58.711 2.536 C 59.017 2.388,58.890 2.357,58.000 2.365 L 56.917 2.373 57.628 2.544 M59.500 2.667 C 59.500 2.758,59.650 2.833,59.833 2.833 C 60.017 2.833,60.167 2.758,60.167 2.667 C 60.167 2.575,60.017 2.500,59.833 2.500 C 59.650 2.500,59.500 2.575,59.500 2.667 M54.417 3.111 C 54.124 3.346,54.120 3.365,54.389 3.272 C 54.557 3.214,54.913 3.167,55.180 3.167 C 55.448 3.167,55.667 3.092,55.667 3.000 C 55.667 2.737,54.785 2.816,54.417 3.111 M61.589 3.158 C 61.535 3.245,61.643 3.398,61.829 3.498 C 62.194 3.693,62.220 3.667,62.066 3.264 C 61.952 2.968,61.736 2.920,61.589 3.158 M64.822 5.646 C 65.047 6.066,65.282 6.218,65.404 6.021 C 65.455 5.938,65.305 5.744,65.070 5.590 C 64.654 5.318,64.647 5.319,64.822 5.646 M66.500 8.750 C 66.500 8.887,66.575 9.000,66.667 9.000 C 66.758 9.000,66.833 8.887,66.833 8.750 C 66.833 8.612,66.758 8.500,66.667 8.500 C 66.575 8.500,66.500 8.612,66.500 8.750 M47.891 11.091 C 47.747 11.465,47.944 11.579,48.234 11.290 C 48.372 11.152,48.438 10.993,48.381 10.937 C 48.202 10.758,47.993 10.824,47.891 11.091 M66.538 14.282 C 66.395 14.536,66.386 14.680,66.511 14.757 C 66.766 14.914,66.869 14.754,66.801 14.306 L 66.743 13.917 66.538 14.282 M65.442 16.767 C 65.124 17.203,65.123 17.402,65.441 17.199 C 65.605 17.094,65.928 16.326,65.803 16.339 C 65.774 16.341,65.611 16.534,65.442 16.767 M45.241 16.819 C 45.293 16.903,45.247 17.001,45.138 17.037 C 45.026 17.075,44.997 17.193,45.070 17.312 C 45.170 17.474,45.271 17.457,45.513 17.239 C 45.851 16.932,45.797 16.667,45.397 16.667 C 45.259 16.667,45.189 16.735,45.241 16.819 M65.333 18.649 C 65.333 18.731,65.452 18.843,65.597 18.899 C 66.005 19.055,66.045 19.021,65.774 18.750 C 65.490 18.467,65.333 18.431,65.333 18.649 M66.500 19.095 C 66.500 19.259,66.967 19.667,67.155 19.667 C 67.420 19.667,67.372 19.482,67.042 19.232 C 66.732 18.997,66.500 18.938,66.500 19.095 M68.998 20.581 C 69.207 20.832,69.500 20.779,69.500 20.490 C 69.500 20.404,69.341 20.333,69.146 20.333 C 68.852 20.333,68.827 20.375,68.998 20.581 M70.198 21.456 C 70.229 21.616,70.389 21.772,70.554 21.804 C 70.818 21.855,70.828 21.821,70.637 21.514 C 70.373 21.092,70.121 21.059,70.198 21.456 M70.836 22.113 C 70.841 22.368,71.148 22.741,71.261 22.628 C 71.323 22.566,71.252 22.394,71.103 22.246 C 70.955 22.098,70.834 22.038,70.836 22.113 M71.833 24.167 C 71.833 24.350,71.908 24.500,72.000 24.500 C 72.092 24.500,72.167 24.662,72.167 24.861 C 72.167 25.060,72.209 25.180,72.261 25.128 C 72.402 24.987,72.153 23.833,71.981 23.833 C 71.900 23.833,71.833 23.983,71.833 24.167 M41.833 24.411 C 41.833 24.560,41.931 24.619,42.082 24.561 C 42.219 24.508,42.290 24.398,42.239 24.316 C 42.094 24.081,41.833 24.142,41.833 24.411 M62.307 24.934 C 62.517 25.081,62.737 25.151,62.798 25.091 C 62.931 24.958,62.509 24.673,62.171 24.669 C 62.013 24.668,62.061 24.762,62.307 24.934 M64.400 25.875 C 64.334 25.989,64.341 26.028,64.415 25.961 C 64.490 25.894,64.640 25.961,64.750 26.111 C 64.884 26.294,64.986 26.324,65.063 26.200 C 65.125 26.099,65.028 25.938,64.848 25.841 C 64.607 25.712,64.489 25.721,64.400 25.875 M60.540 27.527 C 60.426 27.641,60.333 27.847,60.333 27.986 C 60.333 28.204,60.370 28.202,60.603 27.969 C 60.751 27.821,60.844 27.614,60.809 27.510 C 60.763 27.373,60.689 27.378,60.540 27.527 M71.434 29.764 C 71.278 30.171,71.312 30.225,71.583 30.000 C 71.860 29.770,71.915 29.500,71.684 29.500 C 71.603 29.500,71.490 29.619,71.434 29.764 M39.167 30.382 C 39.167 30.652,39.209 30.672,39.417 30.500 C 39.554 30.386,39.667 30.239,39.667 30.174 C 39.667 30.109,39.554 30.056,39.417 30.056 C 39.279 30.056,39.167 30.202,39.167 30.382 M63.456 30.100 C 63.306 30.250,63.513 30.679,63.684 30.573 C 63.766 30.522,63.833 30.372,63.833 30.240 C 63.833 29.995,63.635 29.921,63.456 30.100 M70.358 32.267 C 70.234 32.407,70.166 32.555,70.206 32.595 C 70.247 32.636,70.416 32.518,70.582 32.334 C 70.749 32.150,70.817 32.003,70.734 32.006 C 70.651 32.010,70.482 32.127,70.358 32.267 M38.076 32.678 C 38.016 32.776,38.007 32.896,38.056 32.944 C 38.175 33.064,38.500 32.853,38.500 32.657 C 38.500 32.444,38.212 32.458,38.076 32.678 M57.826 33.514 C 57.723 33.705,57.680 33.902,57.729 33.951 C 57.844 34.067,58.333 33.577,58.333 33.345 C 58.333 33.044,58.022 33.147,57.826 33.514 M69.687 33.719 C 69.428 34.369,69.453 34.474,69.762 34.033 C 69.907 33.827,69.991 33.566,69.949 33.454 C 69.907 33.342,69.789 33.461,69.687 33.719 M37.223 34.594 C 37.051 34.958,37.062 34.978,37.351 34.824 C 37.679 34.649,37.760 34.411,37.539 34.274 C 37.469 34.231,37.326 34.375,37.223 34.594 M56.926 35.704 C 56.604 36.164,56.588 36.439,56.899 36.182 C 57.109 36.007,57.383 35.333,57.244 35.333 C 57.212 35.333,57.069 35.500,56.926 35.704 M68.768 35.597 C 68.593 36.052,68.657 36.200,68.917 35.940 C 69.054 35.803,69.167 35.610,69.167 35.512 C 69.167 35.239,68.882 35.300,68.768 35.597 M36.500 36.215 C 36.500 36.486,36.542 36.506,36.750 36.333 C 36.887 36.219,37.000 36.073,37.000 36.007 C 37.000 35.942,36.887 35.889,36.750 35.889 C 36.612 35.889,36.500 36.036,36.500 36.215 M67.708 38.093 C 67.463 38.360,67.442 38.500,67.649 38.500 C 67.791 38.500,68.057 37.999,67.962 37.910 C 67.937 37.886,67.823 37.969,67.708 38.093 M35.389 38.583 C 35.389 38.721,35.489 38.833,35.611 38.833 C 35.733 38.833,35.833 38.721,35.833 38.583 C 35.833 38.446,35.733 38.333,35.611 38.333 C 35.489 38.333,35.389 38.446,35.389 38.583 M55.200 39.367 C 55.090 39.477,55.000 39.627,55.000 39.700 C 55.000 39.946,55.251 39.837,55.461 39.500 C 55.689 39.135,55.519 39.048,55.200 39.367 M67.000 39.486 C 67.000 39.571,66.948 39.777,66.884 39.945 C 66.776 40.231,66.787 40.232,67.051 39.970 C 67.364 39.660,67.424 39.333,67.167 39.333 C 67.075 39.333,67.000 39.402,67.000 39.486 M2.700 40.925 C 2.405 41.259,2.617 41.574,2.927 41.263 C 3.182 41.008,3.249 40.662,3.042 40.673 C 2.973 40.676,2.819 40.790,2.700 40.925 M66.101 41.597 C 65.945 42.005,65.979 42.045,66.250 41.774 C 66.533 41.490,66.569 41.333,66.351 41.333 C 66.269 41.333,66.157 41.452,66.101 41.597 M54.197 41.703 C 53.964 41.936,53.940 42.167,54.149 42.167 C 54.302 42.167,54.553 41.664,54.451 41.562 C 54.420 41.531,54.306 41.594,54.197 41.703 M33.738 42.222 C 33.570 42.584,33.583 42.596,33.945 42.429 C 34.157 42.330,34.331 42.156,34.332 42.042 C 34.334 41.690,33.927 41.813,33.738 42.222 M1.783 42.732 C 1.715 42.906,1.698 43.087,1.746 43.135 C 1.898 43.287,2.032 43.038,1.968 42.721 C 1.910 42.431,1.901 42.432,1.783 42.732 M27.500 44.083 C 27.500 44.221,27.575 44.333,27.667 44.333 C 27.758 44.333,27.833 44.221,27.833 44.083 C 27.833 43.946,27.758 43.833,27.667 43.833 C 27.575 43.833,27.500 43.946,27.500 44.083 M65.005 43.993 C 64.870 44.079,64.810 44.199,64.872 44.261 C 64.934 44.323,65.106 44.252,65.254 44.103 C 65.547 43.810,65.399 43.744,65.005 43.993 M52.495 45.256 C 52.206 45.605,52.447 45.791,52.770 45.468 C 52.926 45.312,52.966 45.165,52.868 45.105 C 52.778 45.049,52.610 45.117,52.495 45.256 M59.363 46.718 C 59.669 47.027,60.167 47.098,60.167 46.833 C 60.167 46.742,60.060 46.667,59.930 46.667 C 59.800 46.667,59.557 46.615,59.389 46.551 C 59.103 46.443,59.101 46.453,59.363 46.718 M3.773 47.083 C 3.826 47.221,3.973 47.333,4.101 47.333 C 4.417 47.333,4.395 47.059,4.070 46.934 C 3.693 46.790,3.666 46.804,3.773 47.083 M61.833 47.167 C 61.833 47.258,61.983 47.333,62.167 47.333 C 62.350 47.333,62.500 47.258,62.500 47.167 C 62.500 47.075,62.350 47.000,62.167 47.000 C 61.983 47.000,61.833 47.075,61.833 47.167 M51.444 47.611 C 51.195 47.861,51.322 48.217,51.583 48.000 C 51.721 47.886,51.833 47.727,51.833 47.646 C 51.833 47.474,51.603 47.453,51.444 47.611 M50.827 48.924 C 50.681 49.100,50.668 49.235,50.785 49.352 C 50.903 49.469,50.983 49.388,51.039 49.095 C 51.134 48.595,51.114 48.579,50.827 48.924 M49.843 51.149 C 49.642 51.524,49.761 51.593,50.165 51.338 C 50.353 51.219,50.367 51.133,50.222 50.989 C 50.078 50.845,49.984 50.884,49.843 51.149 M29.500 53.403 C 29.500 53.548,29.619 53.667,29.764 53.667 C 30.058 53.667,30.007 53.308,29.698 53.205 C 29.589 53.169,29.500 53.258,29.500 53.403 M48.710 53.581 C 48.563 53.748,48.556 53.848,48.687 53.929 C 48.788 53.992,48.936 53.939,49.016 53.813 C 49.321 53.331,49.086 53.153,48.710 53.581 M4.204 53.905 C 3.904 54.014,3.710 54.155,3.774 54.218 C 3.837 54.281,3.779 54.333,3.644 54.333 C 3.353 54.333,2.333 55.345,2.333 55.633 C 2.333 55.743,2.273 55.833,2.200 55.833 C 1.991 55.833,1.667 56.878,1.667 57.553 C 1.667 57.891,1.742 58.167,1.833 58.167 C 1.925 58.167,2.000 58.429,2.000 58.750 C 2.000 59.071,2.075 59.333,2.167 59.333 C 2.258 59.333,2.333 59.429,2.333 59.546 C 2.333 59.871,3.330 60.674,3.865 60.781 C 4.126 60.834,4.381 60.942,4.430 61.022 C 4.479 61.101,8.865 61.167,14.177 61.167 L 23.833 61.167 23.833 60.083 C 23.833 59.436,23.904 59.000,24.009 59.000 C 24.119 59.000,24.159 58.644,24.116 58.042 C 24.039 56.942,24.293 54.676,24.525 54.390 C 24.632 54.259,24.560 54.111,24.304 53.932 C 23.814 53.588,5.144 53.563,4.204 53.905 M48.171 54.660 C 48.037 54.745,47.977 54.866,48.039 54.927 C 48.100 54.989,48.272 54.918,48.421 54.770 C 48.714 54.477,48.565 54.411,48.171 54.660 M47.679 55.735 C 47.572 55.865,47.547 56.010,47.625 56.058 C 47.703 56.106,47.857 56.000,47.968 55.823 C 48.200 55.452,47.971 55.383,47.679 55.735 M29.000 56.667 C 29.000 56.758,29.113 56.833,29.250 56.833 C 29.387 56.833,29.500 56.758,29.500 56.667 C 29.500 56.575,29.387 56.500,29.250 56.500 C 29.113 56.500,29.000 56.575,29.000 56.667 M28.767 57.933 C 28.706 58.092,28.731 58.297,28.822 58.389 C 28.934 58.500,29.026 58.459,29.100 58.267 C 29.161 58.108,29.136 57.903,29.044 57.811 C 28.933 57.700,28.841 57.741,28.767 57.933 M45.042 59.944 C 44.751 60.061,44.781 60.333,45.083 60.333 C 45.221 60.333,45.333 60.221,45.333 60.083 C 45.333 59.946,45.315 59.839,45.292 59.846 C 45.269 59.854,45.156 59.897,45.042 59.944 M28.702 61.708 C 28.764 63.475,29.067 63.446,29.132 61.668 C 29.173 60.542,29.139 60.333,28.917 60.333 C 28.694 60.333,28.661 60.546,28.702 61.708 M44.108 61.336 C 43.878 61.726,43.867 61.810,44.059 61.736 C 44.192 61.685,44.342 61.483,44.394 61.287 C 44.531 60.764,44.437 60.780,44.108 61.336 M28.667 65.431 C 28.667 65.725,29.025 65.674,29.128 65.365 C 29.165 65.256,29.076 65.167,28.931 65.167 C 28.785 65.167,28.667 65.285,28.667 65.431 M39.444 66.111 C 39.383 66.172,39.333 66.328,39.333 66.456 C 39.333 66.650,39.376 66.648,39.583 66.440 C 39.721 66.303,39.833 66.148,39.833 66.095 C 39.833 65.965,39.580 65.975,39.444 66.111 M29.000 66.833 C 29.000 66.925,29.113 67.000,29.250 67.000 C 29.387 67.000,29.500 66.925,29.500 66.833 C 29.500 66.742,29.387 66.667,29.250 66.667 C 29.113 66.667,29.000 66.742,29.000 66.833 M38.001 67.496 C 37.803 67.621,37.795 67.695,37.960 67.860 C 38.125 68.025,38.167 68.012,38.167 67.797 C 38.167 67.649,38.260 67.490,38.375 67.444 C 38.490 67.397,38.508 67.355,38.417 67.349 C 38.325 67.343,38.138 67.409,38.001 67.496 M33.333 70.750 C 33.333 70.887,33.408 71.000,33.500 71.000 C 33.592 71.000,33.667 70.887,33.667 70.750 C 33.667 70.612,33.592 70.500,33.500 70.500 C 33.408 70.500,33.333 70.612,33.333 70.750 M32.583 71.000 C 32.527 71.092,32.593 71.167,32.730 71.167 C 32.868 71.167,33.027 71.092,33.083 71.000 C 33.140 70.908,33.074 70.833,32.936 70.833 C 32.799 70.833,32.640 70.908,32.583 71.000 " stroke="none" fill="#9ceccc" fill-rule="evenodd"></path><path id="path3" d="M4.542 12.618 C 4.335 12.657,4.167 12.760,4.167 12.845 C 4.167 12.930,4.054 13.000,3.917 13.000 C 3.779 13.000,3.667 13.079,3.667 13.177 C 3.667 13.274,3.597 13.310,3.512 13.257 C 3.426 13.204,3.309 13.237,3.252 13.331 C 3.085 13.600,3.770 13.527,4.000 13.250 C 4.114 13.112,4.415 13.000,4.669 13.000 C 4.926 13.000,5.174 12.889,5.227 12.750 C 5.324 12.498,5.244 12.482,4.542 12.618 M41.242 12.636 C 41.100 12.738,41.071 13.088,41.143 13.825 C 41.180 14.198,41.449 13.823,41.576 13.224 C 41.687 12.694,41.535 12.426,41.242 12.636 M2.213 14.244 C 2.053 14.426,2.053 14.496,2.213 14.571 C 2.372 14.646,2.371 14.688,2.208 14.764 C 2.094 14.817,2.000 15.042,2.000 15.264 C 2.000 15.485,1.940 15.667,1.867 15.667 C 1.793 15.667,1.733 15.929,1.733 16.250 C 1.733 16.571,1.793 16.833,1.867 16.833 C 1.940 16.833,2.000 17.021,2.000 17.250 C 2.000 17.479,2.078 17.667,2.174 17.667 C 2.270 17.667,2.336 17.760,2.321 17.875 C 2.268 18.280,2.335 18.500,2.512 18.500 C 2.743 18.500,3.167 18.924,3.167 19.155 C 3.167 19.253,3.284 19.333,3.427 19.333 C 3.569 19.333,3.642 19.404,3.589 19.491 C 3.535 19.578,3.775 19.727,4.121 19.823 C 4.941 20.051,5.000 20.046,5.000 19.750 C 5.000 19.605,4.849 19.500,4.642 19.500 C 4.109 19.500,2.863 18.396,2.506 17.608 C 2.003 16.497,1.974 16.244,2.258 15.477 C 2.770 14.095,2.753 13.630,2.213 14.244 M40.609 14.471 C 40.457 14.639,40.333 14.951,40.333 15.164 C 40.333 15.377,40.138 15.808,39.900 16.120 C 39.661 16.433,39.512 16.734,39.567 16.789 C 39.622 16.844,39.546 17.024,39.397 17.189 C 39.243 17.359,39.173 17.608,39.234 17.768 C 39.337 18.037,39.508 18.012,39.546 17.722 C 39.556 17.646,39.700 17.438,39.866 17.260 C 40.097 17.012,40.118 16.906,39.959 16.804 C 39.841 16.729,39.827 16.671,39.927 16.669 C 40.168 16.666,40.667 15.588,40.667 15.072 C 40.667 14.844,40.779 14.613,40.917 14.560 C 41.054 14.508,41.167 14.397,41.167 14.316 C 41.167 14.072,40.904 14.146,40.609 14.471 M38.573 18.920 C 38.283 19.679,38.343 20.057,38.696 19.704 C 38.801 19.599,38.909 19.305,38.936 19.051 C 38.963 18.796,39.064 18.562,39.159 18.530 C 39.418 18.444,39.370 18.167,39.097 18.167 C 38.967 18.167,38.731 18.506,38.573 18.920 M5.077 26.510 C 5.013 26.613,4.760 26.640,4.463 26.575 C 4.114 26.498,3.993 26.521,4.072 26.649 C 4.138 26.756,4.059 26.844,3.885 26.859 C 3.719 26.873,3.500 26.893,3.398 26.903 C 3.032 26.940,2.665 27.384,2.474 28.020 C 2.368 28.376,2.209 28.667,2.122 28.667 C 2.035 28.667,2.011 28.856,2.069 29.087 C 2.143 29.382,2.099 29.536,1.921 29.605 C 1.595 29.730,1.598 29.955,1.930 30.287 C 2.074 30.431,2.156 30.689,2.112 30.858 C 2.068 31.028,2.081 31.167,2.142 31.167 C 2.296 31.167,2.749 32.207,2.699 32.446 C 2.676 32.554,2.828 32.668,3.037 32.700 C 3.246 32.732,3.398 32.850,3.375 32.962 C 3.349 33.088,3.527 33.167,3.833 33.167 C 4.108 33.167,4.333 33.239,4.333 33.327 C 4.333 33.429,9.482 33.475,18.417 33.452 C 27.681 33.429,32.524 33.474,32.570 33.583 C 32.609 33.675,32.646 33.596,32.654 33.408 C 32.661 33.220,32.760 32.966,32.875 32.842 C 33.044 32.661,33.039 32.643,32.849 32.752 C 32.665 32.856,32.637 32.799,32.721 32.484 C 32.780 32.264,32.830 32.027,32.831 31.958 C 32.832 31.890,32.928 31.833,33.043 31.833 C 33.358 31.833,33.744 31.151,33.510 31.006 C 33.269 30.858,33.672 30.049,34.204 29.615 C 34.413 29.444,34.490 29.353,34.375 29.412 C 34.251 29.476,34.167 29.414,34.167 29.260 C 34.167 29.117,34.242 29.000,34.333 29.000 C 34.425 29.000,34.500 28.787,34.500 28.526 C 34.500 28.029,35.013 27.409,35.246 27.625 C 35.320 27.694,35.333 27.497,35.274 27.188 C 35.215 26.878,35.167 26.559,35.167 26.479 C 35.167 26.259,5.213 26.290,5.077 26.510 M10.958 39.958 C 14.190 39.984,19.477 39.984,22.708 39.958 C 25.940 39.933,23.296 39.912,16.833 39.912 C 10.371 39.912,7.727 39.933,10.958 39.958 M294.333 46.680 C 290.454 48.436,291.659 53.667,295.943 53.667 C 298.280 53.667,299.821 52.227,299.830 50.035 C 299.841 47.351,296.865 45.534,294.333 46.680 " stroke="none" fill="#0c8454" fill-rule="evenodd"></path><path id="path4" d="M55.667 2.833 C 55.667 3.104,55.556 3.167,55.073 3.167 C 54.668 3.167,54.518 3.106,54.599 2.974 C 54.674 2.854,54.645 2.827,54.523 2.902 C 54.416 2.969,54.379 3.106,54.441 3.207 C 54.515 3.325,54.455 3.352,54.271 3.281 C 54.095 3.214,53.951 3.266,53.893 3.419 C 53.840 3.555,53.630 3.667,53.424 3.667 C 53.219 3.667,52.762 3.947,52.406 4.292 C 52.052 4.635,51.701 4.897,51.627 4.874 C 51.553 4.850,51.419 5.023,51.330 5.259 C 51.241 5.494,51.092 5.640,51.000 5.584 C 50.908 5.527,50.833 5.597,50.833 5.740 C 50.833 5.883,50.766 6.000,50.684 6.000 C 50.446 6.000,49.500 7.576,49.500 7.973 C 49.500 8.171,49.425 8.333,49.333 8.333 C 49.241 8.333,49.002 8.708,48.801 9.167 C 48.601 9.625,48.387 10.000,48.325 10.000 C 48.198 10.000,48.259 10.814,48.396 10.951 C 48.444 11.000,48.368 11.155,48.227 11.297 C 48.008 11.516,47.948 11.519,47.821 11.319 C 47.712 11.147,47.671 11.207,47.669 11.542 C 47.668 11.812,47.757 12.000,47.888 12.000 C 48.213 12.000,48.833 11.279,48.833 10.901 C 48.833 10.721,48.950 10.407,49.093 10.204 C 49.235 10.000,49.292 9.832,49.218 9.831 C 49.144 9.829,49.158 9.773,49.250 9.706 C 49.541 9.492,49.833 8.852,49.833 8.427 C 49.833 8.201,49.927 7.957,50.042 7.883 C 50.156 7.810,50.400 7.450,50.583 7.083 C 51.398 5.450,53.320 3.989,55.649 3.235 C 56.666 2.905,57.189 2.500,56.597 2.500 C 56.452 2.500,56.333 2.575,56.333 2.667 C 56.333 2.758,56.216 2.833,56.073 2.833 C 55.931 2.833,55.860 2.758,55.917 2.667 C 55.973 2.575,55.940 2.500,55.843 2.500 C 55.746 2.500,55.667 2.650,55.667 2.833 M57.292 2.768 C 57.602 3.003,58.300 3.066,58.736 2.899 C 59.249 2.702,58.987 2.583,58.000 2.565 C 57.135 2.549,57.039 2.576,57.292 2.768 M59.200 2.684 C 59.273 2.904,60.502 3.352,60.698 3.230 C 60.774 3.184,61.046 3.295,61.303 3.478 C 61.560 3.661,61.965 3.860,62.203 3.920 C 62.440 3.979,62.805 4.209,63.013 4.431 C 63.221 4.652,63.472 4.838,63.571 4.843 C 63.846 4.857,65.555 7.083,65.771 7.708 C 65.827 7.869,65.943 8.000,66.029 8.000 C 66.116 8.000,66.141 8.073,66.087 8.161 C 65.961 8.365,66.619 9.833,66.836 9.833 C 67.060 9.833,66.931 9.116,66.693 9.037 C 66.433 8.950,66.446 8.501,66.708 8.497 C 66.846 8.496,66.857 8.453,66.741 8.372 C 66.644 8.305,66.466 8.006,66.345 7.708 C 66.225 7.410,66.020 7.167,65.889 7.167 C 65.759 7.167,65.667 7.073,65.685 6.958 C 65.703 6.844,65.637 6.563,65.536 6.333 C 65.436 6.104,65.350 5.982,65.344 6.062 C 65.330 6.253,64.833 5.839,64.833 5.636 C 64.833 5.551,64.920 5.534,65.026 5.599 C 65.146 5.674,65.173 5.645,65.098 5.523 C 65.031 5.416,64.907 5.371,64.822 5.424 C 64.736 5.477,64.667 5.390,64.667 5.232 C 64.667 5.074,64.618 4.994,64.558 5.053 C 64.498 5.113,64.235 4.872,63.973 4.516 C 63.633 4.054,63.331 3.839,62.911 3.760 C 62.588 3.699,62.368 3.579,62.422 3.492 C 62.476 3.405,62.440 3.333,62.343 3.333 C 62.246 3.333,62.167 3.411,62.167 3.506 C 62.167 3.623,62.060 3.622,61.835 3.501 C 61.653 3.403,61.521 3.232,61.543 3.120 C 61.571 2.981,61.251 2.901,60.542 2.867 C 59.969 2.840,59.500 2.746,59.500 2.659 C 59.500 2.571,59.419 2.500,59.319 2.500 C 59.220 2.500,59.167 2.583,59.200 2.684 M66.622 10.125 C 66.586 10.194,66.574 10.925,66.595 11.750 C 66.625 12.944,66.568 13.378,66.316 13.880 C 66.142 14.227,66.000 14.654,66.000 14.829 C 66.000 15.004,65.925 15.193,65.833 15.250 C 65.742 15.307,65.667 15.473,65.667 15.619 C 65.667 15.765,65.479 16.131,65.250 16.431 C 65.021 16.732,64.833 17.091,64.833 17.229 C 64.833 17.368,64.677 17.746,64.485 18.071 L 64.137 18.660 64.610 18.848 C 64.870 18.951,65.214 19.103,65.373 19.185 C 65.532 19.266,65.766 19.333,65.892 19.333 C 66.018 19.333,66.312 19.483,66.545 19.667 C 66.779 19.850,67.117 20.000,67.298 20.000 C 67.478 20.000,67.719 20.112,67.833 20.250 C 67.947 20.387,68.135 20.500,68.250 20.500 C 68.365 20.500,68.553 20.612,68.667 20.750 C 68.781 20.887,69.040 21.000,69.242 21.000 C 69.687 21.000,71.170 23.193,71.635 24.538 C 71.958 25.473,72.435 25.889,72.231 25.058 C 72.167 24.797,72.052 24.558,71.974 24.528 C 71.897 24.497,71.833 24.253,71.833 23.986 C 71.833 23.719,71.750 23.500,71.649 23.500 C 71.547 23.500,71.504 23.396,71.553 23.269 C 71.602 23.142,71.460 22.880,71.237 22.687 C 71.015 22.494,70.833 22.223,70.833 22.084 C 70.833 21.946,70.718 21.833,70.578 21.833 C 70.438 21.833,70.275 21.708,70.216 21.554 C 70.071 21.178,69.496 20.616,69.376 20.735 C 69.235 20.876,68.821 20.488,68.928 20.314 C 68.979 20.233,68.828 20.167,68.593 20.167 C 68.341 20.167,68.184 20.082,68.208 19.958 C 68.235 19.827,68.009 19.730,67.592 19.696 C 67.199 19.664,66.821 19.511,66.651 19.316 C 66.495 19.136,66.304 19.000,66.225 19.014 C 65.882 19.076,65.655 18.973,65.258 18.576 C 64.827 18.145,64.697 17.896,65.000 18.083 C 65.092 18.140,65.167 18.027,65.167 17.833 C 65.167 17.639,65.242 17.527,65.333 17.583 C 65.425 17.640,65.500 17.565,65.500 17.417 C 65.500 17.268,65.425 17.193,65.333 17.250 C 65.068 17.414,65.139 17.171,65.485 16.731 C 65.702 16.455,65.830 16.394,65.888 16.538 C 65.935 16.655,65.980 16.550,65.987 16.306 C 65.994 16.061,66.084 15.833,66.188 15.799 C 66.291 15.764,66.399 15.404,66.428 14.998 C 66.457 14.592,66.580 14.183,66.702 14.088 C 66.976 13.875,67.121 10.000,66.855 10.000 C 66.762 10.000,66.657 10.056,66.622 10.125 M47.439 12.380 C 47.279 12.497,47.122 12.703,47.091 12.838 C 46.950 13.448,46.784 13.833,46.663 13.833 C 46.590 13.833,46.573 13.995,46.625 14.193 C 46.690 14.439,46.658 14.515,46.526 14.433 C 46.404 14.357,46.333 14.439,46.333 14.657 C 46.333 14.846,46.268 15.000,46.188 15.000 C 46.043 15.000,45.766 15.891,45.786 16.292 C 45.792 16.406,45.720 16.500,45.628 16.500 C 45.523 16.500,45.530 16.585,45.646 16.725 C 45.848 16.968,45.332 17.610,45.111 17.389 C 45.050 17.328,45.000 17.403,45.000 17.556 C 45.000 17.978,45.591 17.891,45.897 17.423 C 46.046 17.197,46.167 16.868,46.167 16.693 C 46.167 16.518,46.279 16.281,46.417 16.167 C 46.554 16.053,46.669 15.875,46.672 15.771 C 46.675 15.668,46.818 15.288,46.988 14.927 C 47.159 14.566,47.261 14.172,47.215 14.052 C 47.169 13.932,47.211 13.833,47.308 13.833 C 47.447 13.833,48.167 12.490,48.167 12.229 C 48.167 12.087,47.710 12.182,47.439 12.380 M40.778 14.611 C 40.594 14.795,40.652 15.000,40.889 15.000 C 41.011 15.000,41.111 14.887,41.111 14.750 C 41.111 14.486,40.964 14.425,40.778 14.611 M44.900 18.265 C 44.967 18.442,44.890 18.560,44.669 18.618 C 44.487 18.665,44.374 18.765,44.420 18.838 C 44.546 19.043,44.188 19.866,44.018 19.761 C 43.879 19.675,43.732 20.062,43.564 20.958 C 43.516 21.212,43.574 21.333,43.743 21.333 C 44.076 21.333,44.529 20.617,44.558 20.044 C 44.571 19.791,44.672 19.508,44.784 19.417 C 45.076 19.176,45.498 18.298,45.398 18.137 C 45.236 17.874,44.793 17.988,44.900 18.265 M43.167 21.750 C 43.167 21.887,43.108 22.000,43.035 22.000 C 42.963 22.000,42.893 22.150,42.879 22.333 C 42.865 22.517,42.943 22.668,43.052 22.669 C 43.170 22.671,43.148 22.736,43.000 22.830 C 42.819 22.944,42.719 22.909,42.637 22.702 C 42.543 22.465,42.521 22.478,42.512 22.778 C 42.505 22.977,42.454 23.258,42.399 23.403 C 42.242 23.811,42.811 23.729,43.176 23.292 C 43.348 23.085,43.491 22.757,43.494 22.562 C 43.498 22.367,43.612 22.115,43.748 22.002 C 43.885 21.888,43.955 21.729,43.905 21.648 C 43.753 21.401,43.167 21.483,43.167 21.750 M42.255 23.991 C 42.196 24.088,42.193 24.242,42.250 24.333 C 42.338 24.476,42.156 24.561,41.827 24.532 C 41.778 24.527,41.722 24.707,41.704 24.932 C 41.685 25.156,41.556 25.513,41.418 25.725 C 41.279 25.937,41.216 26.160,41.277 26.222 C 41.339 26.283,41.293 26.333,41.177 26.333 C 41.057 26.333,41.006 26.442,41.060 26.581 C 41.114 26.725,41.069 26.813,40.952 26.790 C 40.841 26.768,40.749 26.871,40.747 27.019 C 40.746 27.167,40.663 27.392,40.563 27.519 C 40.304 27.848,40.168 28.500,40.359 28.500 C 40.447 28.500,40.470 28.580,40.410 28.678 C 40.349 28.776,40.186 28.813,40.048 28.759 C 39.873 28.692,39.826 28.740,39.893 28.915 C 39.946 29.053,39.917 29.167,39.828 29.167 C 39.739 29.167,39.667 29.321,39.667 29.510 C 39.667 29.699,39.592 29.807,39.500 29.750 C 39.408 29.693,39.333 29.768,39.333 29.917 C 39.333 30.065,39.408 30.140,39.500 30.083 C 39.800 29.898,39.675 30.275,39.333 30.583 C 39.150 30.749,39.000 30.959,39.000 31.049 C 39.000 31.139,38.883 31.299,38.741 31.403 C 38.598 31.507,38.464 31.714,38.442 31.863 C 38.420 32.011,38.301 32.255,38.177 32.404 C 37.984 32.637,37.991 32.660,38.226 32.569 C 38.651 32.407,38.550 32.723,38.014 33.236 C 37.649 33.586,37.544 33.821,37.590 34.183 C 37.634 34.530,37.560 34.712,37.325 34.838 C 37.146 34.933,37.000 35.159,37.000 35.339 C 37.000 35.519,36.925 35.667,36.833 35.667 C 36.742 35.667,36.667 35.746,36.667 35.843 C 36.667 35.940,36.742 35.973,36.833 35.917 C 37.162 35.713,36.992 36.116,36.588 36.495 C 36.362 36.708,36.213 36.940,36.257 37.011 C 36.301 37.082,36.209 37.268,36.052 37.424 C 35.891 37.585,35.775 37.944,35.784 38.256 C 35.795 38.661,35.717 38.825,35.483 38.886 C 35.303 38.933,35.167 39.115,35.167 39.308 C 35.167 39.494,35.090 39.695,34.996 39.753 C 34.901 39.811,34.845 39.984,34.871 40.138 C 34.896 40.291,34.823 40.398,34.708 40.375 C 34.594 40.352,34.500 40.450,34.500 40.592 C 34.500 40.734,34.386 41.071,34.246 41.342 C 34.100 41.623,34.064 41.833,34.162 41.833 C 34.256 41.833,34.333 41.955,34.333 42.103 C 34.333 42.290,34.232 42.346,34.000 42.285 C 33.816 42.237,33.700 42.252,33.741 42.319 C 33.783 42.386,33.721 42.625,33.604 42.850 C 33.487 43.075,33.426 43.361,33.468 43.486 C 33.509 43.611,33.467 43.666,33.374 43.608 C 33.281 43.551,33.160 43.672,33.105 43.877 C 32.954 44.439,32.974 44.500,33.307 44.500 C 33.611 44.500,34.000 43.882,34.000 43.398 C 34.000 43.258,34.188 42.899,34.417 42.598 C 34.646 42.298,34.833 41.921,34.833 41.760 C 34.833 41.599,34.981 41.261,35.161 41.008 C 35.341 40.755,35.582 40.200,35.695 39.774 C 35.809 39.348,35.954 39.000,36.016 39.000 C 36.174 39.000,36.667 37.734,36.667 37.330 C 36.667 37.148,36.725 37.000,36.797 37.000 C 37.014 37.000,37.535 35.999,37.443 35.759 C 37.396 35.636,37.528 35.375,37.737 35.178 C 38.062 34.874,38.492 33.882,38.487 33.452 C 38.486 33.380,38.636 33.129,38.821 32.894 C 39.007 32.659,39.207 32.193,39.266 31.858 C 39.326 31.524,39.532 31.078,39.724 30.867 C 39.916 30.656,40.081 30.302,40.091 30.079 C 40.101 29.856,40.249 29.519,40.420 29.330 C 40.736 28.980,41.178 27.953,41.207 27.502 C 41.215 27.366,41.320 27.156,41.440 27.036 C 41.560 26.916,41.751 26.503,41.865 26.118 C 41.980 25.732,42.246 25.160,42.457 24.846 C 42.669 24.532,42.816 24.199,42.785 24.106 C 42.703 23.859,42.381 23.789,42.255 23.991 M61.667 24.658 C 61.667 24.837,61.571 25.043,61.455 25.117 C 61.206 25.273,60.833 26.069,60.833 26.442 C 60.833 26.585,60.646 26.925,60.417 27.197 C 60.188 27.469,60.000 27.820,60.000 27.976 C 60.000 28.132,59.775 28.693,59.500 29.223 C 59.225 29.753,59.000 30.362,59.000 30.575 C 59.000 30.789,58.900 31.003,58.778 31.049 C 58.656 31.096,58.393 31.583,58.193 32.132 C 57.993 32.681,57.717 33.222,57.581 33.335 C 57.445 33.448,57.333 33.674,57.333 33.837 C 57.333 34.000,57.103 34.572,56.820 35.108 C 56.504 35.710,56.332 36.251,56.372 36.524 C 56.418 36.833,56.373 36.941,56.224 36.883 C 56.094 36.834,55.903 37.055,55.739 37.442 C 55.473 38.072,54.758 39.637,54.477 40.206 C 54.270 40.623,54.300 40.833,54.564 40.833 C 54.809 40.833,55.052 40.269,55.009 39.801 C 54.994 39.646,55.174 39.394,55.408 39.240 C 55.725 39.032,55.833 38.818,55.833 38.397 C 55.833 38.024,55.912 37.833,56.068 37.833 C 56.220 37.833,56.272 37.717,56.215 37.500 C 56.167 37.317,56.210 37.167,56.310 37.167 C 56.410 37.167,56.612 36.933,56.759 36.648 C 56.907 36.363,56.946 36.180,56.847 36.241 C 56.506 36.452,56.667 35.985,57.076 35.576 C 57.301 35.351,57.442 35.167,57.389 35.167 C 57.336 35.167,57.370 35.073,57.465 34.958 C 57.657 34.728,57.667 34.685,57.667 34.075 C 57.667 33.837,57.849 33.482,58.083 33.265 C 58.325 33.041,58.500 32.694,58.500 32.439 C 58.500 32.164,58.591 32.000,58.745 32.000 C 58.892 32.000,58.952 31.902,58.895 31.755 C 58.844 31.620,58.954 31.315,59.141 31.078 C 59.332 30.835,59.437 30.529,59.379 30.379 C 59.314 30.209,59.344 30.153,59.460 30.225 C 59.561 30.288,59.698 30.251,59.764 30.144 C 59.840 30.022,59.813 29.993,59.692 30.067 C 59.587 30.133,59.500 30.107,59.500 30.010 C 59.500 29.913,59.575 29.833,59.667 29.833 C 59.758 29.833,59.833 29.721,59.833 29.583 C 59.833 29.446,59.908 29.333,60.000 29.333 C 60.092 29.333,60.167 29.189,60.167 29.012 C 60.167 28.835,60.279 28.578,60.417 28.440 C 60.699 28.158,60.753 27.927,60.500 28.083 C 60.408 28.140,60.333 28.079,60.333 27.947 C 60.333 27.669,60.735 27.290,60.878 27.433 C 60.931 27.486,61.042 27.205,61.125 26.807 C 61.215 26.371,61.358 26.102,61.484 26.129 C 61.619 26.159,61.656 26.063,61.590 25.855 C 61.531 25.669,61.596 25.428,61.744 25.279 C 61.885 25.139,62.000 24.943,62.000 24.845 C 62.000 24.522,62.445 24.658,63.013 25.154 C 63.321 25.422,63.634 25.604,63.710 25.557 C 63.786 25.510,63.959 25.563,64.094 25.675 C 64.229 25.787,64.489 25.888,64.672 25.898 C 64.855 25.908,64.985 25.965,64.960 26.024 C 64.936 26.083,65.067 26.302,65.250 26.511 C 65.433 26.720,65.490 26.836,65.375 26.769 C 65.245 26.693,65.167 26.745,65.167 26.907 C 65.167 27.050,65.094 27.167,65.005 27.167 C 64.916 27.167,64.892 27.291,64.950 27.444 C 65.022 27.630,64.993 27.682,64.862 27.601 C 64.738 27.524,64.667 27.601,64.667 27.812 C 64.667 27.994,64.542 28.268,64.390 28.420 C 64.155 28.654,64.149 28.720,64.348 28.848 C 64.584 29.000,64.248 29.403,64.008 29.255 C 63.958 29.225,63.909 29.409,63.900 29.665 C 63.874 30.375,63.682 30.794,63.509 30.515 C 63.410 30.355,63.334 30.453,63.247 30.848 C 63.179 31.156,62.947 31.688,62.730 32.031 C 62.456 32.465,62.412 32.626,62.585 32.560 C 62.722 32.507,62.833 32.547,62.833 32.649 C 62.833 32.750,62.721 32.833,62.583 32.833 C 62.446 32.833,62.333 32.977,62.333 33.153 C 62.333 33.328,62.249 33.500,62.146 33.535 C 62.043 33.569,61.957 33.819,61.955 34.090 C 61.953 34.361,61.919 34.489,61.878 34.374 C 61.761 34.040,61.500 34.313,61.500 34.770 C 61.500 34.999,61.441 35.150,61.369 35.105 C 61.248 35.031,61.188 35.297,61.158 36.045 C 61.152 36.208,61.076 36.297,60.989 36.243 C 60.833 36.146,60.675 36.411,60.605 36.887 C 60.585 37.022,60.460 37.268,60.326 37.432 C 60.178 37.614,60.165 37.682,60.292 37.605 C 60.406 37.537,60.500 37.560,60.500 37.657 C 60.500 37.754,60.387 37.833,60.250 37.833 C 60.112 37.833,60.000 37.953,60.000 38.099 C 60.000 38.245,59.781 38.765,59.513 39.253 C 59.082 40.038,59.057 40.153,59.303 40.247 C 59.651 40.381,60.167 39.781,60.167 39.241 C 60.167 39.028,60.237 38.810,60.323 38.757 C 60.568 38.605,61.000 37.652,61.000 37.261 C 61.000 37.067,61.150 36.779,61.333 36.622 C 61.517 36.465,61.667 36.153,61.667 35.928 C 61.667 35.703,61.746 35.471,61.842 35.411 C 62.080 35.264,62.851 33.497,62.750 33.333 C 62.705 33.261,62.781 33.159,62.918 33.106 C 63.055 33.053,63.167 32.911,63.167 32.789 C 63.167 32.667,63.432 32.050,63.756 31.417 C 64.080 30.784,64.323 30.154,64.297 30.017 C 64.270 29.879,64.418 29.597,64.624 29.391 C 64.831 29.184,65.000 28.860,65.000 28.671 C 65.000 28.482,65.185 28.034,65.410 27.677 C 66.163 26.484,65.708 25.333,64.483 25.333 C 64.320 25.333,64.140 25.258,64.083 25.167 C 64.027 25.075,63.809 25.000,63.599 25.000 C 63.390 25.000,63.083 24.850,62.917 24.667 C 62.511 24.218,61.667 24.213,61.667 24.658 M71.897 26.409 C 71.795 26.672,71.939 27.000,72.156 27.000 C 72.230 27.000,72.292 26.813,72.292 26.583 C 72.292 26.130,72.046 26.021,71.897 26.409 M4.439 26.535 C 4.553 26.720,4.961 26.699,5.083 26.501 C 5.142 26.406,5.010 26.350,4.771 26.370 C 4.544 26.389,4.394 26.463,4.439 26.535 M3.505 26.788 C 3.287 27.034,3.293 27.051,3.561 26.948 C 3.726 26.885,3.934 26.833,4.023 26.833 C 4.113 26.833,4.140 26.758,4.083 26.667 C 3.940 26.435,3.791 26.467,3.505 26.788 M71.753 28.125 C 71.450 28.945,70.922 30.170,70.621 30.750 C 70.526 30.933,70.385 31.215,70.307 31.375 C 70.230 31.535,70.092 31.816,70.000 31.998 C 69.908 32.180,69.833 32.442,69.833 32.581 C 69.833 32.720,69.908 32.833,70.000 32.833 C 70.092 32.833,70.167 32.737,70.167 32.620 C 70.167 32.503,70.315 32.300,70.496 32.169 C 70.737 31.996,70.771 31.898,70.622 31.806 C 70.470 31.712,70.488 31.626,70.696 31.465 C 71.007 31.224,71.771 29.916,71.504 30.081 C 71.242 30.243,71.301 29.889,71.583 29.607 C 71.721 29.470,71.834 29.146,71.836 28.887 C 71.838 28.522,71.875 28.473,72.000 28.667 C 72.141 28.884,72.162 28.882,72.164 28.646 C 72.166 28.497,72.214 28.141,72.271 27.854 C 72.432 27.049,72.083 27.231,71.753 28.125 M34.697 27.869 C 34.467 28.099,34.432 28.667,34.647 28.667 C 34.777 28.667,35.032 27.812,34.933 27.711 C 34.912 27.690,34.806 27.761,34.697 27.869 M2.200 28.102 C 2.081 28.232,2.037 28.424,2.102 28.531 C 2.179 28.655,2.272 28.587,2.364 28.338 C 2.539 27.866,2.486 27.791,2.200 28.102 M34.355 28.983 C 34.229 29.063,34.160 29.230,34.202 29.355 C 34.254 29.513,34.338 29.469,34.478 29.208 C 34.700 28.794,34.688 28.772,34.355 28.983 M33.864 29.869 C 33.633 30.100,33.601 30.500,33.814 30.500 C 33.952 30.500,34.208 29.819,34.107 29.718 C 34.082 29.693,33.972 29.761,33.864 29.869 M1.782 30.273 C 1.604 30.451,1.645 30.700,1.833 30.583 C 1.925 30.527,2.000 30.572,2.000 30.685 C 2.000 30.797,2.044 30.845,2.099 30.790 C 2.153 30.736,2.130 30.571,2.048 30.425 C 1.965 30.278,1.846 30.209,1.782 30.273 M2.000 31.510 C 2.000 31.699,2.075 31.807,2.167 31.750 C 2.258 31.693,2.333 31.539,2.333 31.407 C 2.333 31.275,2.258 31.167,2.167 31.167 C 2.075 31.167,2.000 31.321,2.000 31.510 M32.772 32.208 C 32.615 32.792,32.647 32.891,32.917 32.667 C 33.186 32.443,33.261 31.833,33.019 31.833 C 32.938 31.833,32.827 32.002,32.772 32.208 M396.245 41.750 C 396.245 47.250,396.266 49.476,396.292 46.696 C 396.317 43.917,396.317 39.417,396.292 36.696 C 396.266 33.976,396.245 36.250,396.245 41.750 M69.332 33.542 C 69.150 33.840,69.001 34.178,69.001 34.295 C 69.000 34.411,68.825 34.861,68.612 35.295 C 67.408 37.740,67.044 38.589,67.181 38.639 C 67.438 38.732,67.351 38.972,67.022 39.076 C 66.843 39.133,66.567 39.545,66.372 40.046 C 65.635 41.937,65.118 43.086,64.979 43.139 C 64.899 43.169,64.833 43.323,64.833 43.481 C 64.833 43.638,64.751 43.849,64.651 43.949 C 64.551 44.049,64.496 44.270,64.528 44.441 C 64.562 44.617,64.414 44.900,64.183 45.099 C 63.922 45.323,63.815 45.546,63.884 45.724 C 64.002 46.032,64.333 46.101,64.333 45.818 C 64.333 45.718,64.478 45.452,64.656 45.226 C 64.833 45.001,64.948 44.662,64.911 44.472 C 64.870 44.260,64.987 44.009,65.214 43.819 C 65.435 43.635,65.495 43.509,65.363 43.506 C 65.197 43.501,65.208 43.435,65.405 43.238 C 65.549 43.094,65.667 42.827,65.667 42.645 C 65.667 42.461,65.743 42.361,65.837 42.419 C 65.931 42.477,65.998 42.463,65.984 42.387 C 65.919 42.011,66.019 41.658,66.165 41.749 C 66.259 41.807,66.287 41.740,66.230 41.592 C 66.176 41.450,66.214 41.333,66.316 41.333 C 66.417 41.333,66.500 41.179,66.500 40.990 C 66.500 40.801,66.575 40.693,66.667 40.750 C 66.758 40.807,66.839 40.755,66.845 40.635 C 66.885 39.871,67.019 39.438,67.289 39.195 C 67.459 39.042,67.570 38.781,67.535 38.615 C 67.500 38.449,67.622 38.183,67.805 38.024 C 67.989 37.865,68.192 37.450,68.258 37.101 C 68.341 36.659,68.420 36.535,68.519 36.692 C 68.613 36.840,68.662 36.708,68.664 36.304 C 68.666 35.966,68.779 35.578,68.917 35.440 C 69.054 35.303,69.167 35.106,69.167 35.002 C 69.167 34.898,69.242 34.860,69.333 34.917 C 69.425 34.973,69.505 34.921,69.511 34.802 C 69.552 34.035,69.685 33.565,69.909 33.401 C 70.236 33.162,70.238 33.000,69.914 33.000 C 69.775 33.000,69.513 33.244,69.332 33.542 M3.750 33.333 C 3.807 33.425,3.961 33.500,4.093 33.500 C 4.225 33.500,4.333 33.425,4.333 33.333 C 4.333 33.242,4.179 33.167,3.990 33.167 C 3.801 33.167,3.693 33.242,3.750 33.333 M4.833 33.500 C 5.162 33.712,5.548 33.712,5.417 33.500 C 5.360 33.408,5.149 33.334,4.948 33.336 C 4.652 33.338,4.630 33.369,4.833 33.500 M4.750 40.000 C 4.837 40.141,4.238 40.257,3.792 40.186 C 3.723 40.176,3.667 40.287,3.667 40.434 C 3.667 40.604,3.575 40.667,3.417 40.606 C 3.261 40.547,3.167 40.607,3.167 40.767 C 3.167 40.908,3.054 41.136,2.917 41.274 C 2.779 41.411,2.667 41.481,2.667 41.429 C 2.667 41.376,2.517 41.483,2.333 41.667 C 2.127 41.873,2.000 42.222,2.000 42.583 C 2.000 42.904,1.925 43.167,1.833 43.167 C 1.742 43.167,1.672 43.523,1.678 43.958 C 1.687 44.554,1.726 44.667,1.833 44.417 C 1.953 44.137,1.978 44.171,1.988 44.625 C 1.995 44.923,2.071 45.167,2.157 45.167 C 2.398 45.167,2.526 44.869,2.336 44.752 C 1.377 44.159,3.050 40.904,4.496 40.552 C 5.101 40.404,5.354 39.833,4.814 39.833 C 4.722 39.833,4.693 39.908,4.750 40.000 M28.681 40.902 C 28.368 41.225,28.180 41.554,28.248 41.663 C 28.313 41.768,28.237 41.997,28.079 42.171 C 27.922 42.345,27.837 42.603,27.891 42.744 C 28.046 43.147,28.333 43.043,28.333 42.583 C 28.333 42.354,28.408 42.167,28.500 42.167 C 28.592 42.167,28.667 42.021,28.667 41.842 C 28.667 41.663,28.854 41.315,29.083 41.068 C 29.887 40.200,29.511 40.046,28.681 40.902 M58.999 40.671 C 58.862 40.758,58.825 40.832,58.917 40.836 C 59.008 40.840,58.955 40.918,58.798 41.010 C 58.642 41.101,58.465 41.436,58.405 41.755 C 58.345 42.073,58.235 42.333,58.160 42.333 C 57.942 42.333,57.767 44.167,57.966 44.366 C 58.062 44.462,58.098 44.652,58.046 44.787 C 57.994 44.923,58.056 45.100,58.184 45.181 C 58.362 45.293,58.366 45.329,58.201 45.331 C 58.046 45.333,58.070 45.448,58.284 45.733 C 58.449 45.953,58.632 46.103,58.691 46.067 C 58.750 46.031,58.841 46.114,58.894 46.251 C 58.947 46.388,59.123 46.501,59.286 46.503 C 59.540 46.505,59.546 46.529,59.333 46.669 C 59.154 46.787,59.229 46.805,59.601 46.734 C 60.032 46.651,60.135 46.694,60.211 46.984 C 60.261 47.176,60.389 47.333,60.494 47.333 C 60.600 47.333,60.640 47.258,60.583 47.167 C 60.527 47.075,60.602 47.000,60.750 47.000 C 60.898 47.000,60.973 47.075,60.917 47.167 C 60.857 47.264,61.026 47.333,61.323 47.333 C 61.604 47.333,61.833 47.258,61.833 47.167 C 61.833 47.075,62.016 47.000,62.240 47.000 C 62.464 47.000,62.691 46.928,62.746 46.841 C 62.800 46.753,62.947 46.721,63.072 46.769 C 63.197 46.817,63.349 46.775,63.410 46.677 C 63.606 46.360,63.011 46.288,62.572 46.576 C 61.293 47.413,57.989 45.690,58.432 44.417 C 58.496 44.233,58.560 43.821,58.575 43.500 C 58.598 42.981,58.771 42.489,59.380 41.205 C 59.597 40.749,59.372 40.435,58.999 40.671 M53.936 41.411 C 53.788 41.637,53.667 42.009,53.667 42.238 C 53.667 42.468,53.533 42.727,53.369 42.814 C 53.204 42.903,52.937 43.422,52.770 43.980 C 52.604 44.533,52.362 45.074,52.232 45.182 C 52.102 45.290,52.012 45.462,52.033 45.564 C 52.053 45.666,51.976 45.920,51.861 46.128 C 51.745 46.337,51.692 46.572,51.741 46.653 C 51.791 46.733,51.719 46.841,51.582 46.894 C 51.445 46.947,51.333 47.095,51.333 47.224 C 51.333 47.354,51.229 47.546,51.101 47.652 C 50.973 47.759,50.904 47.984,50.948 48.153 C 50.996 48.336,50.900 48.554,50.711 48.689 C 50.536 48.814,50.261 49.329,50.098 49.833 C 49.936 50.337,49.685 50.882,49.542 51.043 C 49.398 51.204,49.335 51.391,49.404 51.459 C 49.472 51.527,49.639 51.433,49.775 51.250 C 49.912 51.067,50.103 50.939,50.199 50.965 C 50.301 50.993,50.343 50.846,50.298 50.613 C 50.246 50.340,50.324 50.149,50.543 50.012 C 50.769 49.870,50.835 49.698,50.767 49.425 C 50.673 49.049,51.005 48.560,51.213 48.769 C 51.267 48.823,51.305 48.624,51.297 48.326 C 51.287 47.999,51.391 47.703,51.557 47.582 C 51.709 47.471,51.833 47.303,51.833 47.209 C 51.833 47.115,51.945 46.823,52.082 46.561 C 52.219 46.298,52.332 45.924,52.332 45.729 C 52.333 45.328,52.710 44.939,52.917 45.126 C 52.992 45.194,53.006 45.119,52.948 44.958 C 52.886 44.783,52.925 44.666,53.047 44.664 C 53.175 44.663,53.158 44.602,53.000 44.500 C 52.833 44.392,52.819 44.338,52.958 44.336 C 53.073 44.334,53.167 44.216,53.167 44.073 C 53.167 43.921,53.245 43.862,53.358 43.932 C 53.493 44.015,53.515 43.916,53.434 43.594 C 53.341 43.223,53.383 43.122,53.660 43.050 C 53.968 42.969,54.087 42.638,54.016 42.057 C 54.003 41.951,54.179 41.717,54.407 41.537 C 54.635 41.358,54.775 41.163,54.717 41.105 C 54.503 40.892,54.198 41.011,53.936 41.411 M27.519 43.459 C 27.055 43.845,26.979 44.548,27.391 44.633 C 27.639 44.685,27.677 44.628,27.585 44.339 C 27.504 44.084,27.574 43.892,27.827 43.672 C 28.283 43.277,27.985 43.071,27.519 43.459 M26.598 45.437 C 26.099 46.330,26.081 46.432,26.408 46.557 C 26.570 46.619,26.619 46.570,26.557 46.408 C 26.506 46.275,26.547 46.167,26.649 46.167 C 26.750 46.167,26.833 46.062,26.833 45.934 C 26.833 45.807,26.946 45.659,27.083 45.606 C 27.221 45.554,27.333 45.363,27.333 45.182 C 27.333 44.561,27.029 44.666,26.598 45.437 M32.692 45.011 C 32.501 45.216,32.381 45.442,32.425 45.514 C 32.469 45.585,32.428 45.691,32.333 45.750 C 32.239 45.809,32.204 45.926,32.257 46.012 C 32.310 46.097,32.228 46.167,32.075 46.167 C 31.897 46.167,31.832 46.256,31.894 46.417 C 31.946 46.554,31.917 46.667,31.828 46.667 C 31.739 46.667,31.667 46.812,31.667 46.990 C 31.667 47.168,31.599 47.356,31.516 47.407 C 31.433 47.458,31.403 47.645,31.449 47.823 C 31.499 48.014,31.390 48.299,31.179 48.525 C 30.984 48.734,30.861 48.999,30.905 49.114 C 30.950 49.229,30.869 49.440,30.727 49.583 C 30.584 49.725,30.510 49.952,30.562 50.088 C 30.614 50.223,30.588 50.333,30.504 50.333 C 30.420 50.333,30.368 50.633,30.389 51.000 C 30.414 51.450,30.357 51.667,30.213 51.667 C 29.939 51.667,29.936 51.946,30.208 52.056 C 30.333 52.107,30.299 52.146,30.125 52.154 C 29.789 52.169,29.734 52.432,30.042 52.556 C 30.168 52.607,30.136 52.646,29.962 52.654 C 29.724 52.664,29.702 52.739,29.837 53.094 C 30.048 53.648,30.045 53.667,29.750 53.667 C 29.613 53.667,29.500 53.742,29.500 53.833 C 29.500 54.123,30.173 54.013,30.267 53.708 C 30.317 53.548,30.426 53.289,30.509 53.133 C 30.599 52.963,30.599 52.811,30.508 52.755 C 30.423 52.702,30.460 52.462,30.594 52.206 C 30.724 51.955,30.832 51.619,30.832 51.458 C 30.833 51.298,30.918 51.167,31.020 51.167 C 31.150 51.167,31.143 51.089,31.000 50.917 C 30.857 50.744,30.850 50.667,30.980 50.667 C 31.082 50.667,31.167 50.597,31.167 50.511 C 31.167 50.425,31.253 50.144,31.359 49.886 C 31.588 49.327,31.674 49.028,31.733 48.593 C 31.757 48.415,31.860 48.241,31.962 48.207 C 32.064 48.173,32.106 48.035,32.054 47.900 C 32.002 47.765,32.087 47.514,32.242 47.342 C 32.398 47.170,32.542 46.918,32.562 46.781 C 32.582 46.645,32.678 46.432,32.775 46.308 C 33.420 45.486,33.345 44.310,32.692 45.011 M2.167 45.500 C 2.167 45.592,2.242 45.667,2.333 45.667 C 2.425 45.667,2.500 45.741,2.500 45.832 C 2.500 46.164,3.237 46.833,3.601 46.833 C 3.808 46.833,4.089 46.946,4.226 47.083 C 4.443 47.301,5.924 47.333,15.530 47.331 C 21.801 47.329,26.485 47.266,26.356 47.184 C 26.164 47.063,26.164 47.026,26.356 46.950 C 26.481 46.900,21.576 46.854,15.455 46.846 L 4.327 46.833 3.664 46.415 C 3.299 46.184,2.907 45.847,2.793 45.665 C 2.578 45.319,2.167 45.211,2.167 45.500 M49.157 52.018 C 49.023 52.269,49.020 52.420,49.148 52.548 C 49.367 52.767,49.422 52.711,49.563 52.125 C 49.694 51.581,49.429 51.511,49.157 52.018 M48.673 53.067 C 48.589 53.287,48.438 53.519,48.337 53.581 C 48.236 53.644,48.197 53.832,48.250 54.000 C 48.313 54.200,48.222 54.392,47.985 54.559 C 47.776 54.705,47.663 54.916,47.717 55.057 C 47.769 55.192,47.666 55.433,47.489 55.594 C 47.312 55.754,47.167 56.008,47.167 56.159 C 47.167 56.310,47.077 56.523,46.967 56.633 C 46.857 56.743,46.816 56.833,46.875 56.833 C 46.935 56.833,46.817 57.013,46.613 57.234 C 46.409 57.454,46.078 57.960,45.878 58.359 C 45.678 58.757,45.286 59.332,45.007 59.635 C 44.728 59.939,44.500 60.227,44.500 60.275 C 44.500 60.324,44.243 60.664,43.928 61.032 C 43.415 61.632,43.282 62.267,43.700 62.128 C 43.787 62.099,43.837 62.039,43.812 61.996 C 43.694 61.795,44.408 60.851,44.531 61.045 C 44.614 61.175,44.663 61.098,44.667 60.833 C 44.671 60.494,44.704 60.463,44.847 60.667 C 44.982 60.859,44.996 60.826,44.910 60.521 C 44.773 60.037,45.185 59.682,45.363 60.131 C 45.446 60.340,45.480 60.292,45.488 59.953 C 45.495 59.698,45.612 59.446,45.750 59.394 C 45.887 59.341,46.000 59.191,46.000 59.060 C 46.000 58.930,46.112 58.780,46.250 58.727 C 46.387 58.674,46.500 58.493,46.500 58.325 C 46.500 58.157,46.576 57.973,46.669 57.915 C 46.763 57.857,46.796 57.741,46.744 57.657 C 46.692 57.573,46.803 57.339,46.991 57.137 C 47.180 56.936,47.333 56.705,47.333 56.625 C 47.333 56.546,47.398 56.520,47.477 56.569 C 47.555 56.618,47.599 56.472,47.574 56.245 C 47.546 55.983,47.652 55.746,47.864 55.597 C 48.109 55.425,48.167 55.264,48.080 54.990 C 47.984 54.686,48.013 54.636,48.239 54.723 C 48.403 54.786,48.475 54.762,48.415 54.665 C 48.359 54.574,48.402 54.500,48.510 54.500 C 48.626 54.500,48.675 54.339,48.629 54.101 C 48.579 53.840,48.659 53.626,48.860 53.481 C 49.186 53.246,49.283 52.667,48.996 52.667 C 48.902 52.667,48.757 52.847,48.673 53.067 M29.333 54.472 C 29.333 54.707,29.521 54.815,29.766 54.721 C 30.114 54.587,30.049 54.333,29.667 54.333 C 29.483 54.333,29.333 54.396,29.333 54.472 M29.348 55.157 C 29.073 55.327,29.265 56.000,29.589 56.000 C 29.717 56.000,29.900 55.853,29.996 55.674 C 30.199 55.295,29.730 54.922,29.348 55.157 M29.292 56.444 C 29.588 56.563,29.550 56.833,29.236 56.833 C 29.091 56.833,29.003 56.927,29.042 57.042 C 29.143 57.345,29.518 57.297,29.732 56.954 C 29.919 56.653,29.656 56.323,29.250 56.349 C 29.158 56.355,29.177 56.397,29.292 56.444 M29.071 58.052 C 29.078 58.253,28.993 58.399,28.881 58.377 C 28.770 58.355,28.713 58.449,28.756 58.585 C 29.005 59.382,28.999 59.375,29.234 59.180 C 29.596 58.879,29.662 58.009,29.335 57.834 C 29.116 57.717,29.062 57.762,29.071 58.052 M28.882 60.275 C 29.281 60.389,29.246 63.118,28.847 63.032 C 28.655 62.991,28.649 63.028,28.817 63.231 C 29.369 63.895,29.708 63.140,29.633 61.413 C 29.583 60.251,29.583 60.250,29.083 60.220 C 28.808 60.204,28.718 60.228,28.882 60.275 M42.700 62.533 C 42.381 62.852,42.465 63.001,42.958 62.987 C 43.210 62.980,43.323 62.936,43.208 62.890 C 43.094 62.843,43.000 62.732,43.000 62.643 C 43.000 62.554,43.075 62.527,43.167 62.583 C 43.258 62.640,43.333 62.607,43.333 62.510 C 43.333 62.272,42.947 62.286,42.700 62.533 M28.944 64.444 C 28.763 64.626,28.818 65.167,29.018 65.167 C 29.119 65.167,29.159 65.279,29.106 65.417 C 29.009 65.670,29.416 65.784,29.549 65.542 C 29.768 65.143,29.227 64.161,28.944 64.444 M39.129 66.142 C 38.909 66.404,38.509 66.755,38.240 66.922 C 37.970 67.090,37.675 67.313,37.583 67.418 C 37.179 67.880,33.322 70.323,32.702 70.509 C 31.699 70.810,29.833 69.594,29.833 68.639 C 29.833 68.455,29.642 68.467,29.333 68.669 C 29.111 68.815,29.111 68.851,29.333 68.994 C 29.579 69.152,29.602 69.209,29.648 69.792 C 29.668 70.042,29.695 70.048,29.833 69.833 C 29.980 69.606,30.073 69.715,30.018 70.048 C 29.982 70.264,30.894 70.989,31.208 70.995 C 31.369 70.998,31.500 71.079,31.500 71.176 C 31.500 71.512,33.031 71.284,33.233 70.917 C 33.334 70.733,33.439 70.548,33.467 70.505 C 33.495 70.462,33.579 70.525,33.654 70.646 C 33.761 70.819,33.856 70.796,34.103 70.539 C 34.276 70.358,34.867 69.976,35.417 69.689 C 35.967 69.402,36.323 69.167,36.208 69.167 C 36.094 69.167,36.000 69.092,36.000 69.000 C 36.000 68.908,36.178 68.833,36.396 68.833 C 36.614 68.833,36.886 68.721,37.000 68.583 C 37.114 68.446,37.330 68.327,37.479 68.320 C 37.651 68.312,37.674 68.276,37.542 68.223 C 37.195 68.083,37.308 67.803,37.666 67.916 C 37.932 68.001,37.976 67.964,37.887 67.732 C 37.800 67.507,37.840 67.467,38.063 67.552 C 38.234 67.618,38.309 67.596,38.249 67.498 C 38.193 67.407,38.230 67.333,38.331 67.333 C 38.570 67.333,39.233 66.669,39.382 66.280 C 39.459 66.079,39.602 66.010,39.805 66.074 C 40.010 66.139,40.111 66.088,40.111 65.919 C 40.111 65.506,39.559 65.632,39.129 66.142 M29.000 66.500 C 29.000 66.592,29.113 66.667,29.250 66.667 C 29.387 66.667,29.500 66.742,29.500 66.833 C 29.500 66.925,29.372 67.000,29.217 67.000 C 28.995 67.000,28.977 67.044,29.135 67.201 C 29.400 67.467,29.923 66.975,29.778 66.596 C 29.668 66.311,29.000 66.228,29.000 66.500 M29.247 67.672 C 29.182 67.777,29.207 67.941,29.303 68.037 C 29.527 68.261,30.050 68.065,29.958 67.792 C 29.866 67.513,29.394 67.434,29.247 67.672 M33.083 71.000 C 33.027 71.092,32.868 71.167,32.730 71.167 C 32.593 71.167,32.527 71.092,32.583 71.000 C 32.640 70.908,32.799 70.833,32.936 70.833 C 33.074 70.833,33.140 70.908,33.083 71.000 " stroke="none" fill="#3cd99e" fill-rule="evenodd"></path></g></svg>