<svg id="svg" version="1.1" xmlns="http://www.w3.org/2000/svg" xmlns:xlink="http://www.w3.org/1999/xlink" width="400" height="72.53333333333333" viewBox="0, 0, 400,72.53333333333333"><g id="svgg"><path id="path0" d="M305.932 20.077 L 305.167 20.821 305.167 36.334 L 305.167 51.847 305.531 52.340 C 305.732 52.611,305.976 52.833,306.075 52.833 C 306.173 52.833,306.347 52.983,306.461 53.167 C 306.711 53.566,309.066 53.657,309.698 53.292 C 310.608 52.766,311.333 51.848,311.333 51.224 C 311.333 50.870,311.482 50.953,312.123 51.667 C 312.452 52.033,312.822 52.333,312.944 52.333 C 313.066 52.333,313.167 52.405,313.167 52.492 C 313.167 52.580,313.429 52.701,313.750 52.761 C 314.071 52.821,314.333 52.919,314.333 52.978 C 314.333 53.555,321.769 53.942,321.958 53.375 C 321.997 53.260,322.209 53.167,322.431 53.167 C 322.652 53.167,322.833 53.098,322.833 53.013 C 322.833 52.929,323.058 52.810,323.333 52.750 C 323.608 52.690,323.833 52.571,323.833 52.487 C 323.833 52.402,323.931 52.333,324.051 52.333 C 324.363 52.333,326.500 50.512,326.500 50.246 C 326.500 50.195,326.594 50.041,326.708 49.904 C 326.823 49.767,326.992 49.564,327.083 49.453 C 327.344 49.135,328.333 47.086,328.333 46.863 C 328.333 46.752,328.405 46.532,328.492 46.373 C 329.395 44.730,329.392 36.364,328.489 35.667 C 328.430 35.621,328.331 35.308,328.269 34.970 C 328.207 34.633,328.102 34.333,328.036 34.304 C 327.971 34.274,327.676 33.762,327.382 33.167 C 326.587 31.556,323.876 29.003,322.958 29.001 C 322.798 29.000,322.667 28.925,322.667 28.833 C 322.667 28.742,322.532 28.667,322.367 28.667 C 322.202 28.667,321.973 28.573,321.858 28.458 C 321.707 28.306,320.798 28.250,318.500 28.250 C 316.203 28.250,315.294 28.306,315.142 28.458 C 315.027 28.573,314.798 28.667,314.633 28.667 C 314.468 28.667,314.333 28.742,314.333 28.833 C 314.333 28.925,314.193 29.000,314.022 29.000 C 313.852 29.000,313.521 29.150,313.288 29.333 C 313.055 29.517,312.813 29.667,312.751 29.667 C 312.690 29.667,312.384 29.929,312.072 30.250 C 311.761 30.571,311.467 30.833,311.420 30.833 C 311.372 30.833,311.333 28.707,311.333 26.109 C 311.333 21.099,311.307 20.904,310.501 20.039 C 310.310 19.834,310.044 19.667,309.910 19.667 C 309.776 19.667,309.667 19.592,309.667 19.500 C 309.667 19.401,309.061 19.333,308.182 19.333 L 306.697 19.333 305.932 20.077 M335.155 19.743 C 333.907 20.562,334.000 19.213,334.000 36.494 C 334.000 45.973,334.060 52.000,334.155 52.000 C 334.241 52.000,334.356 52.141,334.411 52.314 C 334.694 53.208,338.500 54.156,338.500 53.333 C 338.500 53.242,338.581 53.167,338.679 53.167 C 338.895 53.167,339.667 52.384,339.958 51.871 C 340.292 51.285,340.259 21.569,339.924 20.898 C 339.599 20.247,339.043 19.667,338.744 19.667 C 338.610 19.667,338.500 19.592,338.500 19.500 C 338.500 19.129,335.792 19.326,335.155 19.743 M353.417 28.279 C 353.142 28.323,352.845 28.428,352.758 28.513 C 352.671 28.597,352.428 28.667,352.217 28.667 C 352.006 28.667,351.833 28.742,351.833 28.833 C 351.833 28.925,351.717 29.000,351.574 29.000 C 351.103 29.000,349.355 29.919,349.117 30.292 C 349.043 30.406,348.902 30.500,348.803 30.500 C 348.568 30.500,346.589 32.498,346.451 32.875 C 346.392 33.035,346.266 33.167,346.172 33.167 C 346.077 33.167,346.000 33.243,346.000 33.337 C 346.000 33.430,345.813 33.804,345.583 34.167 C 345.354 34.530,345.167 34.911,345.167 35.013 C 345.167 35.187,345.062 35.457,344.494 36.750 C 344.191 37.439,344.068 42.935,344.327 44.167 C 344.433 44.671,344.562 45.290,344.612 45.542 C 344.663 45.794,344.765 46.000,344.839 46.000 C 344.913 46.000,345.027 46.242,345.092 46.537 C 345.156 46.833,345.387 47.356,345.605 47.701 C 345.822 48.045,346.000 48.395,346.000 48.479 C 346.000 48.563,346.113 48.674,346.250 48.727 C 346.387 48.780,346.500 48.926,346.500 49.051 C 346.500 49.177,346.781 49.551,347.125 49.882 C 347.469 50.213,347.840 50.582,347.950 50.701 C 348.305 51.083,348.648 51.333,348.818 51.333 C 348.909 51.333,349.043 51.427,349.117 51.542 C 349.273 51.786,349.793 52.135,350.208 52.274 C 350.369 52.328,350.500 52.438,350.500 52.517 C 350.500 52.597,350.800 52.711,351.167 52.769 C 351.533 52.828,351.833 52.941,351.833 53.021 C 351.833 53.101,352.015 53.167,352.236 53.167 C 352.458 53.167,352.670 53.260,352.708 53.375 C 352.761 53.534,353.720 53.583,356.750 53.583 C 359.780 53.583,360.739 53.534,360.792 53.375 C 360.830 53.260,361.042 53.167,361.264 53.167 C 361.485 53.167,361.667 53.092,361.667 53.000 C 361.667 52.908,361.841 52.833,362.054 52.833 C 362.682 52.833,365.381 50.944,366.277 49.877 C 366.720 49.349,367.121 48.879,367.167 48.833 C 367.335 48.665,367.679 48.075,367.774 47.792 C 367.828 47.631,367.938 47.500,368.019 47.500 C 368.100 47.500,368.167 47.418,368.167 47.317 C 368.167 47.216,368.272 46.897,368.400 46.609 C 368.608 46.140,368.878 45.321,369.348 43.738 C 369.557 43.036,369.544 38.547,369.333 38.417 C 369.242 38.360,369.167 38.118,369.167 37.880 C 369.167 37.318,368.647 35.667,368.470 35.667 C 368.395 35.667,368.332 35.498,368.331 35.292 C 368.328 34.504,366.053 31.494,364.836 30.667 C 364.634 30.529,364.307 30.277,364.109 30.107 C 363.796 29.836,363.015 29.446,361.500 28.804 C 361.271 28.707,360.933 28.545,360.750 28.444 C 360.412 28.257,354.404 28.122,353.417 28.279 M379.833 28.280 C 379.604 28.325,379.345 28.430,379.258 28.514 C 379.171 28.598,378.965 28.667,378.800 28.667 C 378.635 28.667,378.500 28.734,378.500 28.815 C 378.500 28.897,378.306 29.012,378.069 29.072 C 376.272 29.523,373.000 33.290,373.000 34.908 C 373.000 35.050,372.933 35.167,372.852 35.167 C 372.770 35.167,372.663 35.410,372.614 35.708 C 372.564 36.006,372.447 36.587,372.353 37.000 C 372.131 37.969,372.130 43.523,372.351 44.500 C 372.444 44.913,372.562 45.456,372.613 45.708 C 372.663 45.960,372.761 46.167,372.831 46.167 C 372.900 46.167,373.005 46.467,373.064 46.833 C 373.123 47.200,373.245 47.500,373.335 47.500 C 373.426 47.500,373.500 47.639,373.500 47.809 C 373.500 47.979,373.688 48.320,373.917 48.568 C 374.146 48.815,374.333 49.100,374.333 49.200 C 374.333 49.447,376.461 51.500,376.717 51.500 C 376.828 51.500,377.009 51.643,377.119 51.818 C 377.228 51.993,377.546 52.187,377.825 52.248 C 378.105 52.310,378.333 52.423,378.333 52.501 C 378.333 52.579,378.746 52.694,379.250 52.757 C 379.754 52.820,380.167 52.938,380.167 53.019 C 380.167 53.100,381.367 53.167,382.833 53.167 C 384.300 53.167,385.500 53.100,385.500 53.019 C 385.500 52.938,385.837 52.821,386.250 52.759 C 386.662 52.697,387.000 52.576,387.000 52.490 C 387.000 52.404,387.100 52.333,387.221 52.333 C 387.518 52.333,388.942 51.391,389.667 50.716 L 390.250 50.172 390.302 50.957 C 390.333 51.410,390.280 51.768,390.177 51.802 C 390.080 51.835,390.000 52.221,390.000 52.660 C 390.000 54.266,388.223 57.167,387.240 57.167 C 387.108 57.167,387.000 57.241,387.000 57.331 C 387.000 57.422,386.698 57.544,386.330 57.603 C 385.961 57.662,385.619 57.776,385.570 57.855 C 385.521 57.935,384.514 58.000,383.333 58.000 C 382.152 58.000,381.146 57.935,381.097 57.855 C 381.048 57.776,380.701 57.662,380.327 57.602 C 379.953 57.542,379.163 57.187,378.571 56.813 L 377.495 56.134 376.011 56.192 C 373.968 56.272,373.355 56.928,373.538 58.840 C 373.659 60.093,376.150 62.167,377.535 62.167 C 377.663 62.167,377.838 62.230,377.925 62.307 C 378.897 63.165,387.226 63.173,388.873 62.317 C 389.032 62.234,389.294 62.166,389.456 62.165 C 389.618 62.164,390.087 61.978,390.500 61.752 C 390.912 61.526,391.381 61.293,391.542 61.235 C 391.702 61.176,391.833 61.062,391.833 60.981 C 391.833 60.900,391.927 60.833,392.042 60.833 C 392.319 60.833,393.477 59.750,394.090 58.917 C 394.360 58.550,394.619 58.212,394.666 58.166 C 394.978 57.856,395.595 56.404,395.931 55.188 L 396.329 53.750 396.331 42.219 C 396.334 29.538,396.385 30.147,395.224 29.050 L 394.465 28.333 393.181 28.333 C 392.127 28.333,391.832 28.393,391.538 28.667 C 391.342 28.850,391.102 29.000,391.007 29.000 C 390.911 29.000,390.833 29.106,390.833 29.236 C 390.833 29.366,390.745 29.502,390.636 29.538 C 390.528 29.574,390.396 29.964,390.344 30.403 L 390.250 31.203 389.465 30.439 C 388.688 29.682,387.619 29.000,387.211 29.000 C 387.095 29.000,387.000 28.925,387.000 28.833 C 387.000 28.742,386.865 28.667,386.700 28.667 C 386.535 28.667,386.306 28.573,386.192 28.458 C 385.982 28.248,380.751 28.101,379.833 28.280 M318.500 33.833 C 318.500 33.925,318.653 34.000,318.839 34.000 C 319.147 34.000,319.960 34.418,320.167 34.682 C 320.212 34.741,320.404 34.836,320.592 34.895 C 320.780 34.954,321.118 35.299,321.342 35.663 C 321.566 36.027,321.806 36.326,321.875 36.329 C 321.944 36.331,322.000 36.446,322.000 36.583 C 322.000 36.721,322.067 36.833,322.148 36.833 C 322.230 36.833,322.344 37.090,322.403 37.405 C 322.462 37.719,322.602 38.006,322.714 38.043 C 322.989 38.135,323.002 43.509,322.728 43.849 C 322.624 43.978,322.486 44.327,322.423 44.625 C 322.359 44.923,322.254 45.167,322.189 45.167 C 322.125 45.167,321.929 45.408,321.754 45.704 C 321.378 46.342,320.337 47.331,320.042 47.333 C 319.927 47.333,319.833 47.405,319.833 47.492 C 319.833 47.580,319.570 47.701,319.248 47.761 C 318.926 47.822,318.622 47.938,318.572 48.019 C 318.453 48.210,315.215 48.213,315.097 48.022 C 315.047 47.942,314.783 47.832,314.509 47.777 C 313.809 47.637,311.928 46.372,311.604 45.824 C 311.372 45.432,311.333 44.727,311.333 40.951 L 311.333 36.536 312.180 35.685 C 312.646 35.216,313.127 34.833,313.250 34.833 C 313.372 34.833,313.497 34.777,313.528 34.708 C 313.620 34.501,314.671 34.000,315.014 34.000 C 315.189 34.000,315.333 33.925,315.333 33.833 C 315.333 33.734,315.972 33.667,316.917 33.667 C 317.861 33.667,318.500 33.734,318.500 33.833 M358.333 33.833 C 358.333 33.925,358.479 34.000,358.657 34.000 C 358.835 34.000,359.022 34.067,359.072 34.148 C 359.122 34.230,359.354 34.344,359.586 34.402 C 360.020 34.511,362.000 36.368,362.000 36.667 C 362.000 36.758,362.067 36.833,362.148 36.833 C 362.230 36.833,362.344 37.090,362.403 37.405 C 362.462 37.719,362.602 38.006,362.714 38.043 C 362.863 38.093,362.917 38.859,362.917 40.917 C 362.917 42.974,362.863 43.740,362.714 43.790 C 362.602 43.827,362.462 44.115,362.403 44.429 C 362.344 44.743,362.230 45.000,362.148 45.000 C 362.067 45.000,362.000 45.100,362.000 45.221 C 362.000 45.482,360.115 47.333,359.849 47.333 C 359.749 47.333,359.667 47.405,359.667 47.492 C 359.667 47.580,359.403 47.701,359.081 47.761 C 358.760 47.822,358.455 47.938,358.405 48.019 C 358.286 48.212,355.048 48.212,354.928 48.019 C 354.878 47.938,354.574 47.822,354.254 47.762 C 350.877 47.128,349.176 40.298,351.470 36.583 C 352.209 35.386,353.966 34.000,354.743 34.000 C 354.885 34.000,355.000 33.925,355.000 33.833 C 355.000 33.733,355.667 33.667,356.667 33.667 C 357.667 33.667,358.333 33.733,358.333 33.833 M386.000 33.833 C 386.000 33.925,386.144 34.000,386.320 34.000 C 386.660 34.000,387.584 34.445,387.963 34.792 C 388.088 34.906,388.265 35.000,388.356 35.000 C 388.447 35.000,388.929 35.414,389.428 35.920 L 390.333 36.841 390.329 40.712 L 390.324 44.583 389.370 45.511 C 388.832 46.035,387.981 46.642,387.417 46.905 C 386.867 47.161,386.286 47.437,386.127 47.519 C 385.751 47.711,383.082 47.711,382.706 47.518 C 382.547 47.437,382.119 47.231,381.755 47.060 C 380.714 46.573,379.811 45.746,379.457 44.958 C 379.344 44.706,379.204 44.500,379.145 44.500 C 379.085 44.500,378.985 44.219,378.920 43.875 C 378.856 43.531,378.725 43.155,378.629 43.039 C 377.591 41.783,379.036 36.059,380.649 35.034 C 380.888 34.882,381.121 34.717,381.167 34.667 C 381.417 34.393,382.200 34.000,382.494 34.000 C 382.681 34.000,382.833 33.925,382.833 33.833 C 382.833 33.734,383.472 33.667,384.417 33.667 C 385.361 33.667,386.000 33.734,386.000 33.833 " stroke="none" fill="#fbfbfb" fill-rule="evenodd"></path><path id="path1" d="M56.333 2.701 C 56.333 2.774,56.146 2.833,55.917 2.833 C 55.688 2.833,55.500 2.904,55.500 2.990 C 55.500 3.076,55.163 3.197,54.750 3.259 C 54.337 3.321,54.000 3.438,54.000 3.519 C 54.000 3.698,53.556 3.717,53.458 3.542 C 53.419 3.473,53.410 3.509,53.438 3.622 C 53.507 3.909,52.883 4.234,52.792 3.958 C 52.723 3.751,52.108 4.233,52.063 4.530 C 52.051 4.605,52.032 4.734,52.021 4.816 C 52.009 4.897,51.879 5.011,51.731 5.067 C 51.532 5.144,51.490 5.100,51.569 4.895 C 51.658 4.661,51.635 4.652,51.413 4.837 C 51.213 5.002,51.200 5.084,51.356 5.181 C 51.632 5.351,51.245 5.833,50.832 5.833 C 50.513 5.833,50.000 6.498,50.000 6.911 C 50.000 7.052,49.887 7.167,49.750 7.167 C 49.612 7.167,49.500 7.239,49.500 7.328 C 49.500 7.417,49.631 7.448,49.792 7.398 C 49.957 7.346,49.885 7.462,49.625 7.667 C 49.149 8.042,49.013 8.496,49.375 8.505 C 49.513 8.509,49.493 8.580,49.319 8.714 C 49.173 8.825,49.087 9.015,49.128 9.136 C 49.169 9.258,49.043 9.397,48.841 9.450 C 48.601 9.513,48.514 9.630,48.580 9.803 C 48.642 9.963,48.508 10.209,48.231 10.447 C 47.803 10.815,47.799 10.833,48.141 10.833 C 48.338 10.833,48.498 10.890,48.495 10.958 C 48.486 11.161,48.059 11.667,47.897 11.667 C 47.814 11.667,47.648 11.825,47.528 12.017 C 47.407 12.210,47.389 12.318,47.488 12.258 C 47.592 12.193,47.667 12.285,47.667 12.479 C 47.667 12.668,47.518 12.858,47.322 12.920 C 46.992 13.025,46.990 13.040,47.280 13.262 C 47.569 13.483,47.565 13.500,47.208 13.600 C 47.002 13.658,46.833 13.809,46.833 13.936 C 46.833 14.063,46.721 14.167,46.583 14.167 C 46.282 14.167,46.247 14.769,46.542 14.893 C 46.680 14.951,46.576 15.139,46.236 15.449 C 45.747 15.894,45.311 16.636,45.669 16.415 C 45.759 16.359,45.833 16.468,45.833 16.657 C 45.833 16.846,45.758 17.000,45.667 17.000 C 45.575 17.000,45.500 17.104,45.500 17.231 C 45.500 17.358,45.297 17.595,45.048 17.758 C 44.644 18.023,44.628 18.065,44.902 18.161 C 45.184 18.260,45.187 18.290,44.937 18.539 C 44.788 18.688,44.667 18.890,44.667 18.988 C 44.667 19.086,44.554 19.167,44.417 19.167 C 44.279 19.167,44.167 19.279,44.167 19.417 C 44.167 19.554,44.251 19.667,44.354 19.667 C 44.483 19.667,44.477 19.744,44.333 19.917 C 44.219 20.054,44.023 20.167,43.896 20.167 C 43.770 20.167,43.667 20.279,43.667 20.417 C 43.667 20.554,43.742 20.667,43.833 20.667 C 44.112 20.667,44.019 21.003,43.708 21.121 C 43.375 21.247,42.911 21.667,43.105 21.667 C 43.175 21.667,43.143 21.757,43.033 21.867 C 42.760 22.140,42.781 22.343,43.071 22.232 C 43.245 22.165,43.285 22.234,43.218 22.487 C 43.169 22.677,43.005 22.834,42.856 22.835 C 42.520 22.837,41.932 24.116,42.222 24.213 C 42.363 24.260,42.361 24.391,42.211 24.718 C 42.088 24.988,41.919 25.125,41.777 25.071 C 41.637 25.017,41.509 25.114,41.457 25.311 C 41.396 25.545,41.438 25.616,41.602 25.553 C 41.729 25.504,41.833 25.547,41.833 25.649 C 41.833 25.819,41.605 25.904,41.287 25.852 C 41.050 25.813,40.948 26.365,41.167 26.500 C 41.460 26.682,41.234 27.228,40.915 27.106 C 40.779 27.053,40.657 27.083,40.646 27.172 C 40.634 27.261,40.611 27.427,40.594 27.542 C 40.577 27.656,40.618 27.825,40.684 27.917 C 40.834 28.124,40.520 28.565,40.114 28.717 C 39.948 28.780,39.854 28.898,39.904 28.980 C 39.955 29.062,39.885 29.222,39.748 29.335 C 39.612 29.448,39.500 29.667,39.500 29.820 C 39.500 29.974,39.406 30.194,39.292 30.310 C 39.125 30.478,39.141 30.498,39.375 30.409 C 39.711 30.281,39.739 30.388,39.488 30.855 C 39.351 31.111,39.258 31.145,39.085 31.001 C 38.830 30.790,38.819 31.078,39.067 31.476 C 39.174 31.647,39.129 31.677,38.882 31.599 C 38.659 31.528,38.556 31.573,38.556 31.740 C 38.556 31.875,38.626 31.942,38.712 31.888 C 38.950 31.742,38.665 32.859,38.396 33.127 C 38.270 33.254,38.166 33.296,38.164 33.220 C 38.163 33.145,38.092 33.193,38.007 33.328 C 37.910 33.482,37.916 33.649,38.025 33.780 C 38.221 34.016,37.622 34.998,37.280 35.003 C 37.136 35.004,37.138 35.040,37.289 35.136 C 37.448 35.237,37.433 35.354,37.226 35.650 C 37.015 35.951,36.927 35.985,36.815 35.809 C 36.704 35.634,36.671 35.649,36.669 35.875 C 36.668 36.035,36.742 36.167,36.833 36.167 C 37.108 36.167,37.024 36.490,36.604 37.053 C 36.386 37.345,36.159 37.860,36.098 38.199 C 36.026 38.604,35.876 38.850,35.661 38.919 C 35.426 38.993,35.333 39.173,35.331 39.553 C 35.329 39.907,35.281 40.009,35.187 39.861 C 35.073 39.681,35.028 39.686,34.949 39.892 C 34.896 40.031,34.941 40.175,35.051 40.211 C 35.278 40.287,34.716 41.483,34.393 41.612 C 34.289 41.654,34.241 41.833,34.288 42.010 C 34.382 42.369,33.898 43.226,33.678 43.091 C 33.601 43.043,33.500 43.149,33.453 43.327 C 33.407 43.505,33.455 43.681,33.559 43.719 C 33.678 43.762,33.609 43.941,33.375 44.196 C 33.169 44.421,33.000 44.769,33.000 44.969 C 33.000 45.169,32.925 45.333,32.833 45.333 C 32.742 45.333,32.661 45.465,32.655 45.625 C 32.645 45.877,32.622 45.871,32.486 45.583 C 32.370 45.335,32.353 45.410,32.422 45.875 C 32.479 46.258,32.448 46.500,32.341 46.500 C 32.245 46.500,32.167 46.650,32.167 46.833 C 32.167 47.017,32.084 47.167,31.982 47.167 C 31.881 47.167,31.838 47.271,31.887 47.398 C 31.935 47.526,31.827 47.790,31.645 47.985 C 31.463 48.181,31.337 48.507,31.365 48.710 C 31.393 48.913,31.329 49.081,31.222 49.082 C 31.115 49.083,30.965 49.152,30.889 49.235 C 30.808 49.323,30.837 49.337,30.958 49.267 C 31.204 49.126,31.244 49.432,31.000 49.583 C 30.908 49.640,30.833 49.928,30.833 50.223 C 30.833 50.518,30.714 50.930,30.568 51.139 C 30.403 51.374,30.341 51.674,30.405 51.929 C 30.477 52.215,30.430 52.371,30.254 52.438 C 30.102 52.497,29.999 52.746,29.997 53.059 C 29.995 53.475,29.958 53.532,29.818 53.333 C 29.687 53.148,29.661 53.287,29.717 53.878 C 29.759 54.314,29.727 54.713,29.646 54.762 C 29.566 54.812,29.500 55.116,29.500 55.436 C 29.500 55.783,29.432 55.978,29.333 55.917 C 29.112 55.780,29.112 57.587,29.333 58.000 C 29.448 58.213,29.439 58.459,29.307 58.781 C 29.033 59.448,29.008 64.460,29.276 64.987 C 29.413 65.255,29.429 65.488,29.324 65.684 C 29.114 66.076,29.122 67.833,29.333 67.833 C 29.425 67.833,29.500 68.058,29.500 68.333 C 29.500 68.608,29.575 68.833,29.667 68.833 C 29.758 68.833,29.833 68.946,29.833 69.083 C 29.833 69.221,29.765 69.333,29.682 69.333 C 29.599 69.333,29.570 69.481,29.617 69.661 C 29.664 69.841,29.751 69.982,29.810 69.974 C 30.232 69.920,30.649 70.432,30.536 70.867 C 30.466 71.137,32.960 70.867,33.745 70.519 C 34.382 70.238,34.588 70.205,34.694 70.371 C 34.821 70.571,34.910 70.351,34.857 69.970 C 34.829 69.770,35.856 68.994,36.017 69.094 C 36.102 69.147,36.126 69.265,36.069 69.357 C 36.012 69.449,36.123 69.426,36.316 69.306 C 36.703 69.064,36.777 68.833,36.467 68.833 C 36.322 68.833,36.328 68.775,36.488 68.625 C 36.664 68.458,36.724 68.458,36.785 68.625 C 36.887 68.905,37.167 68.891,37.167 68.606 C 37.167 68.186,37.846 67.500,38.261 67.500 C 38.563 67.500,38.737 67.344,38.958 66.875 C 39.152 66.461,39.382 66.232,39.637 66.195 C 40.054 66.136,43.372 63.000,43.018 63.000 C 42.901 63.000,42.838 62.906,42.878 62.792 C 42.918 62.677,43.069 62.604,43.213 62.629 C 43.520 62.683,43.719 62.414,43.798 61.836 C 43.866 61.342,43.884 61.321,44.276 61.263 C 44.445 61.238,44.593 61.150,44.606 61.067 C 44.686 60.530,44.906 60.159,45.100 60.233 C 45.222 60.280,45.367 60.247,45.421 60.159 C 45.475 60.072,45.443 60.000,45.348 60.000 C 45.254 60.000,45.220 59.887,45.273 59.750 C 45.326 59.612,45.511 59.500,45.684 59.500 C 45.961 59.500,46.089 59.230,46.020 58.792 C 46.009 58.723,46.094 58.685,46.208 58.708 C 46.333 58.733,46.438 58.531,46.469 58.203 C 46.499 57.897,46.657 57.571,46.828 57.465 C 46.996 57.360,47.097 57.179,47.053 57.064 C 47.008 56.948,47.118 56.762,47.297 56.651 C 47.509 56.518,47.591 56.332,47.534 56.112 C 47.467 55.855,47.509 55.801,47.715 55.880 C 47.912 55.956,47.956 55.912,47.880 55.714 C 47.816 55.547,47.844 55.487,47.954 55.555 C 48.052 55.615,48.173 55.558,48.223 55.426 C 48.273 55.295,48.225 55.158,48.116 55.121 C 47.969 55.072,47.978 54.980,48.152 54.769 C 48.339 54.543,48.418 54.528,48.539 54.700 C 48.638 54.840,48.660 54.710,48.601 54.333 C 48.513 53.764,48.824 53.047,49.058 53.280 C 49.118 53.340,49.167 53.270,49.167 53.125 C 49.167 52.980,49.251 52.833,49.353 52.799 C 49.456 52.765,49.570 52.404,49.606 51.997 C 49.654 51.468,49.789 51.162,50.081 50.920 C 50.383 50.670,50.501 50.390,50.536 49.833 C 50.575 49.212,50.640 49.083,50.914 49.083 C 51.289 49.083,51.452 48.594,51.185 48.272 C 51.054 48.115,51.159 47.901,51.588 47.446 C 52.165 46.834,52.332 46.545,51.983 46.761 C 51.882 46.823,51.921 46.688,52.070 46.461 C 52.219 46.233,52.302 45.943,52.256 45.815 C 52.146 45.519,52.317 45.269,52.802 45.014 C 53.050 44.883,53.175 44.681,53.151 44.447 C 53.090 43.826,53.347 43.196,53.777 42.914 C 54.095 42.706,54.147 42.593,54.003 42.420 C 53.888 42.281,53.878 42.159,53.978 42.097 C 54.066 42.043,54.177 42.092,54.224 42.207 C 54.272 42.322,54.269 42.173,54.218 41.875 C 54.159 41.530,54.193 41.333,54.313 41.333 C 54.416 41.333,54.500 41.217,54.500 41.075 C 54.500 40.933,54.706 40.627,54.958 40.395 C 55.210 40.163,55.322 40.021,55.207 40.080 C 55.092 40.139,54.952 40.070,54.897 39.925 C 54.777 39.612,55.139 39.120,55.413 39.226 C 55.519 39.266,55.688 39.082,55.789 38.817 C 55.942 38.411,55.929 38.333,55.710 38.333 C 55.478 38.333,55.479 38.299,55.724 38.029 C 55.876 37.861,56.000 37.598,56.000 37.445 C 56.000 37.278,56.133 37.167,56.333 37.167 C 56.574 37.167,56.667 37.056,56.667 36.768 C 56.667 36.548,56.791 36.321,56.942 36.263 C 57.191 36.168,57.187 36.133,56.901 35.912 C 56.564 35.652,56.996 35.041,57.358 35.265 C 57.436 35.313,57.500 35.169,57.500 34.944 C 57.500 34.709,57.624 34.488,57.792 34.423 C 58.060 34.320,58.062 34.299,57.807 34.156 C 57.420 33.938,57.612 33.354,58.111 33.228 C 58.447 33.144,58.508 33.038,58.466 32.605 C 58.433 32.252,58.485 32.097,58.628 32.126 C 58.776 32.156,58.808 32.042,58.735 31.751 C 58.656 31.433,58.695 31.333,58.903 31.333 C 59.245 31.333,59.533 30.605,59.400 30.076 C 59.320 29.756,59.386 29.635,59.733 29.477 C 59.972 29.369,60.167 29.204,60.167 29.111 C 60.167 29.019,60.294 28.803,60.449 28.631 C 60.716 28.336,60.714 28.326,60.420 28.438 C 60.171 28.534,60.131 28.500,60.221 28.265 C 60.283 28.104,60.333 27.820,60.333 27.634 C 60.333 27.376,60.414 27.316,60.667 27.382 C 60.997 27.468,61.144 27.197,61.146 26.500 C 61.148 25.919,61.300 25.628,61.761 25.324 C 62.105 25.098,62.165 25.002,61.964 25.001 C 61.789 25.000,61.712 24.910,61.765 24.770 C 61.880 24.472,62.626 24.788,62.756 25.190 C 62.851 25.484,63.320 25.661,64.016 25.664 C 65.252 25.671,65.853 26.426,65.154 27.095 C 64.837 27.399,64.667 27.729,64.667 28.041 C 64.667 28.304,64.599 28.478,64.516 28.426 C 64.432 28.375,64.407 28.495,64.459 28.694 C 64.528 28.960,64.425 29.158,64.068 29.444 C 63.783 29.672,63.683 29.832,63.825 29.833 C 64.013 29.833,64.022 29.878,63.867 30.033 C 63.757 30.143,63.667 30.438,63.667 30.688 C 63.667 30.978,63.511 31.265,63.237 31.481 C 62.930 31.722,62.837 31.914,62.912 32.151 C 62.981 32.369,62.900 32.600,62.675 32.825 C 62.487 33.013,62.333 33.284,62.333 33.428 C 62.333 33.917,61.982 34.407,61.818 34.148 C 61.698 33.958,61.671 33.962,61.669 34.175 C 61.668 34.317,61.759 34.526,61.872 34.639 C 62.035 34.802,62.003 34.864,61.717 34.939 C 61.474 35.002,61.389 35.118,61.457 35.294 C 61.515 35.446,61.487 35.512,61.389 35.451 C 61.292 35.391,61.222 35.558,61.222 35.854 C 61.222 36.207,61.075 36.486,60.736 36.775 C 60.469 37.004,60.356 37.136,60.487 37.068 C 60.667 36.974,60.694 37.021,60.600 37.264 C 60.532 37.440,60.435 37.791,60.383 38.046 C 60.332 38.300,60.071 38.664,59.803 38.855 C 59.366 39.166,59.345 39.221,59.594 39.404 C 59.896 39.624,59.483 40.279,59.165 40.082 C 58.965 39.958,58.791 40.603,58.917 41.001 C 58.988 41.226,58.935 41.369,58.752 41.439 C 58.603 41.496,58.519 41.643,58.566 41.766 C 58.614 41.889,58.580 42.034,58.493 42.088 C 58.405 42.142,58.333 42.326,58.333 42.496 C 58.333 42.666,58.248 42.834,58.143 42.869 C 58.000 42.917,58.000 43.022,58.144 43.290 C 58.359 43.694,58.079 44.569,57.791 44.391 C 57.624 44.287,57.714 44.713,58.036 45.553 C 58.150 45.850,58.260 45.951,58.336 45.828 C 58.418 45.697,58.596 45.785,58.890 46.102 C 59.165 46.398,59.258 46.610,59.144 46.681 C 59.017 46.759,59.018 46.825,59.149 46.906 C 59.250 46.968,59.409 46.973,59.501 46.916 C 59.763 46.754,60.326 46.992,60.236 47.226 C 60.122 47.523,61.256 47.458,62.031 47.124 C 62.369 46.978,62.800 46.900,62.990 46.949 C 63.193 47.002,63.333 46.959,63.333 46.843 C 63.333 46.735,63.403 46.690,63.488 46.743 C 63.573 46.795,63.691 46.687,63.749 46.502 C 63.808 46.318,63.972 46.167,64.114 46.167 C 64.287 46.167,64.344 46.061,64.288 45.846 C 64.229 45.621,64.273 45.551,64.436 45.614 C 64.589 45.672,64.676 45.570,64.695 45.309 C 64.755 44.489,64.793 44.239,64.914 43.875 C 64.983 43.669,65.105 43.500,65.186 43.500 C 65.488 43.500,65.588 43.422,65.792 43.030 C 66.053 42.526,66.057 42.213,65.803 42.129 C 65.535 42.039,65.755 41.519,66.121 41.379 C 66.425 41.263,66.985 40.676,66.994 40.464 C 66.998 40.398,66.887 40.387,66.750 40.440 C 66.592 40.500,66.500 40.437,66.500 40.268 C 66.500 40.112,66.638 40.000,66.830 40.000 C 67.052 40.000,67.198 39.849,67.274 39.542 C 67.337 39.290,67.507 38.992,67.653 38.880 C 67.798 38.769,67.858 38.675,67.786 38.672 C 67.714 38.669,67.735 38.517,67.833 38.333 C 67.976 38.067,67.960 38.000,67.756 38.000 C 67.615 38.000,67.500 37.957,67.500 37.905 C 67.500 37.734,68.057 37.248,68.155 37.333 C 68.207 37.379,68.274 37.248,68.303 37.042 C 68.333 36.835,68.426 36.667,68.512 36.667 C 68.597 36.667,68.667 36.587,68.667 36.490 C 68.667 36.393,68.592 36.360,68.500 36.417 C 68.232 36.582,68.308 35.895,68.583 35.667 C 68.756 35.523,68.833 35.517,68.833 35.646 C 68.833 35.979,69.095 35.844,69.121 35.498 C 69.135 35.314,69.263 35.046,69.406 34.903 C 69.745 34.564,69.754 34.220,69.417 34.500 C 69.212 34.670,69.167 34.659,69.167 34.437 C 69.167 34.288,69.272 34.167,69.401 34.167 C 69.549 34.167,69.605 34.050,69.553 33.852 C 69.508 33.679,69.565 33.479,69.680 33.408 C 69.828 33.317,69.859 33.361,69.784 33.556 C 69.577 34.093,69.831 33.825,70.184 33.132 C 70.420 32.669,70.478 32.409,70.354 32.368 C 70.129 32.293,70.100 31.667,70.321 31.667 C 70.638 31.667,71.000 31.127,71.000 30.655 C 71.000 30.386,71.075 30.167,71.167 30.167 C 71.258 30.167,71.339 29.998,71.345 29.792 C 71.355 29.470,71.374 29.459,71.475 29.717 C 71.572 29.962,71.632 29.911,71.805 29.432 C 72.279 28.121,72.411 27.211,72.168 26.919 C 72.015 26.733,72.010 26.545,72.149 26.145 C 72.397 25.436,72.381 25.159,72.100 25.267 C 71.793 25.385,71.578 25.022,71.815 24.785 C 71.917 24.683,71.994 24.446,71.987 24.258 C 71.980 24.070,71.936 24.010,71.890 24.125 C 71.843 24.240,71.737 24.333,71.653 24.333 C 71.427 24.333,71.467 23.705,71.698 23.628 C 71.836 23.583,71.804 23.439,71.594 23.156 C 71.428 22.933,71.335 22.877,71.388 23.033 C 71.520 23.426,71.137 23.257,70.849 22.796 C 70.696 22.551,70.680 22.412,70.801 22.372 C 71.135 22.261,70.801 21.833,70.381 21.833 C 70.076 21.833,69.991 21.765,70.062 21.580 C 70.115 21.440,70.015 21.182,69.840 21.007 C 69.664 20.831,69.497 20.759,69.468 20.847 C 69.382 21.105,68.534 20.623,68.345 20.208 C 68.251 20.002,68.041 19.825,67.879 19.816 C 67.716 19.806,67.471 19.781,67.333 19.761 C 67.196 19.740,66.907 19.711,66.691 19.695 C 66.403 19.674,66.325 19.595,66.401 19.398 C 66.474 19.206,66.432 19.157,66.252 19.226 C 66.106 19.282,66.000 19.231,66.000 19.105 C 66.000 18.970,65.769 18.879,65.387 18.864 C 64.767 18.841,64.149 18.500,64.727 18.500 C 64.888 18.500,64.977 18.431,64.925 18.348 C 64.874 18.264,64.925 18.157,65.041 18.111 C 65.167 18.060,65.134 18.021,64.958 18.013 C 64.798 18.006,64.667 17.933,64.667 17.851 C 64.667 17.701,65.158 17.429,65.359 17.468 C 65.419 17.480,65.509 17.383,65.559 17.253 C 65.619 17.097,65.568 17.048,65.408 17.110 C 65.027 17.256,65.111 16.541,65.500 16.333 C 65.683 16.235,65.834 16.214,65.836 16.286 C 65.837 16.358,65.912 16.304,66.002 16.167 C 66.092 16.029,66.125 15.720,66.075 15.480 C 66.001 15.129,66.058 15.019,66.367 14.921 C 66.688 14.818,66.703 14.785,66.458 14.720 C 66.298 14.677,66.167 14.584,66.167 14.513 C 66.167 14.253,66.696 13.333,66.846 13.333 C 66.930 13.333,67.000 13.221,67.000 13.083 C 67.000 12.946,66.919 12.833,66.819 12.833 C 66.720 12.833,66.673 12.740,66.715 12.625 C 66.757 12.510,66.870 12.433,66.965 12.454 C 67.067 12.475,67.162 12.045,67.194 11.412 C 67.225 10.818,67.194 10.333,67.125 10.333 C 67.056 10.333,67.000 10.148,67.000 9.922 C 67.000 9.625,66.931 9.537,66.750 9.606 C 66.612 9.659,66.500 9.619,66.500 9.518 C 66.500 9.416,66.575 9.333,66.667 9.333 C 66.758 9.333,66.825 9.127,66.814 8.875 C 66.802 8.593,66.765 8.529,66.718 8.708 C 66.625 9.064,66.167 9.099,66.167 8.750 C 66.167 8.612,66.242 8.500,66.333 8.500 C 66.425 8.500,66.500 8.387,66.500 8.250 C 66.500 8.112,66.400 8.000,66.278 8.000 C 66.142 8.000,66.056 7.806,66.056 7.502 C 66.056 7.200,65.915 6.882,65.697 6.693 C 65.501 6.523,65.388 6.334,65.447 6.275 C 65.507 6.215,65.406 6.167,65.222 6.167 C 64.773 6.167,64.630 5.995,64.855 5.724 C 65.001 5.549,64.964 5.500,64.687 5.500 C 64.493 5.500,64.333 5.421,64.333 5.323 C 64.333 5.226,64.427 5.203,64.542 5.272 C 64.836 5.449,64.310 4.788,64.000 4.591 C 63.862 4.504,63.603 4.429,63.422 4.425 C 63.242 4.420,63.007 4.242,62.900 4.028 C 62.636 3.501,62.333 3.201,62.333 3.467 C 62.333 3.758,61.804 3.711,61.329 3.378 C 61.102 3.219,60.792 3.110,60.640 3.136 C 60.487 3.162,60.314 3.104,60.255 3.008 C 60.196 2.912,59.922 2.833,59.647 2.833 C 59.372 2.833,59.182 2.777,59.224 2.708 C 59.267 2.640,58.634 2.580,57.817 2.576 C 57.001 2.572,56.333 2.628,56.333 2.701 M105.833 20.833 C 105.696 20.914,105.380 21.023,105.132 21.075 C 104.884 21.127,104.471 21.363,104.215 21.601 L 103.750 22.032 103.661 26.891 C 103.611 29.563,103.555 31.656,103.536 31.542 C 103.516 31.427,103.388 31.333,103.250 31.333 C 103.112 31.333,103.000 31.216,103.000 31.073 C 103.000 30.931,102.925 30.860,102.833 30.917 C 102.742 30.973,102.667 30.949,102.667 30.863 C 102.667 30.777,102.254 30.498,101.750 30.243 C 101.246 29.988,100.833 29.716,100.833 29.639 C 100.833 29.563,100.652 29.500,100.431 29.500 C 100.209 29.500,99.997 29.406,99.958 29.292 C 99.848 28.960,93.990 28.998,93.577 29.333 C 93.408 29.471,93.317 29.503,93.376 29.405 C 93.435 29.306,93.093 29.417,92.616 29.650 C 92.140 29.884,91.725 30.133,91.694 30.204 C 91.664 30.275,91.572 30.333,91.491 30.333 C 91.191 30.333,89.833 31.406,89.833 31.643 C 89.833 31.778,89.784 31.839,89.723 31.778 C 89.623 31.679,89.443 31.899,88.794 32.913 C 88.678 33.094,88.471 33.335,88.333 33.449 C 88.196 33.563,88.149 33.658,88.229 33.661 C 88.309 33.664,88.275 33.787,88.153 33.933 C 87.924 34.209,87.885 34.321,87.724 35.166 C 87.672 35.441,87.570 35.667,87.499 35.667 C 87.428 35.667,87.312 35.873,87.242 36.125 C 87.172 36.377,87.078 36.696,87.033 36.833 C 86.881 37.298,86.832 43.714,86.978 43.899 C 87.058 44.001,87.103 44.214,87.077 44.374 C 87.051 44.534,87.098 44.708,87.182 44.759 C 87.265 44.811,87.333 45.078,87.333 45.353 C 87.333 45.644,87.403 45.810,87.500 45.750 C 87.592 45.693,87.667 45.800,87.667 45.988 C 87.667 46.400,88.473 48.101,88.924 48.639 C 89.103 48.853,89.419 49.228,89.625 49.472 C 89.831 49.717,90.000 49.973,90.000 50.042 C 90.000 50.110,90.116 50.167,90.258 50.167 C 90.400 50.167,90.690 50.354,90.902 50.583 C 91.114 50.813,91.373 51.000,91.477 51.000 C 91.582 51.000,91.667 51.072,91.667 51.159 C 91.667 51.247,91.929 51.367,92.250 51.428 C 92.571 51.488,92.833 51.595,92.833 51.666 C 92.833 51.737,93.002 51.848,93.208 51.914 C 93.415 51.980,93.733 52.083,93.917 52.142 C 94.467 52.320,99.833 52.268,99.965 52.083 C 100.126 51.857,100.781 51.500,101.039 51.498 C 101.155 51.497,101.579 51.235,101.982 50.915 C 102.384 50.595,102.778 50.333,102.857 50.333 C 102.936 50.333,103.000 50.230,103.000 50.103 C 103.000 49.976,103.150 49.833,103.333 49.785 C 103.613 49.712,103.667 49.780,103.667 50.208 C 103.667 50.776,104.377 51.833,104.758 51.833 C 104.891 51.833,105.000 51.908,105.000 52.000 C 105.000 52.092,105.442 52.167,105.992 52.167 C 106.977 52.167,107.833 51.917,107.833 51.630 C 107.833 51.548,107.913 51.530,108.011 51.590 C 108.109 51.651,108.230 51.544,108.280 51.352 C 108.330 51.160,108.432 51.041,108.507 51.088 C 108.677 51.193,108.913 50.522,108.852 50.107 C 108.824 49.920,108.878 49.841,108.986 49.908 C 109.115 49.988,109.167 46.175,109.167 36.593 C 109.167 27.142,109.114 23.167,108.988 23.167 C 108.889 23.167,108.839 23.035,108.875 22.875 C 108.968 22.463,108.563 21.709,108.184 21.589 C 108.008 21.533,107.822 21.378,107.771 21.244 C 107.718 21.106,107.463 21.000,107.182 21.000 C 106.909 21.000,106.640 20.925,106.583 20.833 C 106.460 20.633,106.174 20.633,105.833 20.833 M161.076 21.159 C 160.888 21.235,160.532 21.604,160.284 21.978 L 159.833 22.660 159.833 36.663 C 159.833 45.888,159.890 50.667,160.000 50.667 C 160.092 50.667,160.167 50.747,160.167 50.845 C 160.167 51.080,160.592 51.500,160.831 51.500 C 160.935 51.500,160.973 51.575,160.917 51.667 C 160.860 51.758,160.931 51.833,161.073 51.833 C 161.216 51.833,161.333 51.908,161.333 52.000 C 161.333 52.223,163.352 52.215,163.945 51.989 C 164.471 51.789,165.033 51.255,164.879 51.101 C 164.823 51.045,164.865 51.000,164.972 51.000 C 165.079 51.000,165.167 50.883,165.167 50.740 C 165.167 50.597,165.240 50.526,165.330 50.581 C 165.435 50.646,165.495 45.752,165.498 36.661 L 165.504 22.640 165.130 22.112 C 164.427 21.115,164.199 21.011,162.750 21.016 C 162.017 21.019,161.263 21.083,161.076 21.159 M225.768 21.326 C 225.170 21.716,225.007 21.967,225.000 22.500 C 224.996 22.830,224.961 22.865,224.834 22.667 C 224.731 22.505,224.673 27.336,224.672 36.292 C 224.671 47.208,224.715 50.167,224.877 50.169 C 225.037 50.171,225.038 50.201,224.882 50.300 C 224.681 50.428,225.297 51.199,226.140 51.875 C 226.762 52.374,228.614 52.271,229.270 51.702 C 230.349 50.764,230.333 50.887,230.333 43.336 C 230.333 37.483,230.369 36.476,230.577 36.396 C 230.711 36.345,230.862 36.171,230.913 36.011 C 231.003 35.728,232.500 34.540,232.500 34.751 C 232.500 34.809,232.725 34.696,233.000 34.500 C 233.275 34.304,233.500 34.196,233.500 34.259 C 233.500 34.322,233.602 34.290,233.726 34.186 C 233.969 33.985,236.574 33.912,237.417 34.083 C 238.169 34.236,239.247 35.608,239.377 36.577 C 239.407 36.803,239.485 37.040,239.549 37.105 C 239.614 37.169,239.667 40.115,239.667 43.651 C 239.667 51.088,239.690 51.237,240.957 51.834 C 241.927 52.291,243.470 52.291,243.962 51.833 C 244.158 51.650,244.398 51.500,244.493 51.500 C 244.589 51.500,244.667 51.394,244.667 51.264 C 244.667 51.134,244.760 50.997,244.875 50.958 C 245.161 50.863,245.275 33.914,244.991 33.573 C 244.889 33.449,244.850 33.275,244.905 33.185 C 244.960 33.096,244.929 32.976,244.836 32.918 C 244.743 32.861,244.667 32.668,244.667 32.490 C 244.667 32.312,244.592 32.167,244.500 32.167 C 244.408 32.167,244.333 32.054,244.333 31.917 C 244.333 31.779,244.266 31.667,244.185 31.667 C 244.103 31.667,243.989 31.480,243.932 31.251 C 243.874 31.022,243.735 30.854,243.622 30.876 C 243.509 30.898,243.435 30.824,243.457 30.711 C 243.480 30.598,243.217 30.353,242.874 30.165 C 242.531 29.978,242.001 29.675,241.697 29.492 C 241.392 29.310,241.187 29.232,241.241 29.319 C 241.295 29.406,241.109 29.362,240.827 29.222 C 240.242 28.930,234.958 28.950,234.500 29.246 C 234.362 29.334,234.102 29.430,233.920 29.458 C 233.739 29.486,233.518 29.582,233.429 29.671 C 233.340 29.760,233.140 29.833,232.984 29.833 C 232.829 29.833,232.659 29.946,232.606 30.083 C 232.554 30.221,232.406 30.333,232.278 30.333 C 232.150 30.333,231.763 30.558,231.417 30.833 C 230.307 31.715,230.336 31.813,230.307 27.042 C 230.293 24.681,230.284 22.656,230.289 22.542 C 230.293 22.427,230.230 22.333,230.148 22.333 C 230.067 22.333,230.000 22.237,230.000 22.120 C 230.000 22.003,229.854 21.802,229.676 21.673 C 229.497 21.545,229.381 21.390,229.418 21.331 C 229.644 20.965,226.328 20.961,225.768 21.326 M253.836 21.123 C 253.700 21.177,253.503 21.302,253.398 21.402 C 253.293 21.502,253.052 21.691,252.863 21.822 C 252.673 21.953,252.556 22.123,252.603 22.198 C 252.650 22.274,252.586 22.375,252.462 22.422 C 252.195 22.525,252.124 22.907,252.122 24.250 C 252.121 25.277,252.958 26.982,253.346 26.742 C 253.431 26.690,253.501 26.708,253.501 26.782 C 253.502 26.856,253.704 27.010,253.951 27.125 C 254.468 27.365,256.667 27.409,256.667 27.180 C 256.667 27.096,256.892 26.977,257.168 26.916 C 257.444 26.856,257.627 26.737,257.575 26.653 C 257.523 26.569,257.541 26.499,257.615 26.499 C 258.841 26.489,258.794 22.315,257.561 21.655 C 257.350 21.542,257.212 21.395,257.254 21.327 C 257.432 21.040,254.496 20.864,253.836 21.123 M146.050 23.245 C 145.664 23.363,145.296 23.413,145.231 23.355 C 145.166 23.297,145.164 23.338,145.226 23.446 C 145.290 23.558,145.209 23.684,145.038 23.738 C 144.347 23.957,144.167 24.664,144.167 27.151 L 144.167 29.500 142.833 29.500 C 142.100 29.500,141.481 29.485,141.458 29.466 C 141.385 29.406,140.395 30.411,140.357 30.583 C 140.169 31.445,140.168 32.522,140.354 32.858 C 140.474 33.074,140.574 33.299,140.577 33.360 C 140.601 33.807,141.623 34.229,142.855 34.300 L 144.167 34.376 144.167 41.474 C 144.167 48.882,144.226 49.558,144.939 50.291 C 145.050 50.405,145.289 50.686,145.469 50.915 C 146.612 52.368,152.068 52.971,153.400 51.792 C 153.581 51.631,153.828 51.500,153.948 51.500 C 154.068 51.500,154.167 51.387,154.167 51.250 C 154.167 51.112,154.242 51.000,154.333 51.000 C 154.425 51.000,154.500 50.846,154.500 50.657 C 154.500 50.468,154.561 50.351,154.636 50.398 C 154.711 50.444,154.789 50.148,154.810 49.741 C 154.834 49.288,154.777 49.000,154.665 49.000 C 154.563 49.000,154.518 48.938,154.565 48.863 C 154.698 48.647,154.032 47.667,153.752 47.667 C 153.614 47.667,153.500 47.592,153.500 47.500 C 153.500 47.401,152.898 47.333,152.028 47.333 C 150.577 47.333,150.548 47.325,150.069 46.792 L 149.583 46.250 149.530 40.312 L 149.476 34.373 151.123 34.307 C 153.734 34.202,154.596 33.254,154.096 31.041 C 153.825 29.842,153.191 29.500,151.237 29.500 L 149.500 29.500 149.500 27.083 C 149.500 25.583,149.437 24.667,149.333 24.667 C 149.242 24.667,149.167 24.589,149.167 24.493 C 149.167 23.687,147.190 22.895,146.050 23.245 M35.206 26.860 C 35.093 26.974,35.000 27.180,35.000 27.319 C 35.000 27.537,35.036 27.535,35.269 27.302 C 35.417 27.154,35.510 26.948,35.476 26.843 C 35.430 26.707,35.355 26.711,35.206 26.860 M34.367 28.367 C 34.124 28.609,34.103 29.000,34.333 29.000 C 34.425 29.000,34.500 28.887,34.500 28.750 C 34.500 28.613,34.584 28.519,34.688 28.542 C 34.791 28.565,34.909 28.490,34.951 28.375 C 35.049 28.109,34.630 28.103,34.367 28.367 M122.917 29.115 C 122.642 29.158,122.345 29.262,122.258 29.346 C 122.171 29.431,121.871 29.502,121.592 29.505 C 121.312 29.508,120.938 29.621,120.760 29.755 C 120.582 29.890,120.259 30.000,120.042 30.000 C 119.825 30.000,119.688 30.066,119.737 30.146 C 119.787 30.227,119.623 30.334,119.372 30.385 C 119.122 30.436,118.756 30.628,118.559 30.812 C 118.363 30.996,118.157 31.101,118.101 31.046 C 118.045 30.990,118.000 31.020,118.000 31.113 C 118.000 31.392,117.393 32.004,117.248 31.872 C 117.174 31.805,117.164 31.839,117.226 31.947 C 117.288 32.055,117.263 32.191,117.169 32.248 C 116.722 32.525,116.977 34.503,117.499 34.799 C 117.773 34.956,117.998 35.140,117.999 35.208 C 118.000 35.277,118.146 35.333,118.323 35.333 C 118.501 35.333,118.685 35.395,118.732 35.470 C 118.883 35.716,120.003 35.521,120.446 35.173 C 120.684 34.986,120.946 34.833,121.029 34.833 C 121.113 34.833,121.341 34.684,121.536 34.502 C 121.732 34.320,122.160 34.127,122.488 34.073 C 122.815 34.020,123.249 33.896,123.451 33.797 C 123.920 33.569,126.738 33.567,127.219 33.794 C 127.419 33.889,127.825 34.057,128.120 34.168 C 128.712 34.390,129.500 35.051,129.500 35.325 C 129.500 35.421,129.579 35.500,129.677 35.500 C 129.774 35.500,129.811 35.569,129.759 35.652 C 129.707 35.736,129.742 35.831,129.836 35.862 C 129.930 35.893,130.018 36.203,130.031 36.550 C 130.044 36.897,130.117 37.219,130.194 37.267 C 130.271 37.314,130.333 37.870,130.333 38.502 L 130.333 39.651 129.892 39.242 C 129.650 39.017,129.312 38.833,129.142 38.833 C 128.972 38.833,128.833 38.762,128.833 38.674 C 128.833 38.587,128.571 38.466,128.250 38.406 C 127.929 38.345,127.667 38.230,127.667 38.148 C 127.667 38.067,127.475 38.000,127.240 38.000 C 127.006 38.000,126.851 37.939,126.897 37.865 C 127.014 37.676,125.923 37.586,123.500 37.584 C 120.999 37.583,120.267 37.734,119.000 38.515 C 118.862 38.600,118.575 38.758,118.362 38.867 C 117.904 39.101,116.667 40.307,116.667 40.520 C 116.667 40.600,116.579 40.667,116.472 40.667 C 116.365 40.667,116.326 40.714,116.384 40.773 C 116.442 40.831,116.337 41.094,116.150 41.356 C 115.964 41.619,115.868 41.833,115.939 41.833 C 116.009 41.833,115.977 41.923,115.867 42.033 C 115.757 42.143,115.667 42.410,115.667 42.627 C 115.667 42.843,115.602 42.980,115.523 42.931 C 115.444 42.882,115.373 43.738,115.365 44.833 C 115.357 45.928,115.422 46.868,115.509 46.922 C 115.595 46.976,115.667 47.203,115.667 47.427 C 115.667 47.650,115.748 47.833,115.847 47.833 C 115.947 47.833,115.996 47.927,115.957 48.042 C 115.918 48.156,116.035 48.381,116.218 48.542 C 116.401 48.702,116.499 48.833,116.435 48.833 C 116.371 48.833,116.511 49.026,116.746 49.261 C 116.981 49.496,117.133 49.753,117.084 49.833 C 117.035 49.912,117.082 50.031,117.190 50.098 C 117.323 50.180,117.340 50.144,117.244 49.984 C 117.124 49.785,117.145 49.784,117.383 49.977 C 117.537 50.102,117.629 50.260,117.587 50.328 C 117.545 50.396,117.801 50.593,118.157 50.766 C 118.512 50.939,118.761 51.156,118.708 51.249 C 118.656 51.341,118.671 51.365,118.741 51.302 C 118.811 51.239,119.324 51.427,119.881 51.719 C 120.900 52.253,125.002 52.518,126.500 52.147 C 126.729 52.090,127.166 51.986,127.472 51.915 C 127.863 51.824,127.961 51.745,127.805 51.646 C 127.644 51.544,127.687 51.499,127.958 51.482 C 128.584 51.443,128.618 51.431,129.316 51.000 C 129.687 50.771,129.993 50.490,129.996 50.375 C 130.004 49.971,130.255 50.182,130.743 51.003 C 131.014 51.460,131.333 51.833,131.451 51.833 C 131.570 51.833,131.667 51.897,131.667 51.975 C 131.667 52.053,132.193 52.132,132.836 52.150 C 134.139 52.188,135.211 51.655,135.412 50.868 C 135.466 50.658,135.584 50.532,135.675 50.588 C 135.835 50.687,135.793 35.616,135.630 34.667 C 135.512 33.977,134.432 31.833,134.203 31.833 C 134.086 31.833,133.939 31.702,133.878 31.542 C 133.736 31.172,133.142 30.600,132.826 30.529 C 132.692 30.498,132.471 30.377,132.333 30.259 C 131.184 29.270,125.992 28.639,122.917 29.115 M179.792 29.119 C 179.540 29.158,179.333 29.259,179.333 29.344 C 179.333 29.430,179.195 29.500,179.026 29.500 C 178.856 29.500,178.476 29.631,178.180 29.792 C 177.884 29.952,177.416 30.201,177.141 30.344 C 176.388 30.735,174.352 32.388,174.342 32.616 C 174.337 32.725,174.184 32.919,174.001 33.047 C 173.818 33.175,173.718 33.329,173.779 33.390 C 173.839 33.450,173.801 33.500,173.694 33.500 C 173.588 33.500,173.500 33.617,173.500 33.760 C 173.500 33.903,173.423 33.972,173.329 33.914 C 173.235 33.856,173.175 33.870,173.196 33.946 C 173.259 34.182,172.985 34.833,172.822 34.833 C 172.737 34.833,172.667 34.983,172.667 35.167 C 172.667 35.350,172.592 35.500,172.500 35.500 C 172.408 35.500,172.333 35.600,172.333 35.722 C 172.333 35.844,172.177 36.442,171.986 37.050 C 171.677 38.034,171.646 38.474,171.702 41.036 C 171.770 44.190,171.755 44.084,172.292 45.143 C 172.498 45.550,172.667 46.013,172.667 46.171 C 172.667 46.330,172.779 46.553,172.917 46.667 C 173.054 46.781,173.167 46.959,173.167 47.062 C 173.167 47.165,173.336 47.449,173.542 47.693 C 173.748 47.936,174.029 48.302,174.167 48.505 C 174.514 49.018,174.768 49.268,175.473 49.792 C 175.809 50.042,176.205 50.378,176.353 50.540 C 176.501 50.701,176.673 50.833,176.735 50.833 C 176.797 50.833,177.328 51.058,177.917 51.333 C 178.505 51.608,179.124 51.833,179.293 51.833 C 179.462 51.833,179.694 51.927,179.808 52.042 C 179.962 52.195,180.935 52.250,183.500 52.250 C 186.064 52.250,187.038 52.195,187.192 52.042 C 187.306 51.927,187.568 51.833,187.773 51.833 C 187.979 51.833,188.188 51.767,188.238 51.686 C 188.289 51.604,188.593 51.488,188.915 51.428 C 189.237 51.368,189.500 51.247,189.500 51.159 C 189.500 51.072,189.641 51.000,189.813 51.000 C 189.985 51.000,190.219 50.887,190.333 50.750 C 190.447 50.612,190.644 50.500,190.770 50.500 C 190.897 50.500,191.000 50.425,191.000 50.333 C 191.000 50.242,191.112 50.167,191.250 50.167 C 191.387 50.167,191.500 50.092,191.500 50.000 C 191.500 49.908,191.650 49.683,191.833 49.500 C 192.235 49.099,192.286 47.934,191.931 47.251 C 191.686 46.778,190.771 46.118,190.599 46.290 C 190.545 46.344,190.500 46.301,190.500 46.194 C 190.500 45.854,188.976 45.962,188.417 46.342 C 187.180 47.181,185.360 47.719,183.833 47.696 C 182.762 47.680,182.148 47.605,182.071 47.480 C 182.021 47.399,181.771 47.333,181.515 47.333 C 181.090 47.333,179.991 46.671,179.327 46.014 C 178.901 45.594,178.297 44.667,178.447 44.664 C 178.522 44.663,178.508 44.606,178.417 44.539 C 178.152 44.344,177.644 43.301,177.878 43.433 C 178.035 43.522,178.035 43.496,177.875 43.324 C 177.119 42.510,177.186 42.501,184.208 42.487 C 187.806 42.480,190.900 42.436,191.083 42.389 C 191.267 42.342,191.671 42.263,191.982 42.214 C 192.625 42.112,193.557 41.518,193.637 41.158 C 193.667 41.025,193.761 40.892,193.846 40.861 C 194.049 40.788,194.046 37.882,193.843 37.756 C 193.691 37.662,193.396 36.224,193.471 35.946 C 193.492 35.870,193.431 35.856,193.337 35.914 C 193.238 35.976,193.167 35.842,193.167 35.593 C 193.167 35.359,193.100 35.167,193.018 35.167 C 192.869 35.167,192.585 34.368,192.643 34.113 C 192.661 34.037,192.597 34.023,192.502 34.082 C 192.403 34.143,192.285 33.968,192.226 33.672 C 192.169 33.388,192.085 33.193,192.039 33.239 C 191.930 33.348,191.333 32.587,191.333 32.339 C 191.333 32.233,191.264 32.190,191.179 32.243 C 191.094 32.295,190.976 32.187,190.917 32.002 C 190.859 31.818,190.748 31.667,190.671 31.667 C 190.594 31.667,190.223 31.409,189.845 31.093 C 189.468 30.778,189.010 30.473,188.827 30.415 C 188.645 30.357,188.545 30.228,188.607 30.129 C 188.670 30.026,188.641 29.996,188.539 30.059 C 188.441 30.120,188.244 30.054,188.103 29.912 C 187.961 29.771,187.824 29.662,187.798 29.671 C 187.751 29.688,187.322 29.556,186.833 29.376 C 186.696 29.325,186.471 29.247,186.333 29.202 C 186.013 29.098,180.399 29.028,179.792 29.119 M206.583 29.354 C 205.942 29.544,205.262 29.842,205.073 30.016 C 204.883 30.191,204.662 30.333,204.582 30.333 C 204.338 30.333,203.125 31.211,202.501 31.839 C 201.756 32.589,201.000 33.470,201.000 33.589 C 201.000 33.639,200.856 33.836,200.679 34.025 C 200.502 34.215,200.398 34.474,200.447 34.602 C 200.496 34.729,200.462 34.833,200.371 34.833 C 200.281 34.833,200.105 35.077,199.980 35.375 C 199.729 35.977,199.717 36.022,199.688 36.510 C 199.676 36.699,199.592 36.807,199.500 36.750 C 199.399 36.688,199.333 36.912,199.333 37.314 C 199.333 37.680,199.273 38.017,199.200 38.063 C 199.037 38.164,199.039 42.845,199.202 43.098 C 199.267 43.197,199.337 43.549,199.360 43.879 C 199.382 44.209,199.455 44.444,199.523 44.403 C 199.590 44.361,199.696 44.666,199.758 45.080 C 199.820 45.494,199.938 45.833,200.019 45.833 C 200.100 45.833,200.167 45.975,200.167 46.149 C 200.167 46.322,200.279 46.508,200.417 46.560 C 200.554 46.613,200.667 46.809,200.667 46.995 C 200.667 47.181,200.733 47.333,200.813 47.333 C 200.894 47.333,201.053 47.560,201.168 47.837 C 201.410 48.420,203.099 50.167,203.421 50.167 C 203.541 50.167,203.664 50.230,203.694 50.308 C 203.779 50.525,205.207 51.394,205.580 51.455 C 205.761 51.485,205.982 51.582,206.071 51.671 C 206.160 51.760,206.362 51.833,206.519 51.833 C 206.677 51.833,206.837 51.927,206.875 52.042 C 206.928 52.200,207.796 52.250,210.464 52.250 C 213.057 52.250,214.038 52.195,214.192 52.042 C 214.306 51.927,214.568 51.833,214.773 51.833 C 214.979 51.833,215.193 51.758,215.250 51.666 C 215.307 51.574,215.686 51.347,216.093 51.162 C 216.500 50.977,216.833 50.747,216.833 50.653 C 216.833 50.558,216.890 50.509,216.958 50.544 C 217.069 50.600,218.225 49.547,218.288 49.333 C 218.301 49.288,218.363 49.116,218.426 48.951 C 218.604 48.490,218.407 46.982,218.148 46.818 C 218.021 46.738,217.992 46.669,218.083 46.666 C 218.370 46.655,217.433 46.008,217.125 46.004 C 216.965 46.002,216.833 45.925,216.833 45.833 C 216.833 45.741,216.386 45.667,215.823 45.667 C 215.193 45.667,214.852 45.729,214.917 45.833 C 214.973 45.925,214.874 46.000,214.697 46.000 C 214.519 46.000,214.281 46.112,214.167 46.250 C 214.053 46.387,213.856 46.500,213.730 46.500 C 213.603 46.500,213.500 46.574,213.500 46.663 C 213.500 46.753,213.294 46.877,213.042 46.939 C 212.790 47.001,212.540 47.117,212.487 47.198 C 212.357 47.395,209.142 47.394,209.016 47.197 C 208.961 47.112,208.681 46.991,208.392 46.928 C 208.104 46.866,207.738 46.670,207.578 46.494 C 207.419 46.319,207.205 46.222,207.103 46.281 C 207.000 46.339,206.970 46.328,207.035 46.256 C 207.100 46.184,206.893 45.873,206.576 45.566 C 206.259 45.258,206.000 44.966,206.000 44.916 C 206.000 44.867,205.813 44.530,205.583 44.167 C 205.354 43.804,205.167 43.368,205.167 43.198 C 205.167 43.028,205.110 42.833,205.042 42.764 C 204.758 42.480,204.723 39.132,204.997 38.417 C 205.359 37.469,205.765 36.670,205.885 36.669 C 205.959 36.668,205.973 36.592,205.917 36.500 C 205.860 36.408,205.893 36.333,205.990 36.333 C 206.087 36.333,206.167 36.221,206.167 36.083 C 206.167 35.946,206.229 35.833,206.305 35.833 C 206.381 35.833,206.545 35.644,206.669 35.412 C 206.793 35.181,207.080 34.944,207.308 34.887 C 207.535 34.830,207.861 34.664,208.033 34.517 C 208.204 34.370,208.398 34.244,208.464 34.237 C 208.530 34.230,208.883 34.159,209.250 34.079 C 209.617 34.000,210.048 33.954,210.208 33.978 C 210.369 34.002,210.500 33.941,210.500 33.844 C 210.500 33.746,210.612 33.667,210.750 33.667 C 210.887 33.667,211.000 33.742,211.000 33.833 C 211.000 33.925,211.268 34.000,211.597 34.000 C 211.968 34.000,212.756 34.280,213.684 34.741 C 214.505 35.149,215.211 35.486,215.254 35.491 C 215.298 35.496,215.371 35.507,215.417 35.517 C 215.952 35.624,217.333 35.365,217.333 35.157 C 217.333 35.083,217.473 34.978,217.643 34.924 C 218.413 34.680,218.771 32.464,218.134 31.887 C 217.969 31.737,217.833 31.555,217.833 31.482 C 217.833 31.263,217.037 30.534,216.672 30.418 C 216.486 30.359,216.333 30.241,216.333 30.155 C 216.333 30.070,216.141 30.000,215.907 30.000 C 215.627 30.000,215.521 29.934,215.599 29.808 C 215.665 29.702,215.650 29.658,215.566 29.709 C 215.482 29.761,215.152 29.687,214.832 29.544 C 213.922 29.137,213.919 29.137,210.750 29.071 C 208.087 29.015,207.619 29.047,206.583 29.354 M275.667 29.108 C 275.266 29.241,274.618 29.523,274.141 29.770 C 273.898 29.897,273.579 30.000,273.433 30.000 C 273.286 30.000,273.167 30.075,273.167 30.167 C 273.167 30.258,273.052 30.333,272.911 30.333 C 272.771 30.333,272.613 30.446,272.560 30.583 C 272.508 30.721,272.378 30.833,272.272 30.833 C 272.166 30.833,271.878 31.021,271.631 31.250 C 271.048 31.790,271.000 31.778,271.000 31.093 C 271.000 30.778,270.924 30.473,270.831 30.415 C 270.737 30.357,270.712 30.229,270.773 30.129 C 270.835 30.030,270.812 29.994,270.723 30.049 C 270.634 30.104,270.455 30.003,270.327 29.824 C 270.198 29.646,269.997 29.500,269.880 29.500 C 269.763 29.500,269.667 29.425,269.667 29.333 C 269.667 29.237,269.139 29.167,268.417 29.167 C 267.694 29.167,267.167 29.237,267.167 29.333 C 267.167 29.425,267.071 29.500,266.953 29.500 C 266.836 29.500,266.632 29.650,266.500 29.833 C 266.368 30.017,266.159 30.167,266.037 30.167 C 265.914 30.167,265.857 30.237,265.910 30.323 C 265.964 30.409,265.896 30.541,265.761 30.617 C 265.548 30.736,265.520 32.057,265.549 40.502 C 265.585 50.842,265.572 50.573,266.083 51.049 C 266.267 51.219,266.311 51.304,266.183 51.237 C 266.029 51.157,265.989 51.181,266.067 51.308 C 266.133 51.413,266.299 51.500,266.436 51.500 C 266.574 51.500,266.640 51.575,266.583 51.667 C 266.527 51.758,266.635 51.833,266.823 51.833 C 267.012 51.833,267.167 51.897,267.167 51.974 C 267.167 52.182,269.284 52.214,269.412 52.008 C 269.471 51.912,269.630 51.833,269.765 51.833 C 269.901 51.833,270.234 51.606,270.506 51.328 L 271.000 50.822 271.000 43.670 L 271.000 36.519 271.370 36.259 C 271.574 36.117,271.669 36.000,271.582 36.000 C 271.354 36.000,272.621 35.151,273.461 34.741 C 273.852 34.550,274.115 34.331,274.044 34.254 C 273.974 34.177,274.046 34.160,274.203 34.216 C 274.360 34.273,274.534 34.247,274.588 34.159 C 274.642 34.072,274.945 34.000,275.262 34.000 C 275.579 34.000,275.987 33.907,276.169 33.793 C 276.432 33.629,276.568 33.629,276.831 33.793 C 277.013 33.907,277.426 34.000,277.748 34.000 C 278.070 34.000,278.333 34.079,278.333 34.177 C 278.333 34.274,278.408 34.307,278.500 34.250 C 278.592 34.193,278.667 34.226,278.667 34.323 C 278.667 34.421,278.745 34.500,278.842 34.500 C 279.355 34.500,280.165 35.755,280.166 36.552 C 280.166 36.992,280.223 37.318,280.292 37.276 C 280.360 37.233,280.417 40.173,280.417 43.808 L 280.417 50.417 280.798 50.798 C 281.007 51.007,281.145 51.234,281.103 51.301 C 280.682 51.983,284.249 52.464,284.740 51.792 C 284.858 51.631,285.020 51.499,285.102 51.499 C 285.183 51.498,285.419 51.202,285.625 50.841 C 286.021 50.147,286.236 34.157,285.855 33.742 C 285.775 33.655,285.575 33.145,285.410 32.609 C 285.246 32.073,285.011 31.596,284.889 31.550 C 284.767 31.503,284.667 31.355,284.667 31.222 C 284.667 31.089,284.597 31.023,284.512 31.076 C 284.427 31.128,284.315 31.039,284.264 30.876 C 284.212 30.714,283.869 30.395,283.502 30.168 C 283.134 29.940,282.833 29.697,282.833 29.627 C 282.833 29.557,282.698 29.500,282.533 29.500 C 282.368 29.500,282.140 29.406,282.025 29.292 C 281.816 29.082,276.228 28.921,275.667 29.108 M253.939 29.418 C 253.886 29.557,253.747 29.650,253.630 29.627 C 253.513 29.603,253.435 29.677,253.458 29.792 C 253.481 29.906,253.387 30.000,253.250 30.000 C 253.094 30.000,253.000 30.157,253.000 30.417 C 253.000 30.646,252.925 30.833,252.833 30.833 C 252.724 30.833,252.667 34.195,252.667 40.584 C 252.667 50.996,252.689 51.287,253.497 51.469 C 253.625 51.497,253.846 51.654,253.989 51.817 C 254.353 52.232,256.573 52.319,256.724 51.925 C 256.779 51.780,257.019 51.588,257.256 51.498 C 257.493 51.408,257.640 51.258,257.583 51.166 C 257.526 51.073,257.596 50.953,257.739 50.898 C 258.178 50.729,258.129 31.158,257.688 30.292 C 257.516 29.955,257.329 29.727,257.271 29.784 C 257.214 29.842,257.167 29.801,257.167 29.694 C 257.167 29.587,257.054 29.500,256.917 29.500 C 256.779 29.500,256.667 29.425,256.667 29.333 C 256.667 29.042,254.052 29.123,253.939 29.418 M1.667 29.611 C 1.667 29.733,1.734 29.833,1.816 29.833 C 1.897 29.833,2.003 29.733,2.050 29.611 C 2.097 29.489,2.030 29.389,1.901 29.389 C 1.772 29.389,1.667 29.489,1.667 29.611 M33.601 30.098 C 33.374 30.689,33.780 30.919,34.069 30.362 C 34.330 29.857,34.328 29.833,34.022 29.833 C 33.846 29.833,33.657 29.952,33.601 30.098 M32.768 31.930 C 32.611 32.339,32.658 32.449,32.849 32.121 C 32.943 31.959,33.102 31.877,33.203 31.939 C 33.312 32.006,33.337 31.974,33.266 31.859 C 33.099 31.589,32.887 31.620,32.768 31.930 M2.333 32.066 C 2.333 32.193,2.437 32.338,2.564 32.386 C 2.727 32.449,2.771 32.379,2.712 32.154 C 2.615 31.785,2.333 31.719,2.333 32.066 M4.152 33.489 C 4.374 33.686,4.655 33.809,4.777 33.763 C 4.900 33.716,5.000 33.754,5.000 33.848 C 5.000 33.943,5.083 33.968,5.184 33.906 C 5.314 33.826,5.304 33.752,5.151 33.657 C 5.031 33.583,4.875 33.558,4.804 33.601 C 4.734 33.645,4.468 33.557,4.213 33.405 L 3.750 33.130 4.152 33.489 M184.639 33.843 C 184.669 33.930,184.870 34.000,185.085 34.000 C 185.300 34.000,185.589 34.112,185.726 34.250 C 185.864 34.387,186.042 34.500,186.122 34.500 C 186.297 34.500,187.658 35.826,187.688 36.026 C 187.699 36.103,187.727 36.242,187.750 36.333 C 187.773 36.425,187.801 36.537,187.813 36.583 C 187.824 36.629,187.827 36.715,187.819 36.773 C 187.811 36.832,187.886 36.930,187.986 36.992 C 188.086 37.053,188.212 37.419,188.266 37.804 L 188.364 38.505 182.973 38.461 L 177.583 38.417 177.639 37.833 C 177.670 37.512,177.763 37.179,177.847 37.092 C 177.931 37.005,178.000 36.796,178.000 36.628 C 178.000 36.460,178.112 36.280,178.250 36.227 C 178.387 36.174,178.500 36.057,178.500 35.967 C 178.500 35.877,178.875 35.442,179.333 35.000 C 179.792 34.558,180.167 34.229,180.167 34.269 C 180.167 34.309,180.366 34.210,180.611 34.050 C 181.328 33.580,184.488 33.418,184.639 33.843 M98.167 33.815 C 98.167 33.896,98.260 33.954,98.375 33.943 C 98.868 33.895,100.500 34.204,100.500 34.345 C 100.500 34.430,100.650 34.500,100.833 34.500 C 101.017 34.500,101.167 34.567,101.167 34.649 C 101.167 34.730,101.337 34.840,101.545 34.892 C 101.753 34.944,102.091 35.143,102.295 35.333 C 102.499 35.524,102.667 35.628,102.667 35.565 C 102.667 35.502,102.892 35.761,103.167 36.140 L 103.667 36.830 103.667 40.749 C 103.667 42.904,103.608 44.667,103.536 44.667 C 103.464 44.667,103.272 44.892,103.110 45.167 C 102.947 45.442,102.694 45.667,102.546 45.667 C 102.399 45.667,102.328 45.717,102.389 45.778 C 102.545 45.934,100.663 46.989,100.218 46.995 C 100.017 46.998,99.807 47.075,99.750 47.167 C 99.693 47.258,99.404 47.333,99.107 47.333 C 98.810 47.333,98.466 47.427,98.342 47.542 C 98.219 47.656,98.160 47.674,98.212 47.580 C 98.268 47.479,98.041 47.403,97.649 47.393 C 96.974 47.375,95.568 46.913,95.223 46.595 C 95.116 46.497,94.797 46.239,94.514 46.023 C 94.231 45.806,94.000 45.521,94.000 45.388 C 94.000 45.255,93.925 45.193,93.833 45.250 C 93.742 45.307,93.661 45.292,93.654 45.218 C 93.612 44.774,93.501 44.452,93.313 44.225 C 93.194 44.083,93.081 43.850,93.060 43.708 C 93.039 43.566,92.953 43.405,92.869 43.350 C 92.520 43.122,92.138 39.526,92.486 39.741 C 92.597 39.810,92.638 39.609,92.601 39.174 C 92.570 38.803,92.597 38.500,92.661 38.500 C 92.725 38.500,92.786 38.406,92.796 38.292 C 92.831 37.879,92.937 37.507,93.051 37.394 C 93.114 37.330,93.167 37.140,93.167 36.972 C 93.167 36.804,93.243 36.667,93.336 36.667 C 93.429 36.667,93.631 36.404,93.784 36.083 C 93.937 35.762,94.160 35.500,94.281 35.500 C 94.401 35.500,94.500 35.389,94.500 35.253 C 94.500 35.117,94.687 34.959,94.916 34.902 C 95.144 34.845,95.294 34.739,95.250 34.666 C 95.173 34.542,95.551 34.302,95.917 34.242 C 97.028 34.059,97.522 33.932,97.597 33.811 C 97.714 33.621,98.167 33.624,98.167 33.815 M4.912 40.340 C 4.854 40.436,4.662 40.468,4.486 40.412 C 4.307 40.356,4.167 40.389,4.167 40.489 C 4.167 40.587,3.942 40.667,3.667 40.667 C 3.250 40.667,3.167 40.733,3.167 41.066 C 3.167 41.462,2.775 41.754,2.485 41.574 C 2.402 41.522,2.333 41.639,2.333 41.833 C 2.333 42.027,2.258 42.140,2.167 42.083 C 2.075 42.027,2.000 42.054,2.000 42.143 C 2.000 42.232,2.094 42.343,2.208 42.390 C 2.375 42.457,2.375 42.476,2.208 42.487 C 2.091 42.494,2.000 42.718,2.000 43.000 C 2.000 43.275,1.925 43.500,1.833 43.500 C 1.742 43.500,1.667 43.650,1.667 43.833 C 1.667 44.017,1.742 44.167,1.833 44.167 C 1.925 44.167,2.000 44.496,2.000 44.899 C 2.000 45.413,2.079 45.661,2.264 45.732 C 2.409 45.788,2.498 45.923,2.462 46.031 C 2.376 46.288,2.963 46.876,3.174 46.746 C 3.263 46.691,3.383 46.769,3.441 46.920 C 3.514 47.110,3.583 47.135,3.666 47.002 C 3.752 46.862,3.853 46.877,4.035 47.059 C 4.384 47.408,24.828 47.462,25.964 47.117 C 26.357 46.998,26.629 46.851,26.569 46.791 C 26.508 46.731,26.510 46.549,26.572 46.387 C 26.669 46.134,26.709 46.127,26.854 46.338 C 26.980 46.520,27.006 46.440,26.955 46.026 C 26.910 45.658,26.964 45.440,27.115 45.382 C 27.503 45.232,27.736 44.648,27.476 44.476 C 27.200 44.294,27.770 43.775,28.053 43.949 C 28.155 44.012,28.182 43.947,28.121 43.788 C 28.064 43.640,28.163 43.338,28.343 43.109 C 28.708 42.644,28.763 42.226,28.470 42.129 C 28.178 42.032,28.446 41.483,28.834 41.381 C 29.017 41.334,29.167 41.234,29.167 41.161 C 29.167 41.087,29.212 40.909,29.268 40.764 C 29.334 40.591,29.277 40.500,29.101 40.500 C 28.954 40.500,28.833 40.425,28.833 40.333 C 28.833 40.097,5.058 40.104,4.912 40.340 M127.625 41.792 C 127.663 41.906,127.857 42.003,128.056 42.007 C 128.254 42.010,128.829 42.333,129.333 42.724 L 130.250 43.434 130.298 44.860 C 130.346 46.310,129.906 47.333,129.233 47.333 C 129.127 47.333,128.947 47.446,128.833 47.583 C 128.719 47.721,128.485 47.833,128.313 47.833 C 128.141 47.833,128.000 47.904,128.000 47.990 C 128.000 48.154,126.956 48.353,125.947 48.382 C 125.621 48.391,125.391 48.459,125.437 48.533 C 125.482 48.606,125.440 48.667,125.343 48.667 C 125.246 48.667,125.166 48.610,125.166 48.542 C 125.165 48.473,124.832 48.397,124.424 48.374 C 122.735 48.277,121.168 46.982,121.130 45.652 C 121.122 45.385,121.043 45.167,120.954 45.167 C 120.853 45.167,120.856 45.088,120.961 44.958 C 121.054 44.844,121.129 44.539,121.127 44.282 C 121.124 43.699,121.650 42.694,122.020 42.577 C 122.172 42.529,122.492 42.308,122.731 42.086 C 122.971 41.864,123.167 41.714,123.167 41.753 C 123.167 41.791,123.335 41.752,123.542 41.665 C 124.106 41.427,127.539 41.534,127.625 41.792 " stroke="none" fill="#04cc84" fill-rule="evenodd"></path><path id="path2" d="M57.167 2.529 C 57.167 2.724,58.532 2.696,58.833 2.494 C 59.013 2.374,58.814 2.336,58.125 2.358 C 57.598 2.376,57.167 2.453,57.167 2.529 M55.667 2.667 C 55.667 2.758,55.817 2.833,56.000 2.833 C 56.183 2.833,56.333 2.758,56.333 2.667 C 56.333 2.575,56.183 2.500,56.000 2.500 C 55.817 2.500,55.667 2.575,55.667 2.667 M59.250 2.667 C 59.190 2.764,59.356 2.833,59.647 2.833 C 59.922 2.833,60.196 2.912,60.255 3.008 C 60.314 3.104,60.487 3.162,60.640 3.136 C 60.792 3.110,61.102 3.219,61.329 3.378 C 61.751 3.674,62.333 3.767,62.333 3.539 C 62.333 3.348,61.057 2.833,60.582 2.833 C 60.354 2.833,60.167 2.758,60.167 2.667 C 60.167 2.575,59.984 2.500,59.760 2.500 C 59.536 2.500,59.307 2.575,59.250 2.667 M54.333 2.997 C 54.333 3.087,54.146 3.207,53.917 3.265 C 53.688 3.322,53.500 3.449,53.500 3.546 C 53.500 3.643,53.451 3.673,53.390 3.613 C 53.261 3.483,52.833 3.804,52.833 4.030 C 52.833 4.175,53.815 3.711,54.000 3.479 C 54.046 3.421,54.402 3.321,54.792 3.256 C 55.647 3.113,55.730 2.833,54.917 2.833 C 54.596 2.833,54.333 2.907,54.333 2.997 M62.871 4.030 C 62.962 4.304,63.460 4.595,63.599 4.456 C 63.758 4.298,63.348 3.833,63.049 3.833 C 62.915 3.833,62.835 3.922,62.871 4.030 M51.641 4.741 C 51.534 4.975,51.358 5.167,51.249 5.167 C 51.140 5.167,50.916 5.317,50.750 5.500 C 50.458 5.822,50.459 5.833,50.770 5.833 C 50.948 5.833,51.298 5.599,51.549 5.313 C 52.161 4.615,52.200 4.540,52.003 4.419 C 51.911 4.361,51.747 4.506,51.641 4.741 M64.749 5.835 C 64.692 5.927,64.766 6.049,64.913 6.105 C 65.232 6.228,65.410 6.093,65.257 5.844 C 65.118 5.620,64.884 5.616,64.749 5.835 M66.000 7.833 C 66.000 7.925,66.112 8.000,66.250 8.000 C 66.387 8.000,66.500 7.925,66.500 7.833 C 66.500 7.742,66.387 7.667,66.250 7.667 C 66.112 7.667,66.000 7.742,66.000 7.833 M66.375 8.444 C 66.082 8.562,66.115 9.000,66.417 9.000 C 66.556 9.000,66.667 8.852,66.667 8.667 C 66.667 8.483,66.648 8.339,66.625 8.346 C 66.602 8.354,66.490 8.397,66.375 8.444 M48.602 9.262 C 48.532 9.445,48.585 9.508,48.778 9.470 C 48.931 9.441,49.087 9.323,49.125 9.208 C 49.227 8.902,48.720 8.954,48.602 9.262 M67.167 11.500 C 67.167 12.154,67.102 12.486,66.979 12.458 C 66.876 12.435,66.757 12.510,66.715 12.625 C 66.671 12.746,66.774 12.833,66.961 12.833 C 67.245 12.833,67.287 12.697,67.317 11.667 C 67.336 11.025,67.309 10.500,67.259 10.500 C 67.208 10.500,67.167 10.950,67.167 11.500 M47.638 11.417 C 47.493 11.737,47.440 12.000,47.520 12.000 C 47.601 12.000,47.667 11.925,47.667 11.833 C 47.667 11.742,47.752 11.667,47.857 11.667 C 48.051 11.667,48.485 11.184,48.495 10.958 C 48.511 10.566,47.868 10.910,47.638 11.417 M47.333 12.387 C 47.061 12.602,46.925 13.002,47.125 12.997 C 47.413 12.992,47.695 12.692,47.641 12.450 C 47.595 12.242,47.532 12.229,47.333 12.387 M46.833 13.417 C 46.833 13.588,46.943 13.670,47.125 13.635 C 47.476 13.567,47.454 13.271,47.092 13.196 C 46.941 13.165,46.833 13.257,46.833 13.417 M66.429 13.859 C 66.090 14.537,66.099 14.667,66.479 14.667 C 66.758 14.667,67.000 14.115,67.000 13.479 C 67.000 13.151,66.674 13.367,66.429 13.859 M45.913 15.179 C 45.757 15.668,45.941 15.772,46.332 15.418 C 46.754 15.036,46.758 14.833,46.345 14.833 C 46.165 14.833,45.974 14.986,45.913 15.179 M66.000 15.250 C 66.000 15.387,66.112 15.500,66.250 15.500 C 66.387 15.500,66.500 15.387,66.500 15.250 C 66.500 15.112,66.387 15.000,66.250 15.000 C 66.112 15.000,66.000 15.112,66.000 15.250 M45.562 16.208 C 45.622 16.393,45.570 16.500,45.421 16.500 C 45.276 16.500,45.210 16.627,45.250 16.833 C 45.285 17.017,45.244 17.167,45.157 17.167 C 45.071 17.167,45.000 17.279,45.000 17.417 C 45.000 17.785,45.350 17.721,45.452 17.333 C 45.500 17.150,45.605 17.000,45.686 17.000 C 45.890 17.000,45.866 16.469,45.648 16.167 C 45.497 15.956,45.483 15.962,45.562 16.208 M65.455 16.355 C 65.160 16.520,65.048 17.167,65.314 17.167 C 65.525 17.167,66.022 16.366,65.870 16.272 C 65.800 16.229,65.613 16.267,65.455 16.355 M64.956 17.575 C 64.629 17.815,64.580 18.000,64.845 18.000 C 65.094 18.000,65.531 17.539,65.374 17.442 C 65.304 17.399,65.116 17.458,64.956 17.575 M44.500 18.417 C 44.386 18.554,44.348 18.667,44.417 18.667 C 44.485 18.667,44.447 18.779,44.333 18.917 C 44.163 19.121,44.175 19.167,44.396 19.167 C 44.545 19.167,44.667 19.054,44.667 18.917 C 44.667 18.779,44.734 18.667,44.816 18.667 C 44.897 18.667,45.008 18.554,45.060 18.417 C 45.116 18.271,45.063 18.167,44.932 18.167 C 44.808 18.167,44.614 18.279,44.500 18.417 M64.571 18.647 C 64.622 18.729,64.887 18.828,65.161 18.868 C 65.559 18.927,65.622 18.897,65.476 18.721 C 65.275 18.478,64.425 18.410,64.571 18.647 M2.500 18.762 C 2.500 18.886,2.948 19.333,3.071 19.333 C 3.287 19.333,3.147 18.861,2.903 18.768 C 2.575 18.642,2.500 18.641,2.500 18.762 M66.333 19.500 C 66.333 19.592,66.427 19.668,66.542 19.669 C 66.656 19.670,66.920 19.717,67.127 19.772 C 67.428 19.853,67.484 19.818,67.401 19.603 C 67.288 19.309,66.333 19.217,66.333 19.500 M43.833 19.917 C 43.665 20.120,43.673 20.167,43.876 20.167 C 44.013 20.167,44.219 20.054,44.333 19.917 C 44.502 19.713,44.494 19.667,44.291 19.667 C 44.153 19.667,43.947 19.779,43.833 19.917 M68.430 20.387 C 68.513 20.603,69.350 21.039,69.463 20.926 C 69.604 20.785,69.323 20.529,68.844 20.362 C 68.477 20.234,68.372 20.241,68.430 20.387 M43.333 20.820 C 43.333 20.904,43.289 21.110,43.234 21.278 C 43.175 21.459,43.192 21.511,43.276 21.405 C 43.353 21.306,43.548 21.177,43.708 21.118 C 44.106 20.971,44.077 20.667,43.667 20.667 C 43.483 20.667,43.333 20.736,43.333 20.820 M70.000 21.667 C 70.000 21.758,70.112 21.833,70.250 21.833 C 70.387 21.833,70.500 21.758,70.500 21.667 C 70.500 21.575,70.387 21.500,70.250 21.500 C 70.112 21.500,70.000 21.575,70.000 21.667 M42.875 22.277 C 42.592 22.391,42.610 22.833,42.897 22.833 C 43.024 22.833,43.167 22.683,43.215 22.500 C 43.303 22.162,43.249 22.126,42.875 22.277 M70.667 22.456 C 70.667 22.601,71.286 23.333,71.409 23.333 C 71.443 23.333,71.416 23.127,71.349 22.875 C 71.237 22.458,70.667 22.108,70.667 22.456 M71.500 24.000 C 71.500 24.183,71.575 24.333,71.667 24.333 C 71.758 24.333,71.833 24.183,71.833 24.000 C 71.833 23.817,71.758 23.667,71.667 23.667 C 71.575 23.667,71.500 23.817,71.500 24.000 M41.917 24.333 C 41.860 24.425,41.870 24.500,41.939 24.500 C 42.007 24.500,41.926 24.600,41.758 24.723 C 41.485 24.924,41.481 24.957,41.724 25.050 C 41.987 25.151,42.333 24.750,42.333 24.344 C 42.333 24.120,42.053 24.112,41.917 24.333 M61.772 24.754 C 61.701 24.937,62.114 25.157,62.542 25.164 C 62.813 25.169,62.642 24.907,62.259 24.729 C 61.945 24.583,61.835 24.589,61.772 24.754 M71.741 24.848 C 71.569 25.126,71.956 25.444,72.185 25.215 C 72.378 25.022,72.257 24.667,72.000 24.667 C 71.919 24.667,71.803 24.748,71.741 24.848 M41.167 25.674 C 41.167 25.876,41.369 25.976,41.600 25.887 C 41.950 25.753,41.881 25.517,41.500 25.546 C 41.317 25.560,41.167 25.617,41.167 25.674 M61.250 25.667 C 61.193 25.758,61.192 25.833,61.246 25.833 C 61.300 25.833,61.270 25.973,61.178 26.145 C 61.087 26.316,61.058 26.502,61.114 26.559 C 61.218 26.662,61.667 25.922,61.667 25.648 C 61.667 25.447,61.377 25.460,61.250 25.667 M64.240 25.992 C 64.509 26.169,64.790 26.277,64.865 26.231 C 64.939 26.185,65.000 26.388,65.000 26.683 C 65.000 27.202,65.010 27.209,65.322 26.927 C 65.726 26.561,65.612 26.247,64.958 25.921 C 64.161 25.523,63.611 25.577,64.240 25.992 M72.000 26.573 C 72.000 26.706,72.075 26.860,72.167 26.917 C 72.258 26.973,72.333 26.865,72.333 26.677 C 72.333 26.488,72.258 26.333,72.167 26.333 C 72.075 26.333,72.000 26.441,72.000 26.573 M3.678 26.737 C 3.516 26.931,3.542 26.958,3.824 26.884 C 4.012 26.835,4.167 26.728,4.167 26.647 C 4.167 26.422,3.898 26.472,3.678 26.737 M40.698 26.792 C 40.729 26.952,40.865 27.083,41.000 27.083 C 41.135 27.083,41.271 26.952,41.302 26.792 C 41.341 26.587,41.251 26.500,41.000 26.500 C 40.749 26.500,40.659 26.587,40.698 26.792 M60.333 27.653 C 60.333 27.829,60.284 28.102,60.223 28.259 C 60.146 28.461,60.183 28.521,60.348 28.464 C 60.478 28.419,60.563 28.267,60.539 28.127 C 60.514 27.986,60.613 27.826,60.758 27.770 C 61.063 27.653,60.928 27.333,60.573 27.333 C 60.441 27.333,60.333 27.477,60.333 27.653 M40.167 28.250 C 40.167 28.479,40.224 28.667,40.293 28.667 C 40.479 28.667,40.831 28.053,40.712 27.935 C 40.468 27.690,40.167 27.865,40.167 28.250 M64.479 28.000 C 64.468 28.092,64.449 28.239,64.438 28.328 C 64.426 28.417,64.285 28.642,64.125 28.830 C 63.810 29.197,63.745 29.500,63.980 29.500 C 64.060 29.500,64.203 29.406,64.298 29.292 C 64.499 29.049,64.752 27.833,64.602 27.833 C 64.546 27.833,64.491 27.908,64.479 28.000 M59.625 29.513 C 59.278 29.715,59.236 30.167,59.564 30.167 C 59.691 30.167,59.830 29.979,59.874 29.750 C 59.918 29.521,59.945 29.336,59.935 29.338 C 59.925 29.341,59.785 29.420,59.625 29.513 M71.000 30.500 C 71.000 30.683,71.067 30.833,71.149 30.833 C 71.336 30.833,71.511 30.400,71.377 30.266 C 71.177 30.066,71.000 30.175,71.000 30.500 M39.100 30.550 C 38.837 30.743,38.832 30.791,39.057 30.978 C 39.266 31.152,39.341 31.131,39.488 30.855 C 39.796 30.280,39.639 30.157,39.100 30.550 M63.333 30.612 C 63.333 30.765,63.209 31.028,63.057 31.196 C 62.682 31.610,62.914 31.797,63.332 31.418 C 63.677 31.106,63.796 30.333,63.500 30.333 C 63.408 30.333,63.333 30.459,63.333 30.612 M58.667 31.583 C 58.667 31.721,58.742 31.833,58.833 31.833 C 58.925 31.833,59.000 31.721,59.000 31.583 C 59.000 31.446,58.925 31.333,58.833 31.333 C 58.742 31.333,58.667 31.446,58.667 31.583 M70.375 31.610 C 70.125 31.711,70.094 32.333,70.339 32.333 C 70.433 32.333,70.559 32.202,70.618 32.042 C 70.677 31.881,70.806 31.695,70.905 31.628 C 71.108 31.488,70.709 31.475,70.375 31.610 M32.940 31.949 C 32.752 32.137,32.826 32.333,33.083 32.333 C 33.221 32.333,33.333 32.263,33.333 32.177 C 33.333 31.966,33.073 31.816,32.940 31.949 M38.506 32.156 C 38.411 32.333,38.333 32.596,38.333 32.739 C 38.333 32.883,38.254 33.000,38.157 33.000 C 38.060 33.000,38.027 33.076,38.084 33.168 C 38.242 33.424,38.608 32.978,38.743 32.366 C 38.874 31.767,38.765 31.671,38.506 32.156 M58.440 32.116 C 58.252 32.303,58.326 32.500,58.583 32.500 C 58.721 32.500,58.833 32.429,58.833 32.343 C 58.833 32.133,58.573 31.982,58.440 32.116 M62.533 32.367 C 62.293 32.607,62.269 33.000,62.494 33.000 C 62.643 33.000,63.000 32.478,63.000 32.261 C 63.000 32.099,62.742 32.158,62.533 32.367 M57.887 33.301 C 57.625 33.463,57.544 34.035,57.772 34.115 C 57.875 34.151,58.010 33.982,58.072 33.738 C 58.198 33.235,58.155 33.134,57.887 33.301 M69.563 33.575 C 69.512 33.708,69.519 33.896,69.578 33.992 C 69.638 34.088,69.569 34.167,69.427 34.167 C 69.284 34.167,69.167 34.292,69.167 34.446 C 69.167 34.675,69.243 34.653,69.593 34.324 C 69.828 34.104,69.945 33.898,69.853 33.868 C 69.761 33.837,69.727 33.704,69.777 33.573 C 69.828 33.441,69.821 33.333,69.763 33.333 C 69.704 33.333,69.614 33.442,69.563 33.575 M61.863 33.714 C 61.762 33.836,61.745 34.024,61.825 34.153 C 61.934 34.330,62.004 34.304,62.149 34.033 C 62.446 33.478,62.246 33.253,61.863 33.714 M37.648 34.058 C 37.537 34.301,37.384 34.500,37.307 34.500 C 37.230 34.500,37.167 34.612,37.167 34.750 C 37.167 35.150,37.448 35.041,37.842 34.487 C 38.103 34.121,38.156 33.923,38.028 33.795 C 37.901 33.667,37.792 33.743,37.648 34.058 M61.500 34.646 C 61.500 34.841,61.571 35.000,61.657 35.000 C 61.946 35.000,61.999 34.707,61.748 34.498 C 61.542 34.327,61.500 34.352,61.500 34.646 M37.006 35.489 C 36.788 35.895,36.786 36.049,36.999 35.917 C 37.267 35.752,37.536 35.167,37.345 35.167 C 37.253 35.167,37.101 35.312,37.006 35.489 M56.916 35.397 C 56.629 35.606,56.687 36.000,57.004 36.000 C 57.223 36.000,57.527 35.370,57.358 35.265 C 57.280 35.217,57.081 35.276,56.916 35.397 M68.513 35.734 C 68.399 35.872,68.331 36.103,68.361 36.249 C 68.409 36.478,68.455 36.470,68.689 36.194 C 68.839 36.018,68.907 35.787,68.841 35.679 C 68.753 35.537,68.665 35.552,68.513 35.734 M61.000 35.917 C 61.000 36.054,60.934 36.167,60.853 36.167 C 60.772 36.167,60.667 36.315,60.619 36.497 C 60.546 36.778,60.580 36.802,60.850 36.658 C 61.024 36.565,61.167 36.422,61.167 36.341 C 61.167 36.260,61.212 36.075,61.268 35.930 C 61.323 35.785,61.286 35.667,61.184 35.667 C 61.083 35.667,61.000 35.779,61.000 35.917 M36.667 36.427 C 36.667 36.569,36.600 36.645,36.519 36.595 C 36.438 36.545,36.326 36.672,36.271 36.877 C 36.092 37.545,36.161 37.592,36.578 37.083 C 37.007 36.560,37.117 36.167,36.833 36.167 C 36.742 36.167,36.667 36.284,36.667 36.427 M60.400 37.134 C 60.173 37.286,59.626 38.681,59.746 38.801 C 59.914 38.969,60.236 38.506,60.446 37.795 C 60.669 37.038,60.664 36.958,60.400 37.134 M56.000 37.480 C 56.000 37.652,55.880 37.892,55.734 38.013 C 55.492 38.214,55.496 38.244,55.776 38.344 C 55.999 38.424,56.113 38.357,56.192 38.102 C 56.360 37.555,56.350 37.167,56.167 37.167 C 56.075 37.167,56.000 37.307,56.000 37.480 M67.707 37.597 C 67.593 37.719,67.500 37.860,67.500 37.910 C 67.500 38.093,67.965 37.993,68.151 37.769 C 68.413 37.453,67.994 37.291,67.707 37.597 M35.879 37.871 C 35.787 37.988,35.676 38.283,35.632 38.526 C 35.518 39.158,35.947 38.952,36.089 38.307 C 36.213 37.741,36.126 37.559,35.879 37.871 M55.002 39.415 C 54.775 39.688,54.921 40.319,55.153 40.070 C 55.383 39.823,55.537 39.167,55.365 39.167 C 55.278 39.167,55.115 39.278,55.002 39.415 M59.246 39.679 C 59.186 39.869,59.172 40.061,59.215 40.104 C 59.346 40.235,59.844 39.651,59.742 39.487 C 59.583 39.229,59.362 39.315,59.246 39.679 M66.500 40.264 C 66.500 40.409,66.589 40.498,66.698 40.462 C 67.007 40.359,67.058 40.000,66.764 40.000 C 66.619 40.000,66.500 40.119,66.500 40.264 M3.907 40.411 C 3.614 40.633,3.611 40.657,3.875 40.661 C 4.035 40.664,4.167 40.587,4.167 40.489 C 4.167 40.389,4.307 40.356,4.486 40.412 C 4.662 40.468,4.854 40.436,4.912 40.340 C 5.077 40.074,4.278 40.131,3.907 40.411 M28.833 40.344 C 28.833 40.430,28.983 40.500,29.167 40.500 C 29.350 40.500,29.500 40.441,29.500 40.369 C 29.500 40.297,29.350 40.226,29.167 40.212 C 28.983 40.199,28.833 40.258,28.833 40.344 M34.728 40.395 C 34.529 40.622,34.249 41.667,34.387 41.667 C 34.499 41.667,35.167 40.516,35.167 40.324 C 35.167 40.104,34.952 40.139,34.728 40.395 M54.708 40.620 C 54.594 40.661,54.500 40.838,54.500 41.014 C 54.500 41.190,54.425 41.333,54.333 41.333 C 54.242 41.333,54.167 41.468,54.167 41.633 C 54.167 41.798,54.085 42.015,53.985 42.115 C 53.855 42.245,53.855 42.327,53.985 42.408 C 54.085 42.469,54.167 42.435,54.167 42.331 C 54.167 42.228,54.279 42.030,54.417 41.893 C 54.554 41.755,54.667 41.467,54.667 41.252 C 54.667 41.037,54.760 40.828,54.875 40.787 C 54.990 40.746,55.046 40.675,55.000 40.629 C 54.954 40.583,54.823 40.579,54.708 40.620 M2.512 41.235 C 2.393 41.379,2.379 41.509,2.477 41.569 C 2.716 41.717,3.167 41.497,3.167 41.232 C 3.167 40.931,2.763 40.933,2.512 41.235 M58.438 41.375 C 58.291 41.925,58.312 42.200,58.493 42.088 C 58.580 42.034,58.614 41.889,58.566 41.766 C 58.519 41.643,58.598 41.498,58.740 41.443 C 59.062 41.320,59.083 41.000,58.769 41.000 C 58.643 41.000,58.494 41.169,58.438 41.375 M28.533 41.533 C 28.312 41.755,28.263 42.168,28.458 42.164 C 28.714 42.159,29.061 41.851,29.099 41.597 C 29.144 41.286,28.818 41.249,28.533 41.533 M65.867 41.533 C 65.602 41.798,65.611 42.167,65.883 42.167 C 66.162 42.167,66.500 41.829,66.500 41.550 C 66.500 41.278,66.132 41.268,65.867 41.533 M34.000 41.913 C 34.000 42.059,33.883 42.356,33.741 42.574 C 33.403 43.090,33.718 43.304,34.072 42.799 C 34.370 42.374,34.412 41.902,34.167 41.750 C 34.075 41.693,34.000 41.767,34.000 41.913 M58.014 42.491 C 57.769 42.643,57.618 44.284,57.836 44.419 C 58.084 44.572,58.341 43.659,58.150 43.303 C 58.011 43.043,58.016 42.926,58.170 42.831 C 58.282 42.762,58.346 42.624,58.312 42.525 C 58.274 42.413,58.160 42.400,58.014 42.491 M1.667 43.167 C 1.667 43.350,1.742 43.500,1.833 43.500 C 1.925 43.500,2.000 43.350,2.000 43.167 C 2.000 42.983,1.925 42.833,1.833 42.833 C 1.742 42.833,1.667 42.983,1.667 43.167 M53.355 43.399 C 53.246 43.664,53.120 43.940,53.076 44.012 C 53.031 44.085,53.071 44.191,53.164 44.249 C 53.365 44.372,53.708 43.560,53.616 43.180 C 53.572 42.999,53.491 43.067,53.355 43.399 M65.242 43.469 C 64.968 43.666,64.651 44.340,64.754 44.507 C 64.925 44.783,65.167 44.681,65.167 44.333 C 65.167 44.150,65.234 44.000,65.316 44.000 C 65.513 44.000,65.687 43.532,65.526 43.433 C 65.457 43.390,65.329 43.407,65.242 43.469 M33.111 43.778 C 32.785 44.104,32.996 44.555,33.333 44.250 C 33.517 44.084,33.667 43.885,33.667 43.808 C 33.667 43.640,33.270 43.619,33.111 43.778 M27.625 44.013 C 27.256 44.229,27.248 44.500,27.611 44.500 C 27.764 44.500,27.840 44.451,27.779 44.390 C 27.719 44.330,27.753 44.180,27.855 44.057 C 28.074 43.793,28.021 43.783,27.625 44.013 M1.667 44.407 C 1.667 44.539,1.742 44.693,1.833 44.750 C 1.925 44.807,2.000 44.699,2.000 44.510 C 2.000 44.321,1.925 44.167,1.833 44.167 C 1.742 44.167,1.667 44.275,1.667 44.407 M32.706 45.027 C 32.593 45.141,32.506 45.387,32.513 45.575 C 32.523 45.819,32.554 45.845,32.621 45.667 C 32.674 45.529,32.790 45.369,32.879 45.311 C 32.968 45.253,33.012 45.119,32.977 45.013 C 32.929 44.872,32.858 44.875,32.706 45.027 M52.432 45.259 C 52.146 45.544,52.145 45.854,52.428 45.948 C 52.515 45.977,52.685 45.842,52.807 45.647 C 53.102 45.175,52.814 44.876,52.432 45.259 M58.333 45.896 C 58.333 46.162,58.865 46.667,59.146 46.667 C 59.279 46.667,59.246 46.526,59.049 46.257 C 58.694 45.771,58.333 45.589,58.333 45.896 M32.042 46.451 C 31.790 46.994,31.780 47.167,32.000 47.167 C 32.092 47.167,32.167 47.017,32.167 46.833 C 32.167 46.650,32.242 46.500,32.333 46.500 C 32.425 46.500,32.500 46.387,32.500 46.250 C 32.500 45.858,32.270 45.959,32.042 46.451 M26.556 46.428 C 26.501 46.572,26.541 46.774,26.645 46.878 C 26.785 47.018,26.833 46.952,26.833 46.617 C 26.833 46.115,26.709 46.030,26.556 46.428 M293.792 46.721 C 293.448 46.920,293.124 47.215,293.072 47.375 C 293.020 47.535,292.904 47.667,292.814 47.667 C 292.220 47.667,291.919 50.871,292.421 51.842 C 292.561 52.112,292.748 52.333,292.838 52.333 C 292.927 52.333,293.000 52.446,293.000 52.583 C 293.000 52.721,293.061 52.833,293.135 52.833 C 293.210 52.833,293.452 53.002,293.673 53.208 C 294.151 53.653,297.819 53.795,297.958 53.375 C 297.997 53.260,298.121 53.167,298.236 53.167 C 298.350 53.167,298.544 52.979,298.667 52.750 C 298.789 52.521,298.973 52.333,299.075 52.333 C 299.589 52.333,300.015 49.806,299.675 48.775 C 299.475 48.168,298.057 46.612,297.831 46.751 C 297.756 46.798,297.664 46.741,297.626 46.626 C 297.491 46.222,294.525 46.295,293.792 46.721 M3.667 47.071 C 3.667 47.484,4.113 47.500,15.347 47.500 C 25.507 47.500,26.500 47.476,26.500 47.231 C 26.500 47.020,26.418 46.992,26.125 47.104 C 25.635 47.290,4.167 47.361,4.167 47.177 C 4.167 47.099,4.054 46.992,3.917 46.940 C 3.770 46.883,3.667 46.937,3.667 47.071 M59.424 46.988 C 59.303 47.184,59.934 47.394,60.183 47.240 C 60.314 47.159,60.302 47.083,60.143 46.982 C 59.845 46.793,59.543 46.796,59.424 46.988 M62.000 47.130 C 61.512 47.354,61.473 47.408,61.761 47.457 C 62.222 47.535,63.046 47.210,62.917 47.000 C 62.787 46.790,62.714 46.800,62.000 47.130 M31.667 47.573 C 31.667 47.716,31.592 47.833,31.500 47.833 C 31.408 47.833,31.333 47.908,31.333 48.000 C 31.333 48.273,31.572 48.190,31.790 47.841 C 31.918 47.636,31.933 47.478,31.830 47.415 C 31.740 47.359,31.667 47.431,31.667 47.573 M51.299 47.735 C 51.030 48.106,51.053 48.333,51.361 48.333 C 51.438 48.333,51.500 48.216,51.500 48.073 C 51.500 47.931,51.575 47.860,51.667 47.917 C 51.758 47.973,51.833 47.865,51.833 47.677 C 51.833 47.229,51.652 47.249,51.299 47.735 M31.146 48.740 C 31.134 48.791,31.114 48.890,31.102 48.958 C 31.089 49.027,31.016 49.182,30.939 49.303 C 30.863 49.423,30.835 49.557,30.877 49.600 C 30.920 49.642,31.077 49.491,31.226 49.264 C 31.391 49.011,31.432 48.811,31.331 48.749 C 31.241 48.693,31.157 48.689,31.146 48.740 M50.611 49.111 C 50.428 49.294,50.482 50.197,50.669 50.082 C 50.763 50.024,50.796 49.907,50.743 49.822 C 50.690 49.736,50.726 49.667,50.823 49.667 C 50.921 49.667,51.000 49.517,51.000 49.333 C 51.000 49.001,50.822 48.900,50.611 49.111 M30.438 50.708 C 30.383 50.915,30.339 51.158,30.341 51.250 C 30.345 51.498,30.833 50.806,30.833 50.551 C 30.833 50.191,30.546 50.305,30.438 50.708 M49.778 51.111 C 49.525 51.364,49.655 51.884,49.917 51.667 C 50.054 51.553,50.167 51.356,50.167 51.230 C 50.167 50.987,49.964 50.925,49.778 51.111 M30.000 52.167 C 30.000 52.381,30.084 52.500,30.208 52.458 C 30.323 52.420,30.417 52.289,30.417 52.167 C 30.417 52.044,30.323 51.913,30.208 51.875 C 30.084 51.834,30.000 51.952,30.000 52.167 M29.669 52.875 C 29.675 53.351,29.995 53.594,29.997 53.125 C 29.999 52.873,29.925 52.667,29.833 52.667 C 29.742 52.667,29.668 52.760,29.669 52.875 M48.664 53.589 C 48.543 53.815,48.492 54.048,48.551 54.107 C 48.697 54.253,49.167 53.846,49.167 53.573 C 49.167 53.166,48.885 53.175,48.664 53.589 M3.851 54.258 C 3.540 54.393,3.146 54.665,2.976 54.861 C 2.806 55.057,2.664 55.150,2.660 55.067 C 2.647 54.782,2.000 56.227,2.000 56.540 C 2.000 56.712,1.938 56.814,1.862 56.767 C 1.785 56.720,1.707 57.091,1.686 57.591 C 1.664 58.139,1.719 58.500,1.825 58.500 C 1.921 58.500,2.000 58.725,2.000 59.000 C 2.000 59.275,2.075 59.500,2.167 59.500 C 2.258 59.500,2.333 59.616,2.333 59.758 C 2.333 60.060,3.120 60.833,3.427 60.833 C 3.544 60.833,3.667 60.918,3.702 61.022 C 3.736 61.126,3.998 61.220,4.283 61.231 C 4.568 61.241,4.766 61.306,4.724 61.375 C 4.633 61.523,23.185 61.546,23.570 61.399 C 23.772 61.321,23.833 61.050,23.833 60.232 C 23.833 59.646,23.900 59.167,23.981 59.167 C 24.063 59.167,24.184 58.117,24.250 56.833 C 24.316 55.550,24.437 54.500,24.519 54.500 C 24.600 54.500,24.667 54.387,24.667 54.250 C 24.667 53.877,4.711 53.885,3.851 54.258 M29.500 54.500 C 29.500 54.811,29.544 54.856,29.700 54.700 C 29.856 54.544,29.856 54.456,29.700 54.300 C 29.544 54.144,29.500 54.189,29.500 54.500 M48.170 54.746 C 47.906 55.064,48.045 55.252,48.397 55.055 C 48.551 54.968,48.600 54.828,48.519 54.698 C 48.415 54.529,48.341 54.540,48.170 54.746 M29.258 55.208 C 29.188 55.369,29.188 55.631,29.258 55.792 C 29.379 56.069,29.388 56.069,29.455 55.792 C 29.572 55.300,29.418 54.841,29.258 55.208 M47.708 55.749 C 47.458 56.034,47.437 56.333,47.667 56.333 C 47.758 56.333,47.833 56.216,47.833 56.073 C 47.833 55.931,47.907 55.859,47.998 55.915 C 48.093 55.974,48.121 55.907,48.064 55.759 C 47.946 55.452,47.969 55.453,47.708 55.749 M47.159 56.759 C 47.028 56.917,47.007 57.073,47.103 57.170 C 47.199 57.266,47.335 57.202,47.459 57.004 C 47.705 56.610,47.453 56.404,47.159 56.759 M46.693 57.552 C 46.416 57.885,46.497 58.210,46.808 58.016 C 46.932 57.940,47.007 57.743,46.975 57.579 C 46.922 57.306,46.898 57.304,46.693 57.552 M29.005 58.408 C 29.002 58.896,29.060 59.169,29.148 59.075 C 29.448 58.754,29.497 58.226,29.256 57.908 C 29.029 57.608,29.010 57.645,29.005 58.408 M45.273 59.750 C 45.215 59.902,45.273 60.000,45.422 60.000 C 45.557 60.000,45.667 59.887,45.667 59.750 C 45.667 59.612,45.600 59.500,45.518 59.500 C 45.436 59.500,45.326 59.612,45.273 59.750 M28.667 61.907 C 28.667 63.626,28.862 64.316,29.063 63.310 C 29.196 62.646,29.197 60.774,29.066 60.430 C 28.812 59.769,28.667 60.307,28.667 61.907 M44.833 60.412 C 44.833 60.536,44.621 60.816,44.362 61.034 C 43.818 61.492,43.564 62.167,43.936 62.167 C 44.068 62.167,44.220 61.943,44.274 61.669 C 44.329 61.396,44.436 61.210,44.512 61.257 C 44.588 61.304,44.741 61.172,44.852 60.963 C 44.963 60.754,45.159 60.506,45.288 60.411 C 45.476 60.272,45.455 60.234,45.177 60.213 C 44.987 60.199,44.833 60.288,44.833 60.412 M42.940 62.616 C 42.752 62.803,42.826 63.000,43.083 63.000 C 43.221 63.000,43.333 62.929,43.333 62.843 C 43.333 62.633,43.073 62.482,42.940 62.616 M29.006 65.448 C 29.011 66.206,29.024 66.228,29.234 65.850 C 29.458 65.445,29.416 64.904,29.147 64.738 C 29.066 64.688,29.003 65.008,29.006 65.448 M39.171 66.411 C 38.828 66.825,39.056 67.052,39.462 66.700 C 39.666 66.523,39.833 66.330,39.833 66.272 C 39.833 66.071,39.373 66.168,39.171 66.411 M37.582 67.834 C 37.416 68.018,37.323 68.212,37.375 68.264 C 37.496 68.385,38.333 67.846,38.333 67.647 C 38.333 67.383,37.892 67.492,37.582 67.834 M29.167 68.250 C 29.167 68.479,29.242 68.667,29.333 68.667 C 29.425 68.667,29.500 68.479,29.500 68.250 C 29.500 68.021,29.425 67.833,29.333 67.833 C 29.242 67.833,29.167 68.021,29.167 68.250 M29.500 69.083 C 29.500 69.221,29.575 69.333,29.667 69.333 C 29.758 69.333,29.833 69.221,29.833 69.083 C 29.833 68.946,29.758 68.833,29.667 68.833 C 29.575 68.833,29.500 68.946,29.500 69.083 M35.300 69.490 C 34.895 69.859,34.824 69.992,35.032 69.995 C 35.428 70.002,36.273 69.252,36.035 69.105 C 35.933 69.042,35.602 69.215,35.300 69.490 M29.761 69.982 C 29.686 70.103,30.390 70.833,30.581 70.833 C 30.624 70.833,30.576 70.650,30.474 70.426 C 30.277 69.993,29.899 69.758,29.761 69.982 M33.667 70.545 C 33.213 70.756,32.572 70.897,32.042 70.900 C 31.442 70.903,31.167 70.972,31.167 71.119 C 31.167 71.270,31.463 71.333,32.167 71.333 C 32.722 71.333,33.167 71.259,33.167 71.167 C 33.167 71.075,33.354 71.000,33.583 71.000 C 33.813 71.000,34.000 70.930,34.000 70.845 C 34.000 70.759,34.150 70.642,34.333 70.583 C 34.517 70.525,34.667 70.408,34.667 70.322 C 34.667 70.110,34.536 70.139,33.667 70.545 " stroke="none" fill="#9beccc" fill-rule="evenodd"></path><path id="path3" d="M5.333 12.833 C 5.333 12.925,5.114 13.000,4.847 13.000 C 4.579 13.000,4.120 13.131,3.826 13.292 C 3.402 13.523,3.275 13.538,3.211 13.363 C 3.152 13.200,3.027 13.240,2.734 13.515 C 2.444 13.788,2.384 13.944,2.513 14.098 C 2.637 14.248,2.619 14.446,2.451 14.780 C 2.320 15.038,2.160 15.471,2.095 15.741 C 2.004 16.122,1.943 16.178,1.824 15.991 C 1.710 15.811,1.671 15.866,1.669 16.208 C 1.668 16.487,1.748 16.650,1.875 16.625 C 1.995 16.601,2.078 16.742,2.070 16.958 C 2.063 17.165,2.110 17.333,2.174 17.333 C 2.239 17.333,2.335 17.552,2.389 17.820 C 2.447 18.109,2.625 18.350,2.827 18.415 C 3.014 18.474,3.247 18.671,3.344 18.853 C 3.441 19.034,3.711 19.255,3.944 19.344 C 4.215 19.447,4.334 19.592,4.274 19.747 C 4.223 19.880,4.265 20.041,4.366 20.104 C 4.468 20.167,4.507 20.147,4.453 20.059 C 4.310 19.827,4.598 19.438,4.815 19.572 C 4.917 19.635,5.000 19.795,5.000 19.927 C 5.000 20.299,38.689 20.206,38.790 19.833 C 38.846 19.631,38.828 19.626,38.700 19.809 C 38.597 19.957,38.504 19.975,38.434 19.861 C 38.375 19.766,38.459 19.610,38.621 19.515 C 38.784 19.421,38.823 19.341,38.708 19.338 C 38.341 19.329,38.485 18.702,38.936 18.348 C 39.188 18.150,39.332 17.904,39.279 17.765 C 39.086 17.262,39.699 16.091,40.083 16.231 C 40.178 16.265,40.250 15.983,40.250 15.580 C 40.250 15.114,40.360 14.747,40.567 14.517 C 40.742 14.325,40.821 14.167,40.742 14.167 C 40.664 14.167,40.693 14.074,40.807 13.960 C 40.972 13.795,41.042 13.799,41.153 13.978 C 41.250 14.134,41.326 14.146,41.406 14.018 C 41.468 13.916,41.449 13.833,41.362 13.833 C 41.275 13.833,41.155 13.571,41.094 13.250 L 40.985 12.667 23.159 12.667 C 11.386 12.667,5.333 12.723,5.333 12.833 M251.872 24.000 C 251.872 24.321,251.906 24.452,251.948 24.292 C 251.990 24.131,251.990 23.869,251.948 23.708 C 251.906 23.548,251.872 23.679,251.872 24.000 " stroke="none" fill="#055836" fill-rule="evenodd"></path><path id="path4" d="M4.167 12.833 C 4.167 12.925,4.054 13.000,3.917 13.000 C 3.779 13.000,3.667 13.084,3.667 13.187 C 3.667 13.316,3.589 13.310,3.417 13.167 C 3.212 12.997,3.167 13.008,3.167 13.230 C 3.167 13.566,3.501 13.577,3.926 13.255 C 4.104 13.121,4.494 13.008,4.792 13.005 C 5.090 13.002,5.333 12.925,5.333 12.833 C 5.333 12.742,5.071 12.667,4.750 12.667 C 4.429 12.667,4.167 12.742,4.167 12.833 M41.086 13.178 C 41.172 13.570,41.126 13.745,40.891 13.923 C 40.722 14.051,40.651 14.158,40.734 14.161 C 40.817 14.164,40.758 14.307,40.602 14.479 C 40.224 14.897,39.989 16.201,40.359 15.832 C 40.495 15.695,40.748 15.208,40.920 14.750 C 41.092 14.292,41.312 13.862,41.408 13.794 C 41.504 13.727,41.518 13.671,41.438 13.669 C 41.358 13.668,41.386 13.554,41.500 13.417 C 41.643 13.244,41.650 13.167,41.520 13.167 C 41.418 13.167,41.333 13.054,41.333 12.917 C 41.333 12.779,41.252 12.667,41.153 12.667 C 41.039 12.667,41.015 12.854,41.086 13.178 M2.333 14.383 C 2.333 14.631,2.258 14.833,2.167 14.833 C 2.075 14.833,1.995 15.040,1.988 15.292 C 1.978 15.698,1.960 15.712,1.833 15.417 L 1.690 15.083 1.681 15.417 C 1.664 16.049,1.964 16.285,2.095 15.741 C 2.160 15.471,2.322 15.035,2.454 14.773 C 2.627 14.429,2.644 14.244,2.514 14.114 C 2.384 13.984,2.333 14.060,2.333 14.383 M39.750 16.294 C 39.501 16.477,39.173 17.490,39.276 17.758 C 39.431 18.163,39.833 17.597,39.836 16.970 C 39.838 16.552,39.878 16.478,40.000 16.667 C 40.131 16.869,40.162 16.845,40.164 16.542 C 40.167 16.156,40.041 16.080,39.750 16.294 M1.728 16.747 C 1.672 16.894,1.672 17.061,1.729 17.118 C 1.787 17.175,1.834 17.116,1.836 16.986 C 1.838 16.792,1.867 16.794,2.000 17.000 C 2.139 17.215,2.162 17.211,2.164 16.968 C 2.168 16.579,1.854 16.420,1.728 16.747 M2.000 17.750 C 2.000 17.979,2.075 18.167,2.167 18.167 C 2.258 18.167,2.333 18.279,2.333 18.417 C 2.333 18.557,2.482 18.667,2.672 18.667 C 2.858 18.667,3.057 18.798,3.114 18.958 C 3.283 19.436,3.697 19.833,4.026 19.833 C 4.468 19.833,4.405 19.519,3.927 19.337 C 3.703 19.252,3.441 19.034,3.344 18.853 C 3.247 18.671,3.014 18.474,2.827 18.415 C 2.625 18.350,2.447 18.109,2.389 17.820 C 2.270 17.225,2.000 17.176,2.000 17.750 M38.776 18.471 C 38.478 18.801,38.403 19.333,38.655 19.333 C 38.740 19.333,38.836 19.165,38.867 18.958 C 38.899 18.752,39.017 18.602,39.129 18.625 C 39.241 18.648,39.333 18.554,39.333 18.417 C 39.333 18.080,39.110 18.102,38.776 18.471 M4.437 19.756 C 4.381 19.904,4.447 20.054,4.593 20.110 C 4.919 20.235,5.068 20.085,4.942 19.757 C 4.816 19.427,4.564 19.427,4.437 19.756 M4.708 26.451 C 4.502 26.491,4.333 26.584,4.333 26.659 C 4.333 26.791,3.782 27.028,3.383 27.068 C 3.119 27.094,2.436 27.832,2.391 28.141 C 2.372 28.274,2.273 28.434,2.173 28.496 C 2.072 28.558,2.009 28.860,2.033 29.167 C 2.058 29.493,1.990 29.753,1.871 29.793 C 1.595 29.885,1.612 30.277,1.896 30.386 C 2.043 30.442,2.095 30.631,2.042 30.908 C 1.986 31.205,2.062 31.433,2.283 31.630 C 2.629 31.937,2.946 32.590,2.665 32.415 C 2.389 32.245,2.480 32.493,2.833 32.872 C 3.062 33.118,3.167 33.156,3.167 32.994 C 3.167 32.850,3.267 32.902,3.426 33.130 C 3.683 33.497,4.124 33.669,3.906 33.317 C 3.842 33.212,3.963 33.230,4.188 33.358 C 4.572 33.575,4.675 33.607,5.135 33.647 C 5.255 33.658,5.307 33.742,5.250 33.833 C 5.042 34.169,31.856 34.040,32.259 33.703 C 32.768 33.277,33.213 32.333,32.904 32.333 C 32.637 32.333,32.607 32.186,32.808 31.869 C 32.884 31.749,33.068 31.703,33.228 31.765 C 33.385 31.825,33.499 31.809,33.480 31.729 C 33.462 31.649,33.505 31.451,33.576 31.289 C 33.646 31.127,33.663 30.839,33.614 30.648 C 33.495 30.197,33.641 29.833,33.940 29.833 C 34.238 29.833,34.525 29.126,34.288 28.975 C 34.036 28.815,34.285 28.315,34.668 28.215 C 34.916 28.150,35.000 27.987,35.000 27.574 C 35.000 27.269,35.075 26.973,35.167 26.917 C 35.258 26.860,35.333 26.706,35.333 26.573 C 35.333 26.343,5.879 26.226,4.708 26.451 " stroke="none" fill="#0c8454" fill-rule="evenodd"></path></g></svg>